<?xml version="1.0" encoding="utf-8"?>
<!-- Generator: Adobe Illustrator 17.0.0, SVG Export Plug-In . SVG Version: 6.00 Build 0)  -->
<!DOCTYPE svg PUBLIC "-//W3C//DTD SVG 1.1//EN" "http://www.w3.org/Graphics/SVG/1.1/DTD/svg11.dtd">
<svg version="1.1" id="Capa_1" xmlns="http://www.w3.org/2000/svg" xmlns:xlink="http://www.w3.org/1999/xlink" x="0px" y="0px"
	 width="100px" height="100px" viewBox="0 0 100 100" enable-background="new 0 0 100 100" xml:space="preserve">
<circle fill="#72B0A2" cx="50.079" cy="50" r="47.5"/>
<path opacity="0.2" fill="#262324" enable-background="new    " d="M69.81,78.928l7.713-7.713c1.278-1.278,0.904-3.724-0.835-5.463
	l-5.248-5.248l-1.05-1.05L42.395,31.461l-12.511-4.284l-6.255-2.141l2.141,6.256l4.284,12.511L58.05,71.797l1.05,1.05l5.248,5.248
	C66.087,79.833,68.532,80.206,69.81,78.928z"/>
<path fill="#BC5A59" d="M58.05,68.287c-1.739-1.739-2.113-4.185-0.835-5.462l7.713-7.713c1.278-1.278,3.724-0.904,5.463,0.835
	l6.298,6.298c1.739,1.739,2.113,4.185,0.835,5.463L69.81,75.42c-1.278,1.278-3.724,0.904-5.462-0.835L58.05,68.287z"/>
<rect x="53.195" y="23.48" transform="matrix(0.7071 -0.7071 0.7071 0.7071 -14.9055 52.0492)" fill="#D8945D" width="4.363" height="41.074"/>
<rect x="45.336" y="25.575" transform="matrix(0.7071 -0.7071 0.7071 0.7071 -19.099 49.0828)" fill="#D8945D" width="8.726" height="44.043"/>
<rect x="43.938" y="32.733" transform="matrix(0.7071 -0.7071 0.7071 0.7071 -24.1599 48.2144)" fill="#D8945D" width="4.363" height="41.075"/>
<g>
	<polygon fill="#4D5B70" points="23.63,21.527 25.771,27.782 29.885,23.669 	"/>
	<polygon fill="#ECC986" points="42.395,27.952 29.885,23.669 25.771,27.782 30.055,40.293 31.598,38.75 35.239,39.307 
		34.126,32.023 41.409,33.137 40.853,29.494 	"/>
</g>
<path opacity="0.2" fill="#262324" enable-background="new    " d="M76.597,26.449c-2.869-2.869-19.356,8.966-29.501,19.11
	c-4.991,4.991-7.508,8.638-8.445,11.403c-3.129-0.304-6.536,0.848-8.778,3.091c-1.436,1.436-2.223,3.03-2.811,4.753
	c-1.131,3.312-2.218,7.459-6.672,10.413c3.32,3.32,16.305,4.252,22.602-2.045c0.666-0.666,1.234-1.435,1.699-2.27
	c1.099-1.972,1.585-4.303,1.373-6.501c2.766-0.931,6.419-3.449,11.423-8.452C67.632,45.806,79.467,29.319,76.597,26.449z"/>
<path fill="#ECC986" d="M47.097,42.591c-10.145,10.145-10.105,14.757-7.236,17.626s7.481,2.909,17.626-7.235
	c10.144-10.144,21.979-26.631,19.11-29.501C73.728,20.612,57.241,32.447,47.097,42.591z"/>
<g>
	<path fill="#BC5A59" d="M20.391,72.251c3.32,3.32,16.305,4.252,22.602-2.045c0.666-0.666,1.234-1.435,1.699-2.27
		c-9.852-0.294-15.059-3.574-17.629-6.098C25.933,65.15,24.844,69.297,20.391,72.251z"/>
	<path fill="#4D5B70" d="M43.781,56.298c-3.623-3.623-10.285-2.836-13.907,0.788c-1.436,1.436-2.223,3.03-2.811,4.753
		c2.57,2.523,7.615,10.304,17.629,6.098C46.755,64.235,46.738,59.255,43.781,56.298z"/>
</g>
<path fill="#BC5A59" d="M27.062,61.838c0,0,5.97-1.134,8.815,3.056c2.845,4.19,8.815,3.042,8.815,3.042l-7.725,4.268l-7.731-5.628
	L27.062,61.838z"/>
</svg>
