<?xml version="1.0" encoding="utf-8"?>
<!-- Generator: Adobe Illustrator 17.0.0, SVG Export Plug-In . SVG Version: 6.00 Build 0)  -->
<!DOCTYPE svg PUBLIC "-//W3C//DTD SVG 1.1//EN" "http://www.w3.org/Graphics/SVG/1.1/DTD/svg11.dtd">
<svg version="1.1" id="Capa_1" xmlns="http://www.w3.org/2000/svg" xmlns:xlink="http://www.w3.org/1999/xlink" x="0px" y="0px"
	 width="100px" height="100px" viewBox="0 0 100 100" enable-background="new 0 0 100 100" xml:space="preserve">
<g>
	<circle fill="#85AAC7" cx="50" cy="50" r="45"/>
</g>
<g opacity="0.2">
	<path fill="#262324" d="M78.125,72.5c0,3.107-2.518,5.625-5.625,5.625h-45c-3.107,0-5.625-2.518-5.625-5.625V30.313
		c0-3.107,2.518-5.625,5.625-5.625h45c3.107,0,5.625,2.518,5.625,5.625V72.5z"/>
</g>
<g>
	<path fill="#FFFFFF" d="M21.875,35.234v34.453c0,3.107,2.518,5.625,5.625,5.625h45c3.107,0,5.625-2.518,5.625-5.625V35.234H21.875z
		"/>
</g>
<g opacity="0.2">
	<path fill="#262324" d="M78.125,30.313c0-3.107-2.518-5.625-5.625-5.625h-45c-3.107,0-5.625,2.518-5.625,5.625v8.438h56.25V30.313z
		"/>
</g>
<g>
	<path fill="#DEDECE" d="M78.125,27.5c0-3.107-2.518-5.625-5.625-5.625h-45c-3.107,0-5.625,2.518-5.625,5.625v8.438h56.25V27.5z"/>
</g>
<g>
	<circle fill="#C79360" cx="37.344" cy="28.906" r="2.813"/>
</g>
<g>
	<circle fill="#8AB9A7" cx="45.781" cy="28.906" r="2.813"/>
</g>
<g>
	<circle fill="#A85A5A" cx="28.906" cy="28.906" r="2.813"/>
</g>
<g>
	<rect x="27.5" y="44.375" fill="#535B6F" width="16.875" height="25.313"/>
</g>
<g>
	<rect x="50" y="44.375" fill="#DEDECE" width="22.5" height="2.813"/>
</g>
<g>
	<rect x="50" y="50" fill="#DEDECE" width="22.5" height="2.813"/>
</g>
<g>
	<rect x="50" y="55.625" fill="#DEDECE" width="22.5" height="2.813"/>
</g>
<g>
	<rect x="50" y="61.25" fill="#DEDECE" width="22.5" height="2.813"/>
</g>
<g>
	<rect x="50" y="66.875" fill="#DEDECE" width="22.5" height="2.813"/>
</g>
<g>
</g>
<g>
</g>
<g>
</g>
<g>
</g>
<g>
</g>
<g>
</g>
</svg>
