<?xml version="1.0" encoding="utf-8"?>
<!-- Generator: Adobe Illustrator 17.0.0, SVG Export Plug-In . SVG Version: 6.00 Build 0)  -->
<!DOCTYPE svg PUBLIC "-//W3C//DTD SVG 1.1//EN" "http://www.w3.org/Graphics/SVG/1.1/DTD/svg11.dtd">
<svg version="1.1" id="Capa_1" xmlns="http://www.w3.org/2000/svg" xmlns:xlink="http://www.w3.org/1999/xlink" x="0px" y="0px"
	 width="212px" height="60px" viewBox="0 0 212 60" enable-background="new 0 0 212 60" xml:space="preserve">
<g>
	<path fill="#969696" d="M1.524,44.667V15.335h9.485c2.895,0,4.977,0.648,6.247,1.943c1.269,1.295,1.904,3.416,1.904,6.361
		c0,2.895-0.676,5.051-2.028,6.466c-1.353,1.417-3.419,2.123-6.199,2.123H6.952v12.438L1.524,44.667L1.524,44.667z M6.799,28.172
		h2.285c1.701,0,2.895-0.334,3.581-1c0.686-0.667,1.029-1.806,1.029-3.419c0-1.626-0.314-2.753-0.942-3.381s-1.826-0.942-3.59-0.942
		H6.799V28.172z"/>
	<path fill="#969696" d="M22.779,44.667V15.335h15.065v4.876h-9.637v6.78h8.97v4.647h-8.97v8.076h9.865v4.953H22.779L22.779,44.667z
		"/>
	<path fill="#969696" d="M42.092,44.667V15.335h9.79c2.959,0,5.089,0.6,6.389,1.801c1.302,1.199,1.953,3.159,1.953,5.876
		c0,1.904-0.35,3.406-1.047,4.505c-0.698,1.099-1.727,1.742-3.085,1.933c2.591,0.686,3.942,2.876,4.057,6.571
		c0,0.165,0,0.293,0,0.381l0.152,3.885c0.051,1.104,0.19,1.991,0.419,2.657s0.584,1.242,1.067,1.724h-6.476
		c-0.152-0.495-0.267-1.076-0.342-1.742c-0.077-0.667-0.126-1.61-0.152-2.828l-0.077-3.067v-0.783c0-1.701-0.362-2.869-1.086-3.504
		c-0.723-0.635-2.197-0.952-4.418-0.952H47.37v12.875H42.092L42.092,44.667z M47.367,27.734h3.142c1.587,0,2.689-0.317,3.304-0.952
		s0.924-1.771,0.924-3.409c0-1.459-0.337-2.483-1.009-3.067c-0.674-0.584-1.899-0.877-3.676-0.877h-2.686L47.367,27.734
		L47.367,27.734z"/>
	<path fill="#969696" d="M64.051,34.363h5.466v1.886c0,1.803,0.226,3.031,0.676,3.685c0.45,0.654,1.228,0.981,2.333,0.981
		c1.155,0,2.035-0.291,2.638-0.877c0.603-0.584,0.905-1.448,0.905-2.591c0-0.877-0.209-1.629-0.628-2.257s-1.327-1.438-2.724-2.429
		l-2.8-1.981c-2.413-1.675-3.946-3.06-4.6-4.152c-0.654-1.091-0.981-2.463-0.981-4.114c0-2.463,0.73-4.393,2.19-5.79
		c1.46-1.397,3.474-2.095,6.039-2.095c2.717,0,4.799,0.743,6.247,2.228c1.447,1.485,2.171,3.618,2.171,6.399
		c0,0.28-0.003,0.495-0.01,0.648c-0.007,0.152-0.016,0.286-0.028,0.401h-5.18v-0.78c0-1.587-0.26-2.724-0.78-3.409
		c-0.52-0.686-1.378-1.029-2.571-1.029c-0.877,0-1.565,0.257-2.066,0.772s-0.752,1.228-0.752,2.143c0,1.232,1.124,2.596,3.371,4.094
		c0.026,0.013,0.044,0.026,0.057,0.038l3.01,2.038c2.146,1.423,3.6,2.765,4.361,4.027c0.762,1.263,1.143,2.873,1.143,4.828
		c0,2.666-0.762,4.724-2.285,6.17c-1.523,1.447-3.702,2.171-6.533,2.171c-2.946,0-5.14-0.762-6.58-2.285
		c-1.441-1.523-2.162-3.847-2.162-6.971c0-0.33,0.026-0.877,0.077-1.639L64.051,34.363L64.051,34.363z"/>
	<path fill="#969696" d="M85.383,30.001c0-3.111,0.146-5.596,0.438-7.457c0.291-1.86,0.749-3.26,1.37-4.199
		c0.85-1.333,1.865-2.285,3.044-2.856c1.18-0.571,2.733-0.857,4.661-0.857c1.927,0,3.482,0.286,4.661,0.857s2.2,1.523,3.063,2.856
		c0.621,0.965,1.074,2.375,1.36,4.228c0.286,1.855,0.428,4.33,0.428,7.428c0,3.085-0.146,5.558-0.438,7.418
		c-0.291,1.86-0.742,3.273-1.351,4.238c-0.863,1.333-1.884,2.285-3.063,2.856c-1.18,0.571-2.734,0.857-4.661,0.857
		c-1.928,0-3.482-0.286-4.661-0.857s-2.194-1.523-3.044-2.856c-0.622-0.939-1.079-2.339-1.37-4.199
		C85.528,35.597,85.383,33.112,85.383,30.001z M90.963,30.001c0,4.825,0.281,7.863,0.846,9.114c0.564,1.251,1.606,1.876,3.125,1.876
		c1.495,0,2.517-0.612,3.068-1.837c0.551-1.225,0.827-4.276,0.827-9.152s-0.279-7.935-0.836-9.18s-1.59-1.866-3.097-1.866
		c-1.508,0-2.54,0.622-3.097,1.866C91.241,22.066,90.963,25.125,90.963,30.001z"/>
	<path fill="#969696" d="M113.475,44.667l-6.59-29.33h5.846l4.361,23.407l3.942-23.407h5.771l-6.152,29.33H113.475L113.475,44.667z"
		/>
	<path fill="#969696" d="M130.198,15.335h5.466v19.769c0,2.26,0.276,3.793,0.829,4.6s1.533,1.209,2.943,1.209
		c1.397,0,2.365-0.406,2.905-1.219s0.81-2.368,0.81-4.667V15.335h5.39V35.58c0,1.968-0.111,3.406-0.334,4.315
		c-0.222,0.908-0.594,1.704-1.114,2.39c-0.787,1.029-1.829,1.801-3.124,2.314c-1.295,0.514-2.832,0.772-4.609,0.772
		c-3.352,0-5.717-0.726-7.094-2.18c-1.378-1.454-2.066-3.99-2.066-7.609L130.198,15.335L130.198,15.335z"/>
	<path fill="#969696" d="M152.939,34.363h5.466v1.886c0,1.803,0.226,3.031,0.676,3.685c0.45,0.654,1.228,0.981,2.333,0.981
		c1.155,0,2.035-0.291,2.638-0.877c0.603-0.584,0.905-1.448,0.905-2.591c0-0.877-0.209-1.629-0.628-2.257s-1.327-1.438-2.724-2.429
		l-2.8-1.981c-2.413-1.675-3.946-3.06-4.6-4.152c-0.654-1.091-0.981-2.463-0.981-4.114c0-2.463,0.73-4.393,2.19-5.79
		c1.459-1.397,3.473-2.095,6.038-2.095c2.717,0,4.799,0.743,6.247,2.228c1.447,1.485,2.171,3.618,2.171,6.399
		c0,0.28-0.003,0.495-0.01,0.648c-0.007,0.152-0.016,0.286-0.028,0.401h-5.18v-0.78c0-1.587-0.26-2.724-0.78-3.409
		c-0.522-0.686-1.378-1.029-2.571-1.029c-0.877,0-1.565,0.257-2.066,0.772c-0.502,0.514-0.752,1.228-0.752,2.143
		c0,1.232,1.124,2.596,3.371,4.094c0.026,0.013,0.044,0.026,0.057,0.038l3.01,2.038c2.146,1.423,3.6,2.765,4.361,4.027
		c0.762,1.263,1.143,2.873,1.143,4.828c0,2.666-0.762,4.724-2.285,6.17c-1.523,1.448-3.702,2.171-6.533,2.171
		c-2.946,0-5.14-0.762-6.58-2.285c-1.441-1.523-2.162-3.847-2.162-6.971c0-0.33,0.026-0.877,0.077-1.639L152.939,34.363
		L152.939,34.363z"/>
	<path fill="#969696" d="M174.861,44.667V15.335h15.065v4.876h-9.637v6.78h8.97v4.647h-8.97v8.076h9.865v4.953H174.861
		L174.861,44.667z"/>
	<path fill="#969696" d="M193.621,34.363h5.466v1.886c0,1.803,0.226,3.031,0.676,3.685c0.451,0.654,1.228,0.981,2.333,0.981
		c1.155,0,2.035-0.291,2.638-0.877c0.603-0.584,0.905-1.448,0.905-2.591c0-0.877-0.209-1.629-0.628-2.257s-1.327-1.438-2.724-2.429
		l-2.8-1.981c-2.413-1.675-3.946-3.06-4.6-4.152c-0.654-1.091-0.981-2.463-0.981-4.114c0-2.463,0.73-4.393,2.19-5.79
		c1.459-1.397,3.473-2.095,6.038-2.095c2.717,0,4.799,0.743,6.247,2.228c1.447,1.485,2.171,3.618,2.171,6.399
		c0,0.28-0.003,0.495-0.01,0.648c-0.007,0.152-0.016,0.286-0.028,0.401h-5.18v-0.78c0-1.587-0.26-2.724-0.78-3.409
		c-0.522-0.686-1.378-1.029-2.571-1.029c-0.877,0-1.565,0.257-2.066,0.772s-0.752,1.228-0.752,2.143
		c0,1.232,1.124,2.596,3.371,4.094c0.026,0.013,0.044,0.026,0.057,0.038l3.01,2.038c2.146,1.423,3.6,2.765,4.361,4.027
		c0.762,1.263,1.143,2.873,1.143,4.828c0,2.666-0.762,4.724-2.285,6.17c-1.523,1.447-3.702,2.171-6.533,2.171
		c-2.946,0-5.14-0.762-6.58-2.285c-1.441-1.523-2.162-3.847-2.162-6.971c0-0.33,0.026-0.877,0.077-1.639L193.621,34.363
		L193.621,34.363z"/>
</g>
</svg>
