<?xml version="1.0" encoding="utf-8"?>
<!-- Generator: Adobe Illustrator 17.0.0, SVG Export Plug-In . SVG Version: 6.00 Build 0)  -->
<!DOCTYPE svg PUBLIC "-//W3C//DTD SVG 1.1//EN" "http://www.w3.org/Graphics/SVG/1.1/DTD/svg11.dtd">
<svg version="1.1" id="Capa_1" xmlns="http://www.w3.org/2000/svg" xmlns:xlink="http://www.w3.org/1999/xlink" x="0px" y="0px"
	 width="212px" height="60px" viewBox="0 0 212 60" enable-background="new 0 0 212 60" xml:space="preserve">
<g>
	<g>
		<g>
			<g>
				<g>
					<path fill="#969696" d="M52.109,35.024c1.303,0,2.512,0.152,3.627,0.452c1.117,0.301,2.033,0.731,2.752,1.289l-3.004,3.508
						c-0.567-0.407-1.216-0.722-1.947-0.944c-0.731-0.221-1.432-0.331-2.106-0.331c-0.345,0-0.696,0.058-1.049,0.173
						c-0.355,0.115-0.645,0.297-0.87,0.544c-0.226,0.248-0.339,0.553-0.339,0.917c0,0.691,0.509,1.178,1.528,1.462l1.845,0.545
						c1.073,0.301,2.003,0.792,2.792,1.474c0.787,0.683,1.182,1.608,1.182,2.777c0,1.656-0.481,3.074-1.443,4.253
						c-0.961,1.178-2.205,2.057-3.733,2.638c-1.529,0.58-3.103,0.87-4.725,0.87c-1.311,0-2.5-0.146-3.568-0.439
						c-1.067-0.292-2.085-0.717-3.049-1.275l2.537-3.813c0.647,0.425,1.418,0.786,2.313,1.083c0.894,0.297,1.789,0.446,2.684,0.446
						c0.478,0,0.954-0.067,1.428-0.199c0.473-0.132,0.864-0.352,1.17-0.658c0.306-0.305,0.459-0.711,0.459-1.216
						c0-0.32-0.133-0.587-0.4-0.804c-0.266-0.217-0.668-0.405-1.21-0.565l-2.1-0.651c-1.107-0.353-1.981-0.921-2.624-1.701
						c-0.644-0.78-0.963-1.679-0.963-2.697c0-1.098,0.258-2.102,0.777-3.01c0.519-0.908,1.196-1.662,2.033-2.26
						c0.837-0.598,1.786-1.058,2.844-1.381C50.011,35.186,51.063,35.024,52.109,35.024 M52.109,33.198
						c-1.221,0-2.461,0.19-3.689,0.565c-1.243,0.38-2.377,0.931-3.371,1.642c-1.048,0.749-1.909,1.704-2.557,2.84
						c-0.675,1.181-1.017,2.499-1.017,3.916c0,1.451,0.465,2.75,1.381,3.86c0.866,1.051,2.035,1.818,3.477,2.278l1.619,0.502
						c-0.137,0.017-0.274,0.026-0.412,0.026c-0.696,0-1.405-0.119-2.108-0.352c-0.739-0.245-1.373-0.54-1.888-0.876l-1.516-0.993
						l-1.004,1.509l-2.537,3.813l-1.076,1.617l1.681,0.974c1.093,0.634,2.265,1.124,3.483,1.457
						c1.218,0.334,2.581,0.504,4.049,0.504c1.834,0,3.642-0.332,5.372-0.989c1.823-0.692,3.337-1.766,4.5-3.19
						c1.231-1.508,1.854-3.327,1.854-5.407c0-1.692-0.626-3.13-1.812-4.158c-0.144-0.125-0.293-0.245-0.446-0.36l0.782-0.913
						l3.004-3.508l1.245-1.454l-1.512-1.175c-0.908-0.706-2.051-1.247-3.396-1.611C54.943,33.371,53.562,33.198,52.109,33.198
						L52.109,33.198z"/>
				</g>
			</g>
			<g>
				<g>
					<path fill="#969696" d="M66.114,39.901c0.781,0,1.485,0.075,2.112,0.226c0.63,0.152,1.183,0.383,1.662,0.698
						c0.478,0.315,0.853,0.729,1.124,1.243c0.269,0.515,0.404,1.126,0.404,1.834c0,0.673-0.15,1.302-0.451,1.887
						c-0.302,0.584-0.752,1.112-1.356,1.581c-0.603,0.469-1.34,0.836-2.212,1.102c-0.872,0.266-1.872,0.399-2.996,0.399
						c-0.824,0-1.378-0.036-1.662-0.107c-0.054,0.275-0.079,0.558-0.079,0.851c0,0.664,0.141,1.12,0.425,1.369
						c0.283,0.248,0.792,0.372,1.527,0.372c0.584,0,1.24-0.13,1.967-0.392c0.727-0.261,1.386-0.596,1.98-1.004l0.93,2.976
						c-2.073,1.161-4,1.741-5.781,1.741c-0.992,0-1.858-0.104-2.597-0.312c-0.74-0.208-1.348-0.519-1.827-0.938
						c-0.479-0.415-0.835-0.954-1.07-1.614c-0.235-0.66-0.352-1.429-0.352-2.305c0-1.276,0.187-2.5,0.564-3.674
						c0.377-1.174,0.922-2.207,1.635-3.097c0.713-0.89,1.589-1.586,2.624-2.086C63.722,40.152,64.865,39.901,66.114,39.901
						 M64.48,45.749c0.584,0,1.103-0.142,1.555-0.425c0.452-0.284,0.678-0.66,0.678-1.13c0-0.319-0.093-0.562-0.279-0.731
						c-0.185-0.168-0.447-0.252-0.784-0.252c-1.098,0-1.815,0.802-2.152,2.405C63.718,45.703,64.047,45.749,64.48,45.749
						 M66.114,38.075c-1.52,0-2.941,0.314-4.222,0.932c-1.28,0.619-2.375,1.49-3.255,2.589c-0.849,1.059-1.506,2.298-1.949,3.68
						c-0.432,1.347-0.652,2.771-0.652,4.233c0,1.081,0.154,2.062,0.457,2.917c0.341,0.96,0.878,1.76,1.594,2.381
						c0.675,0.59,1.527,1.034,2.527,1.316c0.897,0.253,1.937,0.381,3.093,0.381c2.089,0,4.335-0.664,6.673-1.974l1.292-0.724
						l-0.442-1.414l-0.93-2.976l-0.077-0.246c0.175-0.114,0.344-0.234,0.505-0.36c0.808-0.629,1.432-1.364,1.856-2.185
						c0.435-0.845,0.655-1.76,0.655-2.725c0-1.003-0.206-1.905-0.613-2.681c-0.417-0.792-1.002-1.437-1.737-1.921
						c-0.655-0.43-1.408-0.748-2.24-0.948C67.889,38.168,67.034,38.075,66.114,38.075L66.114,38.075z"/>
				</g>
			</g>
			<g>
				<g>
					<path fill="#969696" d="M81.781,39.875c0.532,0,1.095,0.132,1.688,0.398l-1.901,3.84c-0.424-0.257-0.858-0.385-1.302-0.385
						c-0.399,0-0.741,0.107-1.029,0.32c-0.289,0.213-0.591,0.554-0.911,1.023l-1.979,9.249h-4.744l1.832-8.544
						c0.363-1.701,0.545-2.928,0.545-3.681c0-0.496-0.048-0.957-0.145-1.381l4.224-0.784c0.151,0.497,0.24,1.028,0.267,1.595
						c0.407-0.452,0.915-0.839,1.521-1.163C80.455,40.036,81.1,39.875,81.781,39.875 M79.333,37.834l-1.606,0.299l-4.224,0.784
						l-1.872,0.347l0.425,1.855c0.066,0.289,0.1,0.616,0.1,0.974c0,0.428-0.088,1.348-0.505,3.3l-1.832,8.543l-0.474,2.209h2.259
						h4.744h1.476l0.309-1.443l1.899-8.872c0.114-0.146,0.195-0.229,0.244-0.274c0.088,0.003,0.191,0.025,0.347,0.12l1.701,1.031
						l0.882-1.782l1.901-3.84l0.843-1.702l-1.732-0.776c-0.826-0.37-1.645-0.558-2.434-0.558c-0.781,0-1.534,0.149-2.249,0.443
						L79.333,37.834L79.333,37.834z"/>
				</g>
			</g>
			<g>
				<g>
					<path fill="#969696" d="M87.31,40.087l0.359,4.186c0.071,0.736,0.123,2.087,0.159,4.054h0.054
						c0.425-1.32,1.04-2.768,1.847-4.346l1.86-3.707h4.89L88.4,54.319h-3.642l-2.26-13.766L87.31,40.087 M88.972,38.092
						l-1.838,0.178l-4.811,0.466l-1.942,0.188l0.316,1.926l2.26,13.766l0.251,1.53h1.55h3.642h1.056l0.527-0.916l8.078-14.046
						l1.574-2.736h-3.156h-4.89h-1.127l-0.505,1.007l-0.741,1.477l-0.086-1.001L88.972,38.092L88.972,38.092z"/>
				</g>
			</g>
			<g>
				<g>
					<path fill="#969696" d="M100.505,34.04c0.478,0,0.926,0.121,1.342,0.36c0.416,0.239,0.743,0.567,0.977,0.983
						c0.236,0.416,0.352,0.86,0.352,1.328c0,0.744-0.27,1.376-0.811,1.894s-1.186,0.777-1.939,0.777
						c-0.478,0-0.927-0.12-1.342-0.359c-0.417-0.239-0.746-0.564-0.99-0.977c-0.244-0.412-0.366-0.857-0.366-1.336
						c0-0.735,0.272-1.364,0.817-1.887C99.09,34.302,99.744,34.04,100.505,34.04 M102.193,40.061l-3.044,14.258h-4.743l2.949-13.82
						L102.193,40.061 M100.505,32.214c-1.229,0-2.344,0.447-3.225,1.294c-0.902,0.866-1.379,1.973-1.379,3.204
						c0,0.722,0.166,1.407,0.496,2.041l-0.547,0.049l-0.281,1.316l-2.949,13.82l-0.471,2.207h2.257h4.744h1.477l0.309-1.444
						l3.043-14.258l0.265-1.238c0.499-0.728,0.76-1.574,0.76-2.492c0-0.786-0.198-1.535-0.588-2.226
						c-0.394-0.702-0.953-1.265-1.658-1.67C102.061,32.417,101.304,32.214,100.505,32.214L100.505,32.214z"/>
				</g>
			</g>
			<g>
				<g>
					<path fill="#969696" d="M110.75,39.927c0.966,0,1.767,0.131,2.405,0.392c0.637,0.261,1.248,0.684,1.833,1.269l-2.777,2.857
						c-0.195-0.292-0.461-0.539-0.797-0.738c-0.337-0.2-0.66-0.299-0.971-0.299c-0.381,0-0.721,0.115-1.023,0.345
						c-0.302,0.23-0.575,0.626-0.823,1.189c-0.249,0.562-0.466,1.291-0.653,2.186c-0.257,1.241-0.383,2.104-0.383,2.591
						c0,0.497,0.094,0.859,0.285,1.09c0.19,0.23,0.493,0.345,0.91,0.345c1.009,0,1.954-0.417,2.831-1.25l1.421,2.777
						c-1.62,1.328-3.445,1.993-5.474,1.993c-1.621,0-2.875-0.419-3.761-1.255c-0.886-0.837-1.329-2.062-1.329-3.675
						c0-0.761,0.094-1.532,0.279-2.312c0.247-1.17,0.61-2.223,1.089-3.163c0.479-0.938,1.063-1.737,1.755-2.391
						c0.69-0.656,1.471-1.145,2.338-1.469C108.775,40.09,109.723,39.927,110.75,39.927 M110.75,38.101c-1.24,0-2.411,0.202-3.48,0.6
						c-1.097,0.409-2.093,1.034-2.959,1.856c-0.834,0.789-1.549,1.76-2.124,2.885c-0.547,1.073-0.966,2.282-1.245,3.594
						c-0.215,0.911-0.324,1.823-0.324,2.712c0,2.126,0.639,3.809,1.901,5.001c1.233,1.165,2.92,1.755,5.015,1.755
						c2.453,0,4.685-0.81,6.632-2.407l1.138-0.933l-0.67-1.31l-1.421-2.777l-1.019-1.993l1.327-1.365l2.777-2.857l1.255-1.292
						l-1.275-1.273c-0.754-0.753-1.572-1.314-2.431-1.666C112.98,38.275,111.966,38.101,110.75,38.101L110.75,38.101z
						 M109.433,49.194c0.045-0.345,0.132-0.88,0.3-1.694c0.161-0.769,0.341-1.381,0.534-1.817c0.09-0.205,0.164-0.332,0.214-0.406
						c0.001,0,0.002,0.001,0.003,0.002c0.1,0.058,0.168,0.118,0.21,0.182l1.136,1.699l-1.499,1.423
						C110.028,48.87,109.731,49.073,109.433,49.194L109.433,49.194z"/>
				</g>
			</g>
			<g>
				<g>
					<path fill="#969696" d="M122.259,39.901c0.779,0,1.483,0.075,2.112,0.226c0.629,0.152,1.183,0.383,1.662,0.698
						c0.478,0.315,0.854,0.729,1.122,1.243c0.271,0.515,0.407,1.126,0.407,1.834c0,0.673-0.152,1.302-0.453,1.887
						c-0.301,0.584-0.752,1.112-1.356,1.581c-0.603,0.469-1.339,0.836-2.213,1.102c-0.872,0.266-1.872,0.399-2.996,0.399
						c-0.824,0-1.377-0.036-1.661-0.107c-0.055,0.275-0.079,0.558-0.079,0.851c0,0.664,0.141,1.12,0.425,1.369
						c0.284,0.248,0.792,0.372,1.528,0.372c0.586,0,1.24-0.13,1.967-0.392c0.726-0.261,1.386-0.596,1.979-1.004l0.931,2.976
						c-2.072,1.161-4.001,1.741-5.782,1.741c-0.991,0-1.858-0.104-2.597-0.312c-0.74-0.208-1.348-0.519-1.827-0.938
						c-0.479-0.415-0.836-0.954-1.07-1.614c-0.236-0.66-0.353-1.429-0.353-2.305c0-1.276,0.189-2.5,0.566-3.674
						c0.375-1.174,0.921-2.207,1.633-3.097c0.713-0.89,1.588-1.586,2.624-2.086C119.867,40.152,121.01,39.901,122.259,39.901
						 M120.624,45.749c0.583,0,1.102-0.142,1.555-0.425c0.451-0.284,0.676-0.66,0.676-1.13c0-0.319-0.092-0.562-0.278-0.731
						c-0.187-0.168-0.448-0.252-0.784-0.252c-1.098,0-1.815,0.802-2.153,2.405C119.862,45.703,120.19,45.749,120.624,45.749
						 M122.259,38.075c-1.519,0-2.941,0.313-4.223,0.932c-1.279,0.618-2.375,1.489-3.256,2.589
						c-0.853,1.065-1.507,2.304-1.947,3.683c-0.433,1.348-0.653,2.772-0.653,4.23c0,1.081,0.154,2.062,0.459,2.918
						c0.337,0.953,0.873,1.756,1.593,2.38c0.677,0.59,1.528,1.034,2.528,1.316c0.895,0.253,1.936,0.381,3.091,0.381
						c2.09,0,4.336-0.664,6.674-1.974l1.293-0.724l-0.442-1.414l-0.931-2.976l-0.077-0.245c0.175-0.114,0.344-0.234,0.505-0.36
						c0.81-0.631,1.435-1.367,1.857-2.187c0.435-0.845,0.656-1.762,0.656-2.723c0-1.004-0.208-1.908-0.617-2.685
						c-0.41-0.784-0.994-1.431-1.734-1.917c-0.653-0.429-1.405-0.747-2.238-0.947C124.031,38.168,123.177,38.075,122.259,38.075
						L122.259,38.075z"/>
				</g>
			</g>
			<g>
				<g>
					<path fill="#969696" d="M138.098,35.595c1.107,0,2.036,0.179,2.79,0.539c0.753,0.359,1.317,0.868,1.687,1.528
						c0.372,0.66,0.56,1.432,0.56,2.319c0,1.205-0.293,2.341-0.877,3.408c-0.584,1.068-1.343,2.033-2.272,2.897
						c-0.931,0.864-1.924,1.637-2.984,2.319c-1.059,0.682-2.164,1.324-3.315,1.926c0.602-0.106,1.365-0.159,2.285-0.159h5.475
						l-1.886,3.946h-12l0.73-3.428c1.02-0.752,1.839-1.367,2.461-1.84c0.619-0.475,1.29-1.017,2.013-1.628
						c0.721-0.611,1.375-1.204,1.958-1.78c0.443-0.443,0.835-0.844,1.176-1.202c0.341-0.359,0.653-0.729,0.93-1.109
						c0.279-0.381,0.519-0.804,0.719-1.269c0.199-0.465,0.299-0.915,0.299-1.348c0-0.372-0.122-0.673-0.364-0.904
						c-0.246-0.23-0.592-0.345-1.044-0.345c-0.523,0-1.057,0.132-1.602,0.399c-0.545,0.266-1.229,0.703-2.052,1.316l-2.498-2.777
						c0.805-0.567,1.476-1.005,2.014-1.316c0.536-0.31,1.089-0.579,1.661-0.804c0.572-0.226,1.191-0.397,1.86-0.511
						C136.488,35.653,137.246,35.595,138.098,35.595 M138.098,33.769c-0.95,0-1.821,0.068-2.589,0.199
						c-0.786,0.135-1.534,0.341-2.221,0.613c-0.648,0.256-1.289,0.566-1.905,0.922c-0.58,0.333-1.285,0.792-2.15,1.402l-1.683,1.184
						l1.376,1.53l2.498,2.777l1.112,1.236l1.335-0.992c0.908-0.674,1.46-0.992,1.763-1.139c0.068-0.034,0.135-0.063,0.201-0.089
						c-0.138,0.308-0.299,0.588-0.479,0.834c-0.231,0.317-0.492,0.628-0.782,0.932c-0.333,0.352-0.715,0.74-1.145,1.17
						c-0.536,0.529-1.16,1.097-1.847,1.678c-0.687,0.582-1.341,1.11-1.944,1.572c-0.611,0.466-1.422,1.074-2.433,1.82l-0.558,0.412
						l-0.144,0.677l-0.73,3.428l-0.47,2.207h2.256h11.999h1.151l0.497-1.038l1.886-3.946l1.249-2.614h-2.897h-1.274
						c0.36-0.297,0.711-0.603,1.055-0.922c1.072-0.995,1.957-2.125,2.632-3.359c0.73-1.334,1.102-2.776,1.102-4.285
						c0-1.2-0.268-2.282-0.795-3.216c-0.554-0.987-1.392-1.755-2.491-2.278C140.677,34.01,139.474,33.769,138.098,33.769
						L138.098,33.769z"/>
				</g>
			</g>
			<g>
				<g>
					<path fill="#969696" d="M155.053,36.114l-4.93,8.624c-0.594,1.055-1.156,1.799-1.687,2.232
						c0.053-0.017,0.259-0.026,0.624-0.026h2.046c0.177,0,0.292,0.009,0.345,0.026c0-0.123,0.009-0.235,0.027-0.331
						c0.32-1.328,0.665-2.508,1.036-3.535l0.877-2.391l4.291-0.731l-0.943,4.371c-0.248,1.134-0.474,2.007-0.677,2.618h1.621
						l-0.863,4.079h-0.984c-0.275,0-0.465-0.017-0.571-0.054c0,0.24-0.054,0.603-0.16,1.09l-0.824,3.841l-4.838,0.32l1.011-4.652
						c0.045-0.248,0.106-0.466,0.186-0.651c-0.142,0.071-0.435,0.106-0.877,0.106h-7.176l0.65-3.017l7.098-11.919H155.053
						 M158.201,34.288h-3.147h-4.717h-1.038l-0.531,0.892l-7.098,11.92l-0.153,0.257l-0.063,0.292l-0.65,3.017l-0.477,2.21h2.261
						h5.721l-0.648,2.983l-0.515,2.369l2.419-0.16l4.838-0.32l1.376-0.09l0.289-1.348l0.737-3.434h0.016h1.48l0.307-1.448
						l0.863-4.079l0.467-2.204h-1.501c0.029-0.13,0.059-0.264,0.089-0.401l0.944-4.377l0.569-2.639l-2.66,0.453l-1.554,0.265
						l0.814-1.425L158.201,34.288L158.201,34.288z"/>
				</g>
			</g>
			<g>
				<g>
					<path fill="#969696" d="M166.921,34.32c0,0.86-0.147,2.002-0.439,3.428l-0.438,2.087c-0.035,0.168-0.073,0.345-0.114,0.531
						c-0.039,0.186-0.09,0.39-0.152,0.612c0.904-0.699,2.064-1.05,3.482-1.05c1.063,0,1.914,0.197,2.551,0.591
						c0.637,0.394,0.956,1.092,0.956,2.093c0,0.399-0.053,0.873-0.158,1.422l-2.18,10.285h-4.73l1.953-9.221
						c0.089-0.425,0.133-0.726,0.133-0.904c0-0.213-0.061-0.362-0.179-0.446c-0.12-0.084-0.349-0.126-0.684-0.126
						c-0.267,0-0.586,0.096-0.958,0.286c-0.372,0.191-0.668,0.387-0.889,0.592l-2.1,9.82h-4.745l3.004-14.072
						c0.487-2.268,0.73-3.872,0.73-4.811v-0.306L166.921,34.32 M168.747,32.171l-2.121,0.347l-4.958,0.811l-1.531,0.25v1.552v0.306
						c0,0.552-0.12,1.769-0.69,4.428l-3.005,14.074l-0.471,2.208h2.257h4.745h1.477h1.247h4.73h1.479l0.307-1.447l2.18-10.285
						c0.135-0.704,0.197-1.282,0.197-1.801c0-2.082-0.991-3.131-1.821-3.646c-0.929-0.573-2.11-0.865-3.512-0.865
						c-0.341,0-0.674,0.017-0.996,0.05l0.006-0.028c0.322-1.576,0.477-2.818,0.477-3.804v-2.15
						C168.746,32.171,168.747,32.171,168.747,32.171z"/>
				</g>
			</g>
		</g>
		<g>
			<g>
				<path fill="#969696" d="M56.553,3.246c6.561,0,9.844,3.426,9.844,10.275c0,1.411-0.21,3.108-0.628,5.089
					c-0.418,1.98-1.202,4.02-2.353,6.117c-1.15,2.098-2.828,3.87-5.029,5.315c-2.205,1.444-4.959,2.167-8.266,2.167
					c-2.183,0-4.034-0.39-5.549-1.167c-1.516-0.778-2.657-1.883-3.422-3.314c-0.765-1.431-1.147-3.153-1.147-5.167
					c0-1.883,0.28-3.914,0.844-6.099c0.561-2.182,1.483-4.287,2.764-6.313c1.282-2.026,3.001-3.683,5.157-4.971
					C50.925,3.891,53.52,3.246,56.553,3.246 M51.454,26.542c1.216,0,2.275-0.514,3.176-1.54c0.902-1.025,1.637-2.324,2.207-3.892
					c0.569-1.569,0.978-3.101,1.226-4.599c0.247-1.496,0.372-2.8,0.372-3.911c0-1.452-0.255-2.435-0.763-2.952
					c-0.509-0.517-1.354-0.775-2.53-0.775c-1.569,0-2.892,0.821-3.972,2.462c-1.078,1.641-1.87,3.539-2.372,5.696
					c-0.503,2.156-0.756,3.961-0.756,5.411c0,1.582,0.255,2.66,0.765,3.236C49.318,26.254,50.2,26.542,51.454,26.542 M56.553,1.42
					c-3.353,0-6.287,0.737-8.721,2.189c-2.395,1.431-4.334,3.302-5.765,5.563c-1.378,2.181-2.384,4.48-2.989,6.835
					c-0.598,2.319-0.901,4.524-0.901,6.553c0,2.308,0.458,4.336,1.362,6.028c0.939,1.758,2.352,3.13,4.199,4.078
					c1.771,0.908,3.919,1.368,6.383,1.368c3.652,0,6.77-0.829,9.267-2.465c2.445-1.604,4.339-3.611,5.63-5.964
					c1.23-2.243,2.084-4.47,2.538-6.618c0.443-2.097,0.667-3.936,0.667-5.467C68.223,5.717,64.079,1.42,56.553,1.42L56.553,1.42z
					 M50.172,24.467c0.001,0-0.304-0.408-0.304-2.023c0-1.304,0.238-2.985,0.708-4.997c0.451-1.936,1.164-3.654,2.12-5.108
					c0.966-1.469,1.858-1.639,2.445-1.639c0.821,0,1.166,0.167,1.23,0.231l0,0c-0.004,0,0.238,0.365,0.238,1.67
					c0,1.003-0.117,2.219-0.348,3.613c-0.227,1.374-0.612,2.813-1.141,4.275c-0.488,1.348-1.115,2.461-1.861,3.308
					c-0.725,0.824-1.378,0.92-1.805,0.92C50.585,24.716,50.234,24.536,50.172,24.467L50.172,24.467L50.172,24.467z"/>
			</g>
		</g>
		<g>
			<g>
				<path fill="#969696" d="M82.846,10.482c1.936,0,3.294,0.37,4.078,1.107c0.784,0.74,1.178,1.736,1.178,2.991
					c0,0.509-0.066,1.125-0.196,1.842l-3.256,15.295h-6.98l2.803-13.255c0.106-0.418,0.158-0.804,0.158-1.158
					c0-0.418-0.092-0.719-0.276-0.901c-0.184-0.184-0.477-0.275-0.883-0.275c-0.575,0-1.088,0.151-1.539,0.451
					c-0.451,0.301-0.905,0.798-1.362,1.49l-2.923,13.647h-6.998l2.784-13.059c0.483-2.419,0.726-4.144,0.726-5.178
					c0-0.456-0.06-1.071-0.176-1.842l6.196-1.158c0.209,0.876,0.327,1.621,0.352,2.235c0.783-0.678,1.752-1.221,2.902-1.627
					C80.586,10.685,81.723,10.482,82.846,10.482 M77.554,8.368l-1.708,0.319L69.65,9.844l-1.733,0.324l0.263,1.744
					c0.129,0.855,0.156,1.326,0.156,1.57c0,0.623-0.12,1.965-0.69,4.82l-2.779,13.036l-0.47,2.207h2.256h6.999h1.476l0.31-1.443
					l2.847-13.291c0.129-0.177,0.243-0.314,0.341-0.419l-2.739,12.95l-0.466,2.204h2.252h6.981h1.478l0.308-1.446l3.256-15.294
					l0.005-0.026l0.005-0.026c0.152-0.835,0.226-1.545,0.226-2.169c0-1.747-0.605-3.24-1.751-4.319
					c-1.149-1.08-2.892-1.605-5.331-1.605c-1.325,0-2.676,0.239-4.017,0.711c-0.327,0.115-0.643,0.241-0.948,0.377L77.554,8.368
					L77.554,8.368z"/>
			</g>
		</g>
	</g>
	<g>
		<polygon fill="#969696" points="52.04,21.17 45.578,13.113 47.18,11.829 52.279,18.189 68.449,3.605 69.824,5.127 		"/>
	</g>
	<g>
		<path fill="#969696" d="M114.626,4.285l-2.037,5.819h-6.375l-4.609,21.584h-7.106l4.588-21.584h-6.375l1.23-5.819H114.626z"/>
		<path fill="#969696" d="M121.713,11.081l-4.399,20.606h-6.856l4.266-19.972L121.713,11.081z M123.134,6.243
			c0,1.074-0.392,1.989-1.171,2.736c-0.782,0.749-1.716,1.125-2.804,1.125c-0.692,0-1.339-0.173-1.941-0.519
			c-0.602-0.347-1.079-0.816-1.429-1.411c-0.352-0.595-0.53-1.241-0.53-1.931c0-1.064,0.395-1.973,1.181-2.727
			c0.788-0.756,1.731-1.134,2.834-1.134c0.692,0,1.338,0.173,1.94,0.52c0.602,0.341,1.071,0.819,1.41,1.42
			C122.963,4.922,123.134,5.565,123.134,6.243z"/>
		<path fill="#969696" d="M151.924,14.539c0,0.578-0.09,1.299-0.269,2.169l-3.188,14.98h-6.568l2.765-12.98
			c0.102-0.448,0.153-0.866,0.153-1.252c0-0.688-0.352-1.036-1.055-1.036c-0.537,0-1.002,0.142-1.392,0.424
			c-0.391,0.281-0.823,0.775-1.297,1.477l-2.824,13.366h-6.414l2.747-12.98c0.14-0.677,0.21-1.14,0.21-1.384
			c0-0.319-0.073-0.55-0.218-0.69c-0.151-0.142-0.406-0.213-0.779-0.213c-0.538,0-1.004,0.142-1.392,0.424
			c-0.392,0.281-0.817,0.775-1.276,1.477l-2.862,13.366h-6.665l2.726-12.79c0.473-2.367,0.71-4.057,0.71-5.07
			c0-0.448-0.057-1.05-0.172-1.804l6.07-1.134c0.141,0.587,0.23,1.306,0.268,2.152c1.652-1.434,3.618-2.152,5.898-2.152
			c2.06,0,3.411,0.741,4.052,2.229c0.794-0.717,1.712-1.268,2.755-1.653c1.043-0.384,2.124-0.576,3.236-0.576
			C150.329,10.89,151.924,12.107,151.924,14.539z"/>
		<path fill="#969696" d="M173.491,16.633c0,0.973-0.217,1.881-0.654,2.726c-0.435,0.847-1.088,1.608-1.958,2.287
			c-0.871,0.68-1.936,1.207-3.197,1.593c-1.263,0.384-2.705,0.575-4.331,0.575c-1.192,0-1.992-0.052-2.402-0.152
			c-0.076,0.395-0.113,0.806-0.113,1.228c0,0.961,0.204,1.621,0.614,1.979c0.409,0.359,1.145,0.537,2.208,0.537
			c0.845,0,1.792-0.187,2.843-0.567c1.052-0.378,2.004-0.861,2.862-1.452l1.345,4.302c-2.996,1.679-5.782,2.518-8.355,2.518
			c-1.434,0-2.687-0.153-3.756-0.452c-1.069-0.301-1.949-0.751-2.641-1.356c-0.691-0.599-1.205-1.378-1.545-2.33
			c-0.341-0.953-0.509-2.067-0.509-3.335c0-1.842,0.27-3.611,0.815-5.307c0.544-1.698,1.331-3.188,2.364-4.477
			c1.029-1.285,2.294-2.29,3.792-3.015c1.497-0.723,3.15-1.084,4.956-1.084c1.127,0,2.145,0.108,3.055,0.325
			c0.908,0.218,1.708,0.554,2.4,1.009c0.692,0.455,1.233,1.054,1.622,1.797C173.295,14.724,173.491,15.609,173.491,16.633z
			 M166.692,17.057c0-0.463-0.133-0.813-0.404-1.059c-0.268-0.242-0.645-0.362-1.131-0.362c-1.59,0-2.627,1.156-3.113,3.473
			c0.32,0.131,0.794,0.195,1.421,0.195c0.846,0,1.595-0.205,2.247-0.614C166.365,18.28,166.692,17.735,166.692,17.057z"/>
	</g>
</g>
<g>
</g>
<g>
</g>
<g>
</g>
<g>
</g>
<g>
</g>
<g>
</g>
</svg>
