<?xml version="1.0" encoding="utf-8"?>
<!-- Generator: Adobe Illustrator 17.0.0, SVG Export Plug-In . SVG Version: 6.00 Build 0)  -->
<!DOCTYPE svg PUBLIC "-//W3C//DTD SVG 1.1//EN" "http://www.w3.org/Graphics/SVG/1.1/DTD/svg11.dtd">
<svg version="1.1" id="Capa_1" xmlns="http://www.w3.org/2000/svg" xmlns:xlink="http://www.w3.org/1999/xlink" x="0px" y="0px"
	 width="212px" height="60px" viewBox="0 0 212 60" enable-background="new 0 0 212 60" xml:space="preserve">
<g>
	<path fill="#959595" d="M36.831,16.846c0,3.048-1.066,5.645-3.198,7.792c-2.132,2.148-4.724,3.221-7.775,3.221H11.962
		c-2.94,0-5.432-1.01-7.472-3.028s-3.061-4.507-3.061-7.462c0-3.047,1.029-5.64,3.087-7.778c2.059-2.139,4.615-3.208,7.666-3.208
		h14.309c2.886,0,5.331,1.023,7.335,3.07S36.831,13.965,36.831,16.846z M28.559,17.039c0-0.676-0.211-1.243-0.634-1.7
		c-0.423-0.456-0.964-0.686-1.626-0.686H12.182c-0.718,0-1.31,0.242-1.778,0.726C9.935,15.865,9.7,16.474,9.7,17.204
		c0,0.676,0.22,1.244,0.662,1.7s1.001,0.685,1.682,0.685H25.94c0.698,0,1.31-0.25,1.834-0.754
		C28.297,18.334,28.559,17.734,28.559,17.039z"/>
	<path fill="#959595" d="M64.346,28.026H47.142c-2.886,0-5.363-1.057-7.43-3.17c-2.067-2.113-3.101-4.613-3.101-7.499
		c0-3.051,1.029-5.648,3.087-7.79c2.059-2.141,4.613-3.212,7.664-3.212h16.984v8.271H47.362c-0.716,0-1.309,0.243-1.778,0.731
		c-0.469,0.488-0.702,1.099-0.702,1.833c0,0.68,0.22,1.25,0.662,1.709c0.442,0.46,1.001,0.689,1.682,0.689h17.121V28.026z"/>
	<path fill="#959595" d="M75.624,18.846v9.181h-8.217v-9.181h-3.032l-0.055-3.309h3.087V0.649h8.217v14.889h7.582v3.309H75.624z"/>
	<path fill="#959595" d="M118.827,16.846c0,3.048-1.066,5.645-3.199,7.792c-2.133,2.148-4.724,3.221-7.775,3.221H93.957
		c-2.94,0-5.43-1.01-7.47-3.028c-2.041-2.02-3.061-4.507-3.061-7.463c0-3.047,1.03-5.64,3.087-7.778
		c2.059-2.139,4.613-3.208,7.664-3.208h14.31c2.886,0,5.33,1.023,7.334,3.07C117.825,11.501,118.827,13.965,118.827,16.846z
		 M110.556,17.039c0-0.676-0.211-1.243-0.634-1.7c-0.423-0.456-0.965-0.686-1.627-0.686H94.178c-0.716,0-1.309,0.242-1.778,0.726
		c-0.468,0.483-0.702,1.092-0.702,1.823c0,0.676,0.22,1.244,0.662,1.7c0.442,0.456,1.001,0.685,1.682,0.685h13.896
		c0.698,0,1.309-0.25,1.833-0.754C110.294,18.334,110.556,17.734,110.556,17.039z"/>
	<path fill="#959595" d="M141.216,34.7l-18.859,0.055v-6.646l18.501-0.082V25.93l-1.962,1.434c-0.59,0.331-1.382,0.496-2.376,0.496
		h-6.718c-3.06,0-5.658-1.075-7.795-3.225s-3.206-4.751-3.206-7.802c0-2.886,1.001-5.353,3.005-7.403
		c2.004-2.05,4.448-3.074,7.335-3.074h7.692c2.96,0,5.486,1.073,7.582,3.219c2.094,2.146,3.152,4.734,3.17,7.761l0.083,10.815
		c0,0.495,0.019,1.046,0.055,1.651l0.083,1.073c0,1.118-0.331,2.027-0.993,2.725c-0.716,0.77-2.059,1.157-4.025,1.157
		C142.108,34.754,141.584,34.736,141.216,34.7z M139.314,17.19c0-0.698-0.234-1.3-0.703-1.805c-0.468-0.505-1.06-0.758-1.778-0.758
		h-7.499c-0.662,0-1.204,0.234-1.627,0.703s-0.633,1.034-0.633,1.696c0,0.735,0.252,1.346,0.757,1.833
		c0.506,0.488,1.126,0.731,1.861,0.731h7.28c0.662,0,1.217-0.234,1.667-0.702C139.087,18.417,139.314,17.853,139.314,17.19z"/>
	<path fill="#959595" d="M183.07,16.846c0,3.048-1.066,5.645-3.199,7.792s-4.724,3.221-7.775,3.221h-13.896
		c-2.94,0-5.43-1.01-7.47-3.028c-2.041-2.02-3.061-4.507-3.061-7.463c0-3.047,1.03-5.64,3.087-7.778
		c2.059-2.139,4.613-3.208,7.664-3.208h14.31c2.886,0,5.33,1.023,7.334,3.07C182.066,11.501,183.07,13.965,183.07,16.846z
		 M174.798,17.039c0-0.676-0.211-1.243-0.634-1.7c-0.423-0.456-0.965-0.686-1.627-0.686h-14.116c-0.716,0-1.309,0.242-1.778,0.726
		c-0.467,0.483-0.702,1.092-0.702,1.823c0,0.676,0.22,1.244,0.662,1.7c0.442,0.456,1.001,0.685,1.682,0.685h13.896
		c0.698,0,1.309-0.25,1.833-0.754C174.535,18.334,174.798,17.734,174.798,17.039z"/>
	<path fill="#959595" d="M208.268,28.026h-8.271v-11c0-0.643-0.217-1.204-0.652-1.682c-0.436-0.478-0.977-0.716-1.623-0.716h-4.08
		c-0.685,0-1.272,0.257-1.762,0.772c-0.491,0.515-0.735,1.112-0.735,1.792v10.833h-8.271V17.357c0.019-3.051,1.059-5.62,3.122-7.706
		c2.064-2.086,4.615-3.13,7.654-3.13h4.255c2.893,0,5.337,0.997,7.336,2.992c2,1.995,3.008,4.435,3.027,7.321L208.268,28.026
		L208.268,28.026z"/>
	<path fill="#959595" d="M20.14,48.836c-0.298,1.699-1.1,3.11-2.407,4.236c-1.308,1.128-2.815,1.692-4.526,1.692H1.521v-5.686
		h11.632c0.433,0,0.817-0.167,1.152-0.502H1.521l-0.056-1.542c-0.075-1.932,0.62-3.572,2.082-4.924
		c1.375-1.289,3.096-1.932,5.166-1.932h11.446v5.574H8.712c-0.521,0-0.948,0.204-1.283,0.613h12.728L20.14,48.836z"/>
	<path fill="#959595" d="M43.997,47.721c0,1.945-0.678,3.608-2.03,4.989c-1.352,1.382-3.004,2.071-4.953,2.071h-9.142
		c-0.608,0-1.204-0.088-1.788-0.26v4.831H20.14V47.367c0-1.982,0.688-3.658,2.063-5.026c1.375-1.368,3.054-2.054,5.035-2.054h9.365
		c2.056,0,3.803,0.725,5.24,2.175C43.279,43.912,43.997,45.665,43.997,47.721z M38.423,47.592c0-0.495-0.171-0.908-0.511-1.234
		c-0.341-0.329-0.758-0.493-1.254-0.493h-9.365c-0.459,0-0.836,0.155-1.134,0.465c-0.298,0.309-0.446,0.693-0.446,1.152
		c0,0.496,0.154,0.908,0.465,1.234c0.309,0.329,0.712,0.493,1.207,0.493h9.513c0.459,0,0.827-0.154,1.106-0.465
		C38.284,48.435,38.423,48.05,38.423,47.592z"/>
	<path fill="#959595" d="M67.91,47.248c0,2.054-0.719,3.805-2.156,5.251c-1.437,1.449-3.183,2.172-5.239,2.172H51.15
		c-1.982,0-3.66-0.682-5.035-2.041c-1.375-1.361-2.063-3.037-2.063-5.029c0-2.054,0.693-3.802,2.082-5.243
		c1.387-1.441,3.109-2.162,5.166-2.162h9.644c1.945,0,3.592,0.689,4.943,2.069C67.235,43.644,67.91,45.306,67.91,47.248z
		 M62.335,47.377c0-0.455-0.142-0.837-0.427-1.145c-0.285-0.308-0.65-0.462-1.096-0.462h-9.513c-0.483,0-0.883,0.163-1.198,0.491
		c-0.316,0.327-0.475,0.737-0.475,1.228c0,0.456,0.15,0.839,0.446,1.146c0.296,0.308,0.675,0.462,1.134,0.462h9.365
		c0.47,0,0.883-0.17,1.236-0.509C62.16,48.25,62.335,47.846,62.335,47.377z"/>
	<path fill="#959595" d="M79.3,46.867l-0.017,0.131c0-0.434-0.147-0.81-0.439-1.134c-0.289-0.322-0.652-0.483-1.086-0.483h-2.732
		c-0.457,0-0.852,0.174-1.18,0.521s-0.492,0.749-0.492,1.207v7.674H67.78V47.22c0.013-2.044,0.709-3.726,2.09-5.045
		c1.381-1.319,3.1-1.979,5.156-1.979h2.863c1.919,0,3.56,0.632,4.923,1.895c1.362,1.264,2.046,2.855,2.046,4.774H79.3V46.867z"/>
	<path fill="#959595" d="M92.586,48.596v6.187h-5.538v-6.187h-2.044l-0.036-2.231h2.08V36.331h5.538v10.034h5.11v2.231
		C97.695,48.596,92.586,48.596,92.586,48.596z"/>
	<path fill="#959595" d="M125.863,54.783h-11.594c-1.945,0-3.615-0.712-5.007-2.136c-1.392-1.424-2.09-3.109-2.09-5.055
		c0-2.056,0.693-3.806,2.082-5.248c1.387-1.443,3.109-2.165,5.166-2.165h11.445v5.574h-11.445c-0.483,0-0.882,0.164-1.198,0.492
		c-0.316,0.329-0.475,0.741-0.475,1.236c0,0.457,0.15,0.843,0.447,1.152c0.298,0.309,0.675,0.465,1.134,0.465h11.538v5.685H125.863z
		"/>
	<path fill="#959595" d="M144.591,54.783h-11.594c-1.945,0-3.615-0.712-5.007-2.136c-1.392-1.424-2.09-3.109-2.09-5.055
		c0-2.056,0.693-3.806,2.082-5.248c1.387-1.443,3.109-2.165,5.166-2.165h11.445v5.574h-11.445c-0.519,0-0.948,0.204-1.283,0.613
		h12.728v2.231h-12.689c0.296,0.334,0.682,0.502,1.152,0.502h11.538v5.684H144.591z"/>
	<path fill="#959595" d="M161.761,54.783h-5.574V47.37c0-0.434-0.147-0.811-0.439-1.134c-0.293-0.322-0.659-0.483-1.095-0.483
		h-2.748c-0.462,0-0.859,0.173-1.188,0.519c-0.329,0.347-0.495,0.749-0.495,1.208v7.302h-5.574v-7.191
		c0.012-2.056,0.714-3.788,2.103-5.193c1.391-1.405,3.11-2.109,5.158-2.109h2.868c1.948,0,3.596,0.673,4.944,2.015
		c1.348,1.345,2.027,2.989,2.038,4.934C161.761,47.239,161.761,54.783,161.761,54.783z"/>
	<path fill="#959595" d="M169.454,48.596v6.187h-5.538v-6.187h-2.044l-0.036-2.231h2.08V36.331h5.538v10.034h5.11v2.231
		C174.564,48.596,169.454,48.596,169.454,48.596z"/>
	<path fill="#959595" d="M193.44,54.783h-11.594c-1.945,0-3.615-0.712-5.007-2.136c-1.392-1.424-2.09-3.109-2.09-5.055
		c0-2.056,0.693-3.806,2.082-5.248c1.387-1.443,3.109-2.165,5.166-2.165h11.445v5.574h-11.445c-0.519,0-0.948,0.204-1.283,0.613
		h12.728v2.231h-12.689c0.296,0.334,0.682,0.502,1.152,0.502h11.538v5.684H193.44z"/>
	<path fill="#959595" d="M205.016,46.867l-0.019,0.131c0-0.434-0.147-0.81-0.437-1.134c-0.291-0.322-0.653-0.483-1.088-0.483h-2.73
		c-0.457,0-0.852,0.174-1.18,0.521c-0.328,0.347-0.492,0.749-0.492,1.207v7.674h-5.574V47.22c0.011-2.044,0.708-3.726,2.09-5.045
		c1.381-1.319,3.099-1.979,5.156-1.979h2.861c1.92,0,3.562,0.632,4.924,1.895c1.362,1.264,2.044,2.855,2.044,4.774h-5.556V46.867z"
		/>
</g>
<g>
</g>
<g>
</g>
<g>
</g>
<g>
</g>
<g>
</g>
<g>
</g>
</svg>
