<?xml version="1.0" encoding="utf-8"?>
<!-- Generator: Adobe Illustrator 17.0.0, SVG Export Plug-In . SVG Version: 6.00 Build 0)  -->
<!DOCTYPE svg PUBLIC "-//W3C//DTD SVG 1.1//EN" "http://www.w3.org/Graphics/SVG/1.1/DTD/svg11.dtd">
<svg version="1.1" id="Capa_1" xmlns="http://www.w3.org/2000/svg" xmlns:xlink="http://www.w3.org/1999/xlink" x="0px" y="0px"
	 width="100px" height="100px" viewBox="0 0 100 100" enable-background="new 0 0 100 100" xml:space="preserve">
<g>
	<circle fill="#4D5B70" cx="50" cy="50" r="45"/>
</g>
<g opacity="0.2">
	<path fill="#262324" d="M50.135,60.803c-2.188,2.188-8.56,17.635-8.56,17.635c-0.935,1.699,0.464,2.932,3.647,1.317l11.435-6.237
		c6.16-3.424,7.352-4.319,7.271-11.29l-1.146-8.231c-0.393-2.82-2.504-3.337-4.691-1.149L50.135,60.803z"/>
</g>
<g opacity="0.2">
	<path fill="#262324" d="M43.07,53.738c-2.188,2.188-17.635,8.56-17.635,8.56c-1.699,0.935-2.932-0.464-1.317-3.647l6.237-11.435
		c3.424-6.16,4.319-7.352,11.29-7.271l8.231,1.146c2.82,0.393,3.337,2.504,1.149,4.691L43.07,53.738z"/>
</g>
<g>
	<path fill="#BC5A59" d="M50.135,57.991c-2.188,2.188-8.56,17.635-8.56,17.635c-0.935,1.699,0.464,2.932,3.647,1.317l11.435-6.237
		c6.16-3.424,7.352-4.319,7.271-11.29l-1.146-8.231c-0.393-2.82-2.504-3.337-4.691-1.149L50.135,57.991z"/>
</g>
<g>
	<path fill="#BC5A59" d="M43.07,50.925c-2.188,2.188-17.635,8.56-17.635,8.56c-1.699,0.935-2.932-0.464-1.317-3.647l6.237-11.435
		c3.424-6.16,4.319-7.352,11.29-7.271l8.231,1.146c2.82,0.393,3.337,2.504,1.149,4.691L43.07,50.925z"/>
</g>
<g opacity="0.2">
	<path fill="#262324" d="M34.878,60.61c7.136-7.136,13.13-4.958,13.13-4.958s2.178,5.995-4.958,13.13
		C35.915,75.918,24.36,81.1,23.46,80.2C22.587,79.328,27.742,67.745,34.878,60.61z"/>
</g>
<g>
	<path fill="#D8945D" d="M34.878,57.797c7.136-7.136,13.13-4.958,13.13-4.958s2.178,5.995-4.958,13.13
		C35.915,73.105,24.36,78.288,23.46,77.388C22.587,76.515,27.742,64.933,34.878,57.797z"/>
</g>
<g>
	<path fill="#ECC986" d="M40.844,51.831c7.136-7.136,13.13-4.958,13.13-4.958s2.178,5.995-4.958,13.13S30.326,72.322,29.426,71.422
		C28.553,70.549,33.708,58.967,40.844,51.831z"/>
</g>
<g opacity="0.2">
	<path fill="#262324" d="M66.36,57.141c-10.983,10.983-27.819,7.978-27.819,7.978S35.536,48.283,46.519,37.3
		s27.623-12.152,29.808-9.967C78.446,29.452,77.344,46.158,66.36,57.141z"/>
</g>
<g>
	<path fill="#DFDECF" d="M66.36,54.329c-10.983,10.983-27.819,7.978-27.819,7.978s-3.006-16.836,7.978-27.819
		s27.623-12.152,29.808-9.967C78.446,26.639,77.344,43.345,66.36,54.329z"/>
</g>
<g opacity="0.2">
	<path fill="#262324" d="M34.564,71.085c-1.098,1.098-1.885,2.093-2.983,0.994l0,0c-1.098-1.098-0.104-1.885,0.994-2.983
		l13.921-17.899c1.098-1.098,5.862-2.093,6.961-0.994l0,0c1.098,1.098,0.104,5.862-0.994,6.961L34.564,71.085z"/>
</g>
<g>
	<path fill="#BC5A59" d="M34.564,68.273c-1.098,1.098-1.885,2.093-2.983,0.994l0,0c-1.098-1.098-0.104-1.885,0.994-2.983
		l13.921-17.899c1.098-1.098,5.862-2.093,6.961-0.994l0,0c1.098,1.098,0.104,5.862-0.994,6.961L34.564,68.273z"/>
</g>
<g opacity="0.2">
	<circle fill="#262324" cx="60.694" cy="43.179" r="5.625"/>
</g>
<g opacity="0.2">
	<circle fill="#262324" cx="68.649" cy="35.225" r="2.813"/>
</g>
<g>
	<circle fill="#4D5B70" cx="60.694" cy="40.367" r="5.625"/>
</g>
<g>
	<circle fill="#4D5B70" cx="68.649" cy="32.412" r="2.813"/>
</g>
<g>
</g>
<g>
</g>
<g>
</g>
<g>
</g>
<g>
</g>
<g>
</g>
</svg>
