<?xml version="1.0" encoding="utf-8"?>
<!-- Generator: Adobe Illustrator 17.0.0, SVG Export Plug-In . SVG Version: 6.00 Build 0)  -->
<!DOCTYPE svg PUBLIC "-//W3C//DTD SVG 1.1//EN" "http://www.w3.org/Graphics/SVG/1.1/DTD/svg11.dtd">
<svg version="1.1" id="Capa_1" xmlns="http://www.w3.org/2000/svg" xmlns:xlink="http://www.w3.org/1999/xlink" x="0px" y="0px"
	 width="780px" height="280px" viewBox="0 0 780 280" enable-background="new 0 0 780 280" xml:space="preserve">
<g>
	<g>
		<path fill="#CC7075" d="M624.717,114.72c8.9,0,7.697,15.471,0,15.471C617.02,130.191,615.817,114.72,624.717,114.72z"/>
		<path fill="#CC7075" d="M629.609,129.607c5.552,1.914,8.404,7.229,9.073,13.803h-27.93c0.668-6.574,3.52-11.889,9.073-13.803
			c1.237,1.365,2.881,2.237,4.892,2.237C626.728,131.845,628.372,130.972,629.609,129.607z"/>
	</g>
	<g>
		<path fill="#CC7075" d="M631.898,54.651v-2.88h-12.396v2.496h5.554v1.208h-5.554v1.932h5.554v1.207h-5.554v8.432L631.898,54.651z
			 M619.502,51.77h-12.397v2.88l12.396,12.395h0.001v-8.432h-5.554v-1.207l0,0h5.554v-1.932h-5.554v-1.208l0,0h5.554V51.77z"/>
		<path fill="#CC7075" d="M619.502,73.706h20.445V50.524l-20.445-20.445v20.483h18.192l0,0l-5.797,5.795l-12.395,12.396V73.706z
			 M599.056,73.706h20.446v-4.953l-0.001,0.001l-12.396-12.396l-5.795-5.795h18.192V30.079l-0.001-0.001l-20.445,20.445
			L599.056,73.706L599.056,73.706z"/>
	</g>
	<path fill="#CC7075" d="M564.843,45.547c-0.319,0-0.632,0.023-0.938,0.066c-1.266,0.179-2.418,0.712-3.352,1.497
		c-0.013-0.616-0.075-1.221-0.18-1.809c-0.077-0.433-0.18-0.856-0.304-1.271c-1.023-3.431-3.596-6.191-6.907-7.471
		c-0.381-0.146-0.771-0.276-1.171-0.382c-0.953-0.255-1.954-0.393-2.989-0.393c-0.16,0-0.319,0.006-0.479,0.012
		c-6.16,0.251-11.078,5.322-11.078,11.544c0,1.181,0.178,2.32,0.507,3.392c-2.214,0.05-3.994,1.855-3.994,4.081
		c0,2.256,1.828,4.084,4.084,4.084h10.959h0.497h15.343c3.686,0,6.674-2.988,6.674-6.674
		C571.518,48.536,568.53,45.547,564.843,45.547z"/>
	<g>
		<polygon fill="#4E4E4E" points="548.716,119.352 565.832,119.352 573.856,133.887 540.692,133.887 		"/>
		<path fill="#4E4E4E" d="M516.94,56.673h80.668c2.271,0,4.128,1.857,4.128,4.127v58.111c0,2.27-1.858,4.127-4.128,4.127H516.94
			c-2.269,0-4.127-1.857-4.127-4.127V60.8C512.813,58.53,514.67,56.673,516.94,56.673z"/>
		<g>
			<circle fill="#969796" cx="596.723" cy="119.39" r="0.536"/>
			<circle fill="#969796" cx="594.63" cy="119.39" r="0.536"/>
			<circle fill="#969796" cx="592.538" cy="119.39" r="0.536"/>
		</g>
		<path fill="#969796" d="M508.045,129.494h98.457c1.208,0,2.197,0.989,2.197,2.196v0.001c0,1.208-0.989,2.196-2.197,2.196h-98.457
			c-1.208,0-2.196-0.988-2.196-2.196v-0.001C505.85,130.483,506.838,129.494,508.045,129.494z"/>
		<path fill="#4E4E4E" d="M608.699,131.69c0,1.209-0.989,2.197-2.197,2.197h-98.457c-1.208,0-2.196-0.988-2.196-2.197H608.699z"/>
		<rect x="515.553" y="59.08" fill="#D6A857" width="83.443" height="56.587"/>
	</g>
	<g>
		<path fill="#4E4E4E" d="M627.215,69.207h17.189c3.329,0,6.053,1.948,6.053,4.329v32.639c0,2.381-2.724,4.329-6.053,4.329h-17.189
			c-3.329,0-6.052-1.948-6.052-4.329V73.536C621.163,71.155,623.887,69.207,627.215,69.207z"/>
		<path fill="#D6A857" d="M623.043,73.495h25.535c0.049,0,0.09,0.027,0.09,0.059v33.08c0,0.033-0.041,0.059-0.09,0.059h-25.535
			c-0.05,0-0.09-0.026-0.09-0.059v-33.08C622.953,73.522,622.993,73.495,623.043,73.495z"/>
		<path fill="#969796" d="M632.634,70.228h6.352c0.172,0,0.314,0.141,0.314,0.313v0.001c0,0.172-0.142,0.313-0.314,0.313h-6.352
			c-0.172,0-0.313-0.141-0.313-0.313v-0.001C632.321,70.369,632.462,70.228,632.634,70.228z"/>
		<circle fill="#969796" cx="635.81" cy="108.54" r="1.058"/>
	</g>
	<g>
		<rect x="528.624" y="65.461" fill="#FFFFFF" width="57.3" height="34.228"/>
		<polygon fill="#FFFFFF" points="581.909,95.112 564.304,113.723 570.19,94.898 		"/>
		<g>
			<rect x="532.266" y="69.556" fill="#C8765B" width="9.325" height="3.731"/>
			<rect x="545.689" y="69.556" fill="#CACAC9" width="25.574" height="3.731"/>
			<rect x="574.069" y="69.556" fill="#CACAC9" width="8.214" height="3.731"/>
			<rect x="545.689" y="77.017" fill="#CACAC9" width="11.291" height="3.731"/>
			<rect x="558.51" y="77.017" fill="#CACAC9" width="3.244" height="3.731"/>
			<rect x="563.009" y="77.017" fill="#CACAC9" width="2.981" height="3.731"/>
		</g>
		<g>
			<rect x="532.266" y="85.224" fill="#536E91" width="9.325" height="3.731"/>
			<rect x="545.688" y="85.224" fill="#CACAC9" width="8.182" height="3.731"/>
			<rect x="560.813" y="85.224" fill="#CACAC9" width="6.904" height="3.731"/>
			<rect x="545.688" y="92.686" fill="#CACAC9" width="12.613" height="3.73"/>
			<rect x="567.441" y="92.686" fill="#CACAC9" width="11.29" height="3.73"/>
			<rect x="555.79" y="85.224" fill="#CACAC9" width="3.767" height="3.731"/>
			<rect x="568.869" y="85.224" fill="#CACAC9" width="13.415" height="3.731"/>
			<rect x="559.814" y="92.686" fill="#CACAC9" width="6.229" height="3.73"/>
		</g>
	</g>
	<g>
		<rect x="624.907" y="75.92" fill="#FFFFFF" width="21.98" height="11.622"/>
		<polygon fill="#FFFFFF" points="645.346,85.988 638.593,92.306 640.851,85.914 		"/>
		<g>
			<rect x="626.304" y="77.311" fill="#C8765B" width="3.577" height="1.267"/>
			<rect x="631.453" y="77.311" fill="#CACAC9" width="9.809" height="1.267"/>
			<rect x="642.339" y="77.311" fill="#CACAC9" width="3.151" height="1.267"/>
			<rect x="631.453" y="79.844" fill="#CACAC9" width="4.331" height="1.266"/>
			<rect x="636.37" y="79.844" fill="#CACAC9" width="1.244" height="1.266"/>
			<rect x="638.097" y="79.844" fill="#CACAC9" width="1.144" height="1.266"/>
		</g>
		<g>
			<rect x="626.304" y="82.63" fill="#536E91" width="3.577" height="1.267"/>
			<rect x="631.453" y="82.63" fill="#CACAC9" width="3.138" height="1.267"/>
			<rect x="637.254" y="82.63" fill="#CACAC9" width="2.648" height="1.267"/>
			<rect x="631.453" y="85.163" fill="#CACAC9" width="4.838" height="1.267"/>
			<rect x="639.796" y="85.163" fill="#CACAC9" width="4.331" height="1.267"/>
			<rect x="635.327" y="82.63" fill="#CACAC9" width="1.445" height="1.267"/>
			<rect x="640.344" y="82.63" fill="#CACAC9" width="5.145" height="1.267"/>
			<rect x="636.871" y="85.163" fill="#CACAC9" width="2.389" height="1.267"/>
		</g>
	</g>
	<rect x="622.953" y="93.521" fill="#FAF3E2" width="25.716" height="2.862"/>
	<g>
		<rect x="622.953" y="96.721" fill="#F4E6C1" width="2.278" height="1.763"/>
		<rect x="625.556" y="96.721" fill="#F4E6C1" width="2.279" height="1.763"/>
		<rect x="628.16" y="96.721" fill="#F4E6C1" width="2.279" height="1.763"/>
		<rect x="630.765" y="96.721" fill="#F4E6C1" width="2.278" height="1.763"/>
		<rect x="633.37" y="96.721" fill="#F4E6C1" width="2.278" height="1.763"/>
		<rect x="635.974" y="96.721" fill="#F4E6C1" width="2.278" height="1.763"/>
		<rect x="638.577" y="96.721" fill="#F4E6C1" width="2.278" height="1.763"/>
		<rect x="641.181" y="96.721" fill="#F4E6C1" width="2.278" height="1.763"/>
		<rect x="643.786" y="96.721" fill="#F4E6C1" width="2.278" height="1.763"/>
		<rect x="646.39" y="96.721" fill="#F4E6C1" width="2.278" height="1.763"/>
		<rect x="622.953" y="98.774" fill="#F4E6C1" width="2.278" height="1.762"/>
		<rect x="625.556" y="98.774" fill="#F4E6C1" width="2.279" height="1.762"/>
		<rect x="628.16" y="98.774" fill="#F4E6C1" width="2.279" height="1.762"/>
		<rect x="630.765" y="98.774" fill="#F4E6C1" width="2.278" height="1.762"/>
		<rect x="633.37" y="98.774" fill="#F4E6C1" width="2.278" height="1.762"/>
		<rect x="635.974" y="98.774" fill="#F4E6C1" width="2.278" height="1.762"/>
		<rect x="638.577" y="98.774" fill="#F4E6C1" width="2.278" height="1.762"/>
		<rect x="641.181" y="98.774" fill="#F4E6C1" width="2.278" height="1.762"/>
		<rect x="643.786" y="98.774" fill="#F4E6C1" width="2.278" height="1.762"/>
		<rect x="646.39" y="98.774" fill="#F4E6C1" width="2.278" height="1.762"/>
		<rect x="622.953" y="100.824" fill="#F4E6C1" width="2.278" height="1.763"/>
		<rect x="625.556" y="100.824" fill="#F4E6C1" width="2.279" height="1.763"/>
		<rect x="628.16" y="100.824" fill="#F4E6C1" width="2.279" height="1.763"/>
		<rect x="630.765" y="100.824" fill="#F4E6C1" width="2.278" height="1.763"/>
		<rect x="633.37" y="100.824" fill="#F4E6C1" width="2.278" height="1.763"/>
		<rect x="635.974" y="100.824" fill="#F4E6C1" width="2.278" height="1.763"/>
		<rect x="638.577" y="100.824" fill="#F4E6C1" width="2.278" height="1.763"/>
		<rect x="641.181" y="100.824" fill="#F4E6C1" width="2.278" height="1.763"/>
		<rect x="643.786" y="100.824" fill="#F4E6C1" width="2.278" height="1.763"/>
		<rect x="646.39" y="100.824" fill="#F4E6C1" width="2.278" height="1.763"/>
		<rect x="622.953" y="102.877" fill="#F4E6C1" width="4.882" height="1.762"/>
		<rect x="628.16" y="102.877" fill="#F4E6C1" width="15.299" height="1.762"/>
		<rect x="643.786" y="102.877" fill="#F4E6C1" width="4.882" height="1.762"/>
		<rect x="629.463" y="104.932" fill="#F4E6C1" width="2.279" height="1.762"/>
		<rect x="632.067" y="104.932" fill="#F4E6C1" width="2.278" height="1.762"/>
		<rect x="634.671" y="104.932" fill="#F4E6C1" width="2.278" height="1.762"/>
		<rect x="637.276" y="104.932" fill="#F4E6C1" width="2.278" height="1.762"/>
		<rect x="639.88" y="104.932" fill="#F4E6C1" width="2.278" height="1.762"/>
	</g>
	<g>
		<polygon fill="#699CB3" points="608.137,95.381 605.867,95.381 605.869,94.281 608.138,94.281 608.141,92.526 612.047,94.837 
			608.135,97.135 		"/>
		<polygon fill="#699CB3" points="616.728,95.381 614.459,95.381 614.46,94.281 616.729,94.281 616.732,92.526 620.639,94.837 
			616.726,97.135 		"/>
	</g>
</g>
<g>
	<g>
		<polygon fill="#4E4E4E" points="383.013,119.319 402.811,119.319 412.091,136.13 373.733,136.13 		"/>
		<path fill="#4E4E4E" d="M346.261,46.822h93.302c2.626,0,4.774,2.149,4.774,4.774v67.212c0,2.625-2.148,4.774-4.774,4.774h-93.302
			c-2.625,0-4.774-2.148-4.774-4.774V51.596C341.487,48.97,343.635,46.822,346.261,46.822z"/>
		<g>
			<circle fill="#969796" cx="438.541" cy="119.362" r="0.62"/>
			<circle fill="#969796" cx="436.12" cy="119.362" r="0.62"/>
			<circle fill="#969796" cx="433.7" cy="119.362" r="0.62"/>
		</g>
		<path fill="#969796" d="M335.974,131.05h113.878c1.398,0,2.54,1.143,2.54,2.541l0,0c0,1.397-1.142,2.54-2.54,2.54H335.974
			c-1.398,0-2.541-1.143-2.541-2.54l0,0C333.433,132.193,334.576,131.05,335.974,131.05z"/>
		<path fill="#4E4E4E" d="M452.391,133.59c0,1.397-1.143,2.54-2.54,2.54H335.974c-1.398,0-2.541-1.143-2.541-2.54H452.391z"/>
		<rect x="344.656" y="49.607" fill="#699CB3" width="96.513" height="65.45"/>
	</g>
	<rect x="356.699" y="12" fill="#FFFFFF" width="72.426" height="103.058"/>
	<g>
		<g>
			<rect x="356.699" y="12" fill="#D6A857" width="72.426" height="5.004"/>
			<rect x="376.059" y="20.048" fill="#8AAAD4" width="33.707" height="7.622"/>
			<rect x="356.699" y="36.595" fill="#D6A857" width="72.426" height="21.012"/>
			<rect x="370.61" y="30.651" fill="#CDDDF1" width="44.605" height="3.195"/>
			<rect x="356.699" y="105.896" fill="#D6A857" width="72.426" height="9.161"/>
			<rect x="361.086" y="81.137" fill="#CDDDF1" width="18.186" height="3.195"/>
			<rect x="361.086" y="86.627" fill="#CDDDF1" width="18.186" height="3.195"/>
			<rect x="361.086" y="92.116" fill="#CDDDF1" width="18.186" height="3.195"/>
			<rect x="361.086" y="97.605" fill="#CDDDF1" width="11.515" height="3.195"/>
			<rect x="383.819" y="81.137" fill="#CDDDF1" width="18.186" height="3.195"/>
			<rect x="383.819" y="86.627" fill="#CDDDF1" width="18.186" height="3.195"/>
			<rect x="383.819" y="92.116" fill="#CDDDF1" width="18.186" height="3.195"/>
			<rect x="383.819" y="97.605" fill="#CDDDF1" width="11.515" height="3.195"/>
			<rect x="406.552" y="81.137" fill="#CDDDF1" width="18.186" height="3.195"/>
			<rect x="406.552" y="86.627" fill="#CDDDF1" width="18.186" height="3.195"/>
			<rect x="406.552" y="92.116" fill="#CDDDF1" width="18.186" height="3.195"/>
			<rect x="406.552" y="97.605" fill="#CDDDF1" width="11.515" height="3.195"/>
		</g>
		<path fill="#8AAAD4" d="M415.646,78.807c5.008,0,9.093-3.814,9.093-8.491c0-4.676-4.085-8.49-9.093-8.49
			c-5.009,0-9.094,3.814-9.094,8.49C406.552,74.993,410.637,78.807,415.646,78.807z"/>
		<path fill="#EFD596" d="M370.178,78.807c5.009,0,9.094-3.814,9.094-8.491c0-4.676-4.085-8.49-9.094-8.49
			c-5.008,0-9.093,3.814-9.093,8.49C361.086,74.993,365.171,78.807,370.178,78.807z"/>
		<path fill="#C8765B" d="M392.912,78.807c5.008,0,9.094-3.814,9.094-8.491c0-4.676-4.086-8.49-9.094-8.49
			c-5.009,0-9.094,3.814-9.094,8.49C383.819,74.993,387.904,78.807,392.912,78.807z"/>
	</g>
	<g>
		<path fill="#7F7F7F" d="M416.983,56.109l-4.277-7.017l8.064,1.577l50.328,35.04c0.816,0.568,1.019,1.701,0.451,2.516l-1.721,2.472
			c-0.568,0.816-1.701,1.018-2.516,0.451L416.983,56.109z"/>
		<path fill="#4E4E4E" d="M416.983,56.109l-4.277-7.017l6.416,4.468l51.565,35.902l-0.861,1.236
			c-0.568,0.816-1.701,1.019-2.516,0.451L416.983,56.109z"/>
		<path fill="#FFFFFF" d="M416.983,56.109l-4.277-7.017l8.064,1.577l48.144,33.519c-1.008,2.142-2.276,3.933-3.787,5.44
			L416.983,56.109z"/>
		<path fill="#E5E5E4" d="M416.983,56.109l-4.277-7.017l6.416,4.468l48.136,33.515c-0.646,0.931-1.357,1.78-2.132,2.553
			L416.983,56.109z"/>
		<path fill="#DB9D88" d="M416.983,56.109l-4.277-7.017l8.064,1.577l46.409,32.312c-0.993,2.169-2.262,3.958-3.787,5.439
			L416.983,56.109z"/>
		<path fill="#C8765B" d="M416.983,56.109l-4.277-7.017l6.416,4.468l46.418,32.318c-0.647,0.936-1.364,1.78-2.149,2.542
			L416.983,56.109z"/>
		<path fill="#FFFFFF" d="M416.983,56.108l-4.276-7.016l8.064,1.576c-0.442,0.976-0.99,1.948-1.647,2.891
			C418.466,54.504,417.745,55.355,416.983,56.108z"/>
		<path fill="#E5E5E4" d="M416.983,56.109l-4.277-7.017l6.416,4.468C418.466,54.504,417.745,55.356,416.983,56.109z"/>
		<path fill="#656565" d="M414.119,51.41l-1.413-2.318l2.664,0.521c-0.146,0.323-0.327,0.644-0.544,0.956
			C414.609,50.88,414.371,51.163,414.119,51.41z"/>
	</g>
	<g>
		<rect x="358.081" y="141.658" fill="#C16B71" width="69.663" height="11.289"/>
		<g>
			<rect x="361.801" y="141.658" fill="#EACBC0" width="62.221" height="2.437"/>
			<rect x="420.516" y="141.658" fill="#EACBC0" width="1.326" height="5.644"/>
			<rect x="416.167" y="141.658" fill="#EACBC0" width="1.326" height="5.644"/>
			<rect x="411.819" y="141.658" fill="#EACBC0" width="1.326" height="5.644"/>
			<rect x="407.47" y="141.658" fill="#EACBC0" width="1.326" height="5.644"/>
			<rect x="403.121" y="141.658" fill="#EACBC0" width="1.326" height="5.644"/>
			<rect x="398.773" y="141.658" fill="#EACBC0" width="1.326" height="5.644"/>
			<rect x="394.424" y="141.658" fill="#EACBC0" width="1.326" height="5.644"/>
			<rect x="390.075" y="141.658" fill="#EACBC0" width="1.326" height="5.644"/>
			<rect x="385.726" y="141.658" fill="#EACBC0" width="1.326" height="5.644"/>
			<rect x="381.378" y="141.658" fill="#EACBC0" width="1.326" height="5.644"/>
			<rect x="377.029" y="141.658" fill="#EACBC0" width="1.326" height="5.644"/>
			<rect x="372.68" y="141.658" fill="#EACBC0" width="1.326" height="5.644"/>
			<rect x="368.332" y="141.657" fill="#EACBC0" width="1.326" height="5.645"/>
			<rect x="363.983" y="141.657" fill="#EACBC0" width="1.325" height="5.645"/>
		</g>
	</g>
</g>
<g>
	<path fill="#C16B71" d="M234.264,37.076c0.704,0.001,1.412,0.04,2.122,0.121l0.959-3.158l6.658,2.024l-0.96,3.158
		c2.415,1.249,4.481,2.975,6.115,5.022l2.91-1.553l3.277,6.14l-2.909,1.553c0.792,2.497,1.075,5.172,0.77,7.875l3.156,0.96
		l-2.024,6.658l-3.156-0.96c-1.251,2.416-2.976,4.482-5.023,6.116l1.553,2.91l-6.139,3.277l-1.553-2.91
		c-1.841,0.584-3.78,0.892-5.755,0.89v-4.985c6.036,0.003,11.619-3.909,13.465-9.983c2.261-7.436-1.935-15.298-9.372-17.558
		c-1.362-0.414-2.74-0.61-4.093-0.611L234.264,37.076L234.264,37.076z M222.371,41.244l-1.553-2.909l6.138-3.277l1.555,2.91
		c1.839-0.584,3.779-0.892,5.753-0.891v4.985c-6.035-0.003-11.618,3.909-13.464,9.983c-2.261,7.436,1.935,15.298,9.371,17.558l0,0
		c1.362,0.414,2.74,0.611,4.093,0.611v4.985c-0.703,0-1.412-0.04-2.122-0.121l-0.959,3.158l-6.658-2.025l0.96-3.157
		c-2.416-1.25-4.48-2.975-6.114-5.022l-2.911,1.552l-3.276-6.139l2.91-1.554c-0.793-2.496-1.076-5.172-0.77-7.875l-3.156-0.96
		l2.024-6.658l3.157,0.959C218.598,44.943,220.323,42.877,222.371,41.244z"/>
	<path fill="#C16B71" d="M162.24,110.04c0.704,0.002,1.412,0.04,2.122,0.121l0.959-3.158l6.658,2.025l-0.96,3.157
		c2.414,1.249,4.481,2.975,6.115,5.023l2.91-1.553l3.277,6.139l-2.909,1.553c0.792,2.496,1.075,5.173,0.77,7.876l3.156,0.959
		l-2.024,6.658l-3.156-0.96c-1.251,2.416-2.976,4.483-5.023,6.116l1.553,2.911l-6.139,3.276l-1.553-2.91
		c-1.841,0.584-3.781,0.892-5.755,0.89v-4.985c6.036,0.003,11.619-3.909,13.465-9.982c2.261-7.437-1.935-15.298-9.372-17.558
		c-1.362-0.415-2.74-0.611-4.093-0.612L162.24,110.04L162.24,110.04z M150.346,114.208l-1.553-2.909l6.138-3.277l1.554,2.911
		c1.84-0.585,3.779-0.893,5.754-0.892v4.985c-6.035-0.003-11.618,3.91-13.464,9.984c-2.261,7.436,1.935,15.297,9.371,17.558l0,0
		c1.362,0.415,2.74,0.611,4.093,0.611v4.985c-0.704,0-1.412-0.04-2.122-0.12l-0.959,3.157l-6.658-2.024l0.96-3.158
		c-2.416-1.249-4.481-2.975-6.114-5.022l-2.912,1.553l-3.276-6.139l2.91-1.554c-0.793-2.496-1.076-5.171-0.77-7.875l-3.156-0.96
		l2.024-6.658l3.156,0.959C146.574,117.907,148.299,115.841,150.346,114.208z"/>
	<g>
		<polygon fill="#4E4E4E" points="190.145,113.118 207.263,113.118 215.286,127.653 182.122,127.653 		"/>
		<path fill="#4E4E4E" d="M158.37,50.438h80.668c2.27,0,4.127,1.858,4.127,4.127v58.11c0,2.27-1.858,4.127-4.127,4.127H158.37
			c-2.269,0-4.127-1.857-4.127-4.127v-58.11C154.243,52.296,156.099,50.438,158.37,50.438z"/>
		<g>
			<circle fill="#969796" cx="238.153" cy="113.155" r="0.536"/>
			<circle fill="#969796" cx="236.061" cy="113.155" r="0.536"/>
			<circle fill="#969796" cx="233.968" cy="113.155" r="0.536"/>
		</g>
		<path fill="#969796" d="M149.475,123.259h98.458c1.207,0,2.196,0.989,2.196,2.197l0,0c0,1.208-0.989,2.197-2.196,2.197h-98.458
			c-1.208,0-2.196-0.989-2.196-2.197l0,0C147.279,124.248,148.267,123.259,149.475,123.259z"/>
		<path fill="#4E4E4E" d="M250.128,125.456c0,1.208-0.989,2.197-2.196,2.197h-98.457c-1.208,0-2.196-0.989-2.196-2.197H250.128z"/>
		<rect x="156.982" y="52.845" fill="#FFFFFF" width="83.443" height="56.587"/>
	</g>
	<g>
		<g>
			<rect x="163.597" y="62.308" fill="#C8765B" width="22.698" height="5.107"/>
			<rect x="163.597" y="82.447" fill="#EBCC80" width="22.698" height="5.107"/>
			<g>
				<rect x="163.597" y="68.583" fill="#E5E5E4" width="22.699" height="0.796"/>
				<rect x="163.597" y="70.335" fill="#E5E5E4" width="22.699" height="0.796"/>
				<rect x="163.597" y="72.088" fill="#E5E5E4" width="22.699" height="0.796"/>
				<rect x="163.597" y="73.839" fill="#E5E5E4" width="15.987" height="0.797"/>
				<rect x="163.597" y="75.592" fill="#E5E5E4" width="22.699" height="0.797"/>
				<rect x="163.597" y="77.344" fill="#E5E5E4" width="22.699" height="0.796"/>
				<rect x="163.597" y="79.097" fill="#E5E5E4" width="14.567" height="0.797"/>
				<rect x="163.597" y="88.721" fill="#E5E5E4" width="22.699" height="0.797"/>
				<rect x="163.597" y="90.474" fill="#E5E5E4" width="22.699" height="0.797"/>
				<rect x="163.597" y="92.226" fill="#E5E5E4" width="22.699" height="0.797"/>
				<rect x="163.597" y="93.979" fill="#E5E5E4" width="22.699" height="0.796"/>
				<rect x="163.597" y="95.73" fill="#E5E5E4" width="13.695" height="0.797"/>
				<rect x="163.597" y="97.483" fill="#E5E5E4" width="22.699" height="0.797"/>
				<rect x="163.597" y="99.235" fill="#E5E5E4" width="8.463" height="0.797"/>
			</g>
		</g>
		<g>
			<rect x="190.759" y="97.004" fill="#6185A7" width="44.403" height="3.027"/>
			<rect x="190.759" y="62.308" fill="#DB9D88" width="7.894" height="34.696"/>
			<rect x="199.886" y="75.39" fill="#C8765B" width="7.894" height="21.614"/>
			<rect x="209.013" y="82.71" fill="#C1694C" width="7.894" height="14.295"/>
			<rect x="218.141" y="76.007" fill="#B25436" width="7.893" height="20.997"/>
			<rect x="227.267" y="81.99" fill="#AE4526" width="7.894" height="15.014"/>
		</g>
	</g>
	<g>
		<g>
			<g>
				<path fill="#CCA16E" d="M206.515,117.899L206.515,117.899c1.998-1.343,2.595-4.124,1.192-6.073l-13.388-18.604
					c-1.403-1.95-4.076-2.535-6.073-1.192l0,0c-1.998,1.343-2.529,4.071-1.19,6.072l13.388,18.605
					C201.849,118.662,204.517,119.242,206.515,117.899z"/>
				<path fill="#CCA16E" d="M197.045,120.103L197.045,120.103c2.186-1.008,3.217-3.658,2.143-5.806L188.931,93.8
					c-1.075-2.148-3.62-3.151-5.806-2.143l0,0c-2.187,1.007-3.145,3.616-2.142,5.805l10.257,20.498
					C192.317,120.114,194.858,121.111,197.045,120.103z"/>
				<polygon fill="#CCA16E" points="159.419,107.419 177.671,85.735 199.351,92.609 206.264,105.63 171.268,116.779 				"/>
				<path fill="#E1BE92" d="M164.946,103.188c-9.046-1.143-15.261,11.664-13.216,17.89c2.044,6.226,10.365,8.615,19.232,6.238
					s12.617-10.774,11.456-14.018C181.258,110.052,173.992,104.332,164.946,103.188z"/>
				<path fill="#E1BE92" d="M155.889,110.534L155.889,110.534c1.544,1.847,4.678,2.434,6.164,0.55l18.135-22.992
					c1.485-1.883,2.094-4.318,0.55-6.164l0,0c-1.544-1.846-4.313-2.09-6.164-0.549l-18.135,22.992
					C154.947,106.261,154.345,108.688,155.889,110.534z"/>
				<path fill="#E1BE92" d="M200.432,89.923L200.432,89.923c0.459-2.364-1.118-4.619-3.463-5.129l-18.374-4.258
					c-2.337-0.541-4.671,1.099-5.129,3.462l0,0c-0.459,2.364,1.1,4.666,3.463,5.129l18.374,4.258
					C197.647,93.927,199.973,92.286,200.432,89.923z"/>
				<path fill="#E1BE92" d="M215.001,109.901L215.001,109.901c1.842-1.55,2.136-4.379,0.532-6.166l-15.309-17.058
					c-1.603-1.788-4.323-2.082-6.165-0.533l0,0c-1.843,1.549-2.078,4.319-0.532,6.165l15.309,17.059
					C210.444,111.161,213.159,111.45,215.001,109.901z"/>
				<path fill="#E1BE92" d="M184.562,91.199c-3.001,2.829-14.802,14.445-4.965,17.907c9.836,3.463-16.689,8.407-16.689,8.407
					l-0.628-17.081C162.28,100.432,171.221,80.267,184.562,91.199z"/>
				<polygon fill="#E1BE92" points="161.675,100.868 170.027,121.472 158.211,128.469 147.632,108.83 				"/>
				
					<rect x="134.472" y="114.266" transform="matrix(0.4819 0.8762 -0.8762 0.4819 183.8694 -67.0963)" fill="#FFFFFF" width="28.402" height="15.342"/>
				
					<rect x="144.995" y="120.489" transform="matrix(0.4819 0.8762 -0.8762 0.4819 191.0952 -66.8713)" fill="#E5E5E4" width="14.201" height="15.342"/>
			</g>
			<g>
				<path fill="#FFFFFF" d="M245.921,69.461c-7.186-7.925-19.442-8.518-27.365-1.33c-7.926,7.191-8.524,19.445-1.334,27.37
					s19.445,8.522,27.372,1.329C252.518,89.642,253.113,77.389,245.921,69.461z"/>
				<g>
					<g>
						<path fill="#8AAAD4" d="M212.2,82.764h13.774v6.951h-12.382C212.695,87.483,212.234,85.124,212.2,82.764z"/>
						<g>
							<path fill="#E5E5E4" d="M223.253,64.979h2.721V63.93C225.049,64.208,224.139,64.558,223.253,64.979z"/>
							<path fill="#E5E5E4" d="M219.455,67.364h6.519v-1.083h-5.032C220.435,66.614,219.938,66.976,219.455,67.364z"/>
							<path fill="#E5E5E4" d="M216.968,69.749h9.006v-1.083h-7.983C217.634,69.016,217.293,69.378,216.968,69.749z"/>
							<path fill="#E5E5E4" d="M215.188,72.133h1.652v-1.084h-0.915C215.666,71.404,215.421,71.766,215.188,72.133z"/>
							<path fill="#E5E5E4" d="M213.906,74.518h12.068v-1.083h-11.54C214.247,73.791,214.07,74.153,213.906,74.518z"/>
							<path fill="#E5E5E4" d="M213.016,76.903h12.959v-1.084h-12.598C213.245,76.178,213.125,76.539,213.016,76.903z"/>
							<path fill="#E5E5E4" d="M212.462,79.288h2.445v-1.084h-2.233C212.594,78.564,212.523,78.926,212.462,79.288z"/>
							<path fill="#E5E5E4" d="M214.916,92.387h11.058v-1.084h-11.657C214.504,91.669,214.703,92.031,214.916,92.387z"/>
							<path fill="#E5E5E4" d="M216.592,94.771h9.381v-1.083h-10.208C216.026,94.056,216.302,94.417,216.592,94.771z"/>
							<path fill="#E5E5E4" d="M218.918,97.157h7.055v-1.084h-8.21C218.137,96.452,218.521,96.814,218.918,97.157z"/>
							<path fill="#E5E5E4" d="M222.376,99.541h3.598v-1.083h-5.372C221.176,98.853,221.769,99.213,222.376,99.541z"/>
						</g>
					</g>
					<g>
						<path fill="#DB9D88" d="M241.403,65.777v33.406c-3.307,1.951-7.05,2.827-10.743,2.654v-38.71
							C234.375,62.954,238.121,63.845,241.403,65.777z"/>
						<path fill="#C8765B" d="M243.082,73.16h5.48c4.223,7.681,2.805,17.526-3.968,23.671c-0.488,0.443-0.993,0.856-1.512,1.24
							V73.16z"/>
					</g>
				</g>
				<g>
					
						<rect x="207.469" y="91.646" transform="matrix(-0.6717 -0.7408 0.7408 -0.6717 276.1333 325.9461)" fill="#EFD596" width="5.637" height="20.287"/>
					<path fill="#4E4E4E" d="M198.57,118.508c-1.843,1.677-4.697,1.535-6.368-0.309c-1.673-1.84-1.535-4.692,0.313-6.366
						l14.187-12.874c1.843-1.671,4.694-1.534,6.368,0.308c1.672,1.844,1.534,4.696-0.309,6.369L198.57,118.508z"/>
					<path fill="#4E4E4E" d="M247.012,68.472c-4.111-4.533-9.765-6.837-15.439-6.838v3.888c4.617,0.001,9.217,1.875,12.563,5.563
						c6.291,6.935,5.772,17.667-1.165,23.961c-3.25,2.947-7.33,4.398-11.398,4.398v3.888c5,0.002,10.017-1.785,14.012-5.409
						C254.11,90.186,254.751,77.001,247.012,68.472z M231.572,61.634c-4.998-0.001-10.013,1.785-14.006,5.407
						c-8.529,7.737-9.171,20.923-1.435,29.451c4.113,4.533,9.766,6.838,15.441,6.84v-3.888c-4.617-0.003-9.217-1.877-12.563-5.565
						l0,0c-6.293-6.934-5.77-17.663,1.171-23.958c3.247-2.946,7.327-4.398,11.392-4.398
						C231.572,65.523,231.572,61.634,231.572,61.634z"/>
					<circle fill="#EFD596" cx="212.408" cy="99.869" r="2.82"/>
				</g>
			</g>
			<g>
				<path fill="#E1BE92" d="M174.016,115.02L174.016,115.02c0.46,2.789,3.163,4.887,5.906,4.234l24.786-5.902
					c2.744-0.653,4.694-3.116,4.235-5.905l0,0c-0.46-2.789-3.116-4.688-5.906-4.234l-24.787,5.902
					C175.499,109.77,173.555,112.232,174.016,115.02z"/>
				<path fill="#F0DABC" d="M202.709,104.308l-2.149,0.708c-1.105,3.185-0.165,5.706,2.484,7.672l2.067-0.637
					C210.731,110.305,207.285,102.737,202.709,104.308z"/>
			</g>
		</g>
		<path fill="#F0DABC" d="M216.576,106.402c-0.023-0.958-0.361-1.907-1.043-2.667l-1.294-1.441c0,0.722-0.172,1.444-0.514,2.096
			l0.282,0.36C214.797,105.756,215.692,106.262,216.576,106.402z"/>
	</g>
	<g>
		<g>
			<path fill="#4E4E4E" d="M232.136,104.58h17.189c3.33,0,6.053,1.947,6.053,4.329v32.639c0,2.381-2.723,4.329-6.053,4.329h-17.189
				c-3.329,0-6.052-1.948-6.052-4.329v-32.64C226.084,106.527,228.807,104.58,232.136,104.58z"/>
			<path fill="#FFFFFF" d="M227.963,108.869h25.535c0.05,0,0.09,0.027,0.09,0.059v33.08c0,0.033-0.04,0.059-0.09,0.059h-25.535
				c-0.05,0-0.09-0.026-0.09-0.059v-33.08C227.873,108.895,227.914,108.869,227.963,108.869z"/>
			<path fill="#969796" d="M237.555,105.601h6.352c0.173,0,0.314,0.14,0.314,0.313l0,0c0,0.173-0.141,0.314-0.314,0.314h-6.352
				c-0.173,0-0.314-0.141-0.314-0.314l0,0C237.242,105.741,237.382,105.601,237.555,105.601z"/>
			<circle fill="#969796" cx="240.731" cy="143.913" r="1.059"/>
		</g>
		<g>
			<rect x="230.687" y="136.779" fill="#6185A7" width="20.088" height="1.37"/>
			<rect x="230.687" y="121.082" fill="#DB9D88" width="3.572" height="15.697"/>
			<rect x="234.817" y="127" fill="#C8765B" width="3.571" height="9.779"/>
			<rect x="238.945" y="130.312" fill="#C1694C" width="3.572" height="6.467"/>
			<rect x="243.075" y="127.28" fill="#B25436" width="3.572" height="9.499"/>
			<rect x="247.203" y="129.986" fill="#AE4526" width="3.572" height="6.793"/>
		</g>
		<rect x="241.694" y="111.284" fill="#C8765B" width="9.081" height="2.311"/>
		<rect x="230.687" y="111.284" fill="#6185A7" width="9.081" height="2.311"/>
		<g>
			<rect x="241.694" y="114.123" fill="#E5E5E4" width="9.081" height="0.361"/>
			<rect x="241.694" y="114.917" fill="#E5E5E4" width="9.081" height="0.36"/>
			<rect x="241.694" y="115.71" fill="#E5E5E4" width="9.081" height="0.36"/>
			<rect x="241.694" y="116.502" fill="#E5E5E4" width="6.396" height="0.361"/>
			<rect x="241.694" y="117.295" fill="#E5E5E4" width="9.081" height="0.361"/>
			<rect x="241.694" y="118.088" fill="#E5E5E4" width="9.081" height="0.36"/>
			<rect x="241.694" y="118.88" fill="#E5E5E4" width="5.828" height="0.36"/>
			<rect x="230.687" y="114.123" fill="#E5E5E4" width="9.081" height="0.361"/>
			<rect x="230.687" y="114.917" fill="#E5E5E4" width="9.081" height="0.36"/>
			<rect x="230.687" y="115.71" fill="#E5E5E4" width="9.081" height="0.36"/>
			<rect x="230.687" y="116.502" fill="#E5E5E4" width="9.081" height="0.36"/>
			<rect x="230.687" y="117.295" fill="#E5E5E4" width="5.478" height="0.361"/>
			<rect x="230.687" y="118.088" fill="#E5E5E4" width="9.081" height="0.36"/>
			<rect x="230.687" y="118.88" fill="#E5E5E4" width="3.385" height="0.36"/>
		</g>
	</g>
</g>
<g>
</g>
<g>
</g>
<g>
</g>
<g>
</g>
<g>
</g>
<g>
</g>
<g>
</g>
<g>
</g>
<g>
</g>
<g>
</g>
<g>
</g>
<g>
</g>
<g>
</g>
<g>
</g>
<g>
</g>
</svg>
