<?xml version="1.0" encoding="utf-8"?>
<!-- Generator: Adobe Illustrator 17.0.0, SVG Export Plug-In . SVG Version: 6.00 Build 0)  -->
<!DOCTYPE svg PUBLIC "-//W3C//DTD SVG 1.1//EN" "http://www.w3.org/Graphics/SVG/1.1/DTD/svg11.dtd">
<svg version="1.1" id="Capa_1" xmlns="http://www.w3.org/2000/svg" xmlns:xlink="http://www.w3.org/1999/xlink" x="0px" y="0px"
	 width="700px" height="315px" viewBox="0 0 700 315" enable-background="new 0 0 700 315" xml:space="preserve">
<g id="_x3C_Grupo1_x3E__1_">
	<path fill="#F6F8F8" d="M283.675,195.72c-1.87,5.064-7.675,10.428-7.675,11.729v1.617c0,1.34,1.576,3.934,3.241,3.934h66.34
		c1.664,0,2.419-2.594,2.419-3.934v-1.617c0-1.342-5.665-7.008-7.329-12.222L338.101,173h-51.379L283.675,195.72z"/>
	<polygon fill="#D9DFE3" points="287.365,168 287,173.21 287,173 338,173 338,173.21 337.457,168 	"/>
	<path fill="#253D4C" d="M199,17h151.875L345.94,4H195.494C192.328,4,190,6.4,190,9.566V86h9V17z"/>
	<polygon fill="#253D4C" points="249,156 249,168 287.365,168 337.457,168 380,168 380,156 	"/>
	<path fill="#DA6C71" d="M199,17v69h45.212c3.165,0,4.788,3.301,4.788,6.467V156h131V90.828L350.875,17H199z"/>
	<path fill="#253D4C" d="M425,17v60h10V9.566C435,6.4,432.494,4,429.328,4H345.94l4.935,13H425z"/>
	<path opacity="0.1" fill="#FFFFFF" d="M425,17v60h10V9.566C435,6.4,432.494,4,429.328,4H345.94l4.935,13H425z"/>
	<path fill="#DA6C71" d="M350.875,17L380,90.828v-8.26c0-3.165,3.534-5.568,6.699-5.568H425V17H350.875z"/>
	<path opacity="0.1" fill="#FFFFFF" d="M350.875,17L380,90.828v-8.26c0-3.165,3.534-5.568,6.699-5.568H425V17H350.875z"/>
	<path fill="#253D4C" d="M162,200V98h31.187l-4.515-12h-30.071c-3.165,0-6.601,3.301-6.601,6.467v114.038
		c0,3.165,3.435,6.495,6.601,6.495h80.574l-4.515-13H162z M201.406,209.397c-1.496,0-2.707-1.211-2.707-2.707
		s1.211-2.707,2.707-2.707c1.496,0,2.707,1.211,2.707,2.707S202.903,209.397,201.406,209.397z"/>
	<polygon fill="#009E96" points="162,98 162,200 234.66,200 193.187,98 	"/>
	<circle fill="#1A2C3A" cx="201.406" cy="206.69" r="2.707"/>
	<path fill="#253D4C" d="M493.015,204h41.247l-2.518-6H388V85h98.345l-3.267-8h-47.994h-9.809h-38.576
		c-3.165,0-6.699,2.402-6.699,5.568v8.26v65.181v12.267V204h79.057H493.015z"/>
	<polygon fill="#0068A7" points="388,85 388,198 531.743,198 486.345,85 	"/>
	<path fill="#F6F8F8" d="M571.128,204h-36.867h-41.247c-0.131,1-1.35,2-2.852,2h-28.254c-1.502,0-2.721-1-2.852-2h-78.113H362v3.494
		c0,1.122,0.642,2.291,1.716,2.613l5.132,1.94c1.075,0.321,2.74,0.953,3.861,0.953h206.654c1.122,0,2.902-0.632,3.976-0.953
		l4.981-1.755c1.074-0.323,1.68-1.676,1.68-2.798V204H571.128z"/>
	<path fill="#D9DFE3" d="M461.909,206h28.254c1.502,0,2.721-1,2.852-2h-33.958C459.187,205,460.406,206,461.909,206z"/>
	<path fill="#253D4C" d="M563,85v113h-31.257l2.518,6H571V82.568c0-3.165-2.462-5.568-5.627-5.568h-82.294l3.267,8H563z"/>
	<path opacity="0.1" fill="#FFFFFF" d="M563,85v113h-31.257l2.518,6H571V82.568c0-3.165-2.462-5.568-5.627-5.568h-82.294l3.267,8
		H563z"/>
	<polygon fill="#0068A7" points="563,85 486.345,85 531.743,198 563,198 	"/>
	<polygon opacity="0.1" fill="#FFFFFF" points="563,85 486.345,85 531.743,198 563,198 	"/>
	<path fill="#253D4C" d="M144,200h-31v-53h10.642l-3.787-8h-3.704c-2.365,0-4.152,1.189-4.152,3.554v65.425
		c0,2.365,1.787,5.021,4.152,5.021h25.166c2.365,0,4.682-2.656,4.682-5.021v-5.708l-2-3.787V200z M128.735,209.45
		c-1.496,0-2.707-1.211-2.707-2.707c0-1.496,1.211-2.707,2.707-2.707c1.496,0,2.707,1.211,2.707,2.707
		C131.442,208.239,130.231,209.45,128.735,209.45z"/>
	<circle fill="#1A2C3A" cx="128.735" cy="206.743" r="2.707"/>
	<polygon fill="#DDA550" points="113,200 144,200 144,198.483 123.642,147 113,147 	"/>
	<path fill="#253D4C" d="M249,92.467c0-3.165-1.622-6.467-4.788-6.467h-44.664h-9.809h-1.067l4.515,12H241v102h-6.34l4.515,13h5.037
		c3.165,0,4.788-3.33,4.788-6.495v-38.229v-12.267V92.467z M201.406,93.155c-0.561,0-1.015-0.454-1.015-1.015
		s0.454-1.015,1.015-1.015s1.015,0.454,1.015,1.015S201.968,93.155,201.406,93.155z"/>
	<path opacity="0.1" fill="#FFFFFF" d="M249,92.467c0-3.165-1.622-6.467-4.788-6.467h-44.664h-9.809h-1.067l4.515,12H241v102h-6.34
		l4.515,13h5.037c3.165,0,4.788-3.33,4.788-6.495v-38.229v-12.267V92.467z M201.406,93.155c-0.561,0-1.015-0.454-1.015-1.015
		s0.454-1.015,1.015-1.015s1.015,0.454,1.015,1.015S201.968,93.155,201.406,93.155z"/>
	<polygon fill="#009E96" points="234.66,200 241,200 241,98 193.187,98 	"/>
	<polygon opacity="0.1" fill="#FFFFFF" points="234.66,200 241,200 241,98 193.187,98 	"/>
	<circle fill="#FFFFFF" cx="201.406" cy="92.14" r="1.015"/>
	<circle opacity="0.1" fill="#FFFFFF" cx="201.406" cy="92.14" r="1.015"/>
	<path fill="#253D4C" d="M141.318,139h-21.463l3.787,8H144v51.483l2,3.787v-59.717C146,140.189,143.683,139,141.318,139z
		 M133.049,145h-8.629c-0.498,0-0.902-1.001-0.902-1.501c0-0.498,0.404-1.499,0.902-1.499h8.629c0.498,0,0.902,1.001,0.902,1.499
		C133.952,143.999,133.548,145,133.049,145z"/>
	<path opacity="0.1" fill="#FFFFFF" d="M141.318,139h-21.463l3.787,8H144v51.483l2,3.787v-59.717
		C146,140.189,143.683,139,141.318,139z M133.049,145h-8.629c-0.498,0-0.902-1.001-0.902-1.501c0-0.498,0.404-1.499,0.902-1.499
		h8.629c0.498,0,0.902,1.001,0.902,1.499C133.952,143.999,133.548,145,133.049,145z"/>
	<polygon fill="#DDA550" points="144,147 123.642,147 144,198.483 	"/>
	<polygon opacity="0.1" fill="#FFFFFF" points="144,147 123.642,147 144,198.483 	"/>
	<path fill="#1A2C3A" d="M133.049,142h-8.629c-0.498,0-0.902,1.001-0.902,1.499c0,0.5,0.404,1.501,0.902,1.501h8.629
		c0.498,0,0.902-1.001,0.902-1.501C133.952,143.001,133.548,142,133.049,142z"/>
	<path opacity="0.1" fill="#FFFFFF" d="M133.049,142h-8.629c-0.498,0-0.902,1.001-0.902,1.499c0,0.5,0.404,1.501,0.902,1.501h8.629
		c0.498,0,0.902-1.001,0.902-1.501C133.952,143.001,133.548,142,133.049,142z"/>
</g>
<g>
</g>
<g>
</g>
<g>
</g>
<g>
</g>
<g>
</g>
<g>
</g>
<g>
</g>
<g>
</g>
<g>
</g>
<g>
</g>
<g>
</g>
<g>
</g>
<g>
</g>
<g>
</g>
<g>
</g>
</svg>
