<?xml version="1.0" encoding="utf-8"?>
<!-- Generator: Adobe Illustrator 17.0.0, SVG Export Plug-In . SVG Version: 6.00 Build 0)  -->
<!DOCTYPE svg PUBLIC "-//W3C//DTD SVG 1.1//EN" "http://www.w3.org/Graphics/SVG/1.1/DTD/svg11.dtd">
<svg version="1.1" xmlns="http://www.w3.org/2000/svg" xmlns:xlink="http://www.w3.org/1999/xlink" x="0px" y="0px" width="1920px"
	 height="800px" viewBox="0 0 1920 800" enable-background="new 0 0 1920 800" xml:space="preserve">
<g id="fondo">
	<rect x="2" fill="#456087" width="1920" height="530"/>
	<rect x="1" y="530" fill="#FF7878" width="1920" height="270"/>
</g>
<g id="desktop">
	<g>
		<rect x="1281.961" y="231.839" fill="#E7E7E7" width="55.879" height="73.922"/>
		<rect x="1284.392" y="235.681" fill="#DFAE57" width="50.231" height="52.462"/>
	</g>
	<g>
		<rect x="1214.837" y="296.09" fill="#E7E7E7" width="55.879" height="73.921"/>
		<rect x="1217.268" y="299.932" fill="#FF7878" width="50.231" height="52.462"/>
	</g>
	<g>
		<path fill="#5BA3E0" d="M1283.826,492.603v-13.018h-52.069v62.721l0,0v0.003c0,2.876,11.651,5.204,26.028,5.204
			c14.376,0,26.027-2.328,26.027-5.204v-0.003h0.014v-17.752c8.822,0,15.976-7.153,15.976-15.977
			C1299.802,499.757,1292.648,492.603,1283.826,492.603z M1283.826,517.06v-16.961c4.683,0,8.48,3.798,8.48,8.479
			C1292.307,513.262,1288.509,517.06,1283.826,517.06z"/>
		<path fill="#3F3F3F" d="M1283.813,479.589c0-2.879-11.651-5.209-26.027-5.209c-14.377,0-26.028,2.33-26.028,5.209
			c0,2.874,11.651,5.204,26.028,5.204C1272.161,484.793,1283.813,482.463,1283.813,479.589z"/>
		<path fill="#E7E7E7" d="M1244.978,445.696c-3.816,0-6.92-3.105-6.92-6.92c0-3.816,3.104-6.925,6.92-6.925
			c1.308,0,2.366-1.056,2.366-2.366c0-1.305-1.059-2.366-2.366-2.366c-6.426,0-11.655,5.229-11.655,11.657
			c0,6.427,5.229,11.654,11.655,11.654c3.816,0,6.919,3.103,6.919,6.92c0,3.817-3.103,6.922-6.919,6.922
			c-1.307,0-2.366,1.059-2.366,2.366c0,1.31,1.06,2.369,2.366,2.369c6.426,0,11.654-5.229,11.654-11.657
			C1256.632,450.925,1251.403,445.696,1244.978,445.696z"/>
		<path fill="#E7E7E7" d="M1268.286,447.078c-3.816,0-6.922-3.103-6.922-6.92c0-3.817,3.105-6.922,6.922-6.922
			c1.308,0,2.366-1.059,2.366-2.369c0-1.308-1.058-2.365-2.366-2.365c-6.425,0-11.654,5.227-11.654,11.656
			c0,6.426,5.229,11.654,11.654,11.654c3.813,0,6.919,3.103,6.919,6.92c0,3.816-3.105,6.922-6.919,6.922
			c-1.311,0-2.369,1.059-2.369,2.369c0,1.307,1.059,2.366,2.369,2.366c6.426,0,11.652-5.229,11.652-11.657
			C1279.938,452.306,1274.712,447.078,1268.286,447.078z"/>
	</g>
	<g>
		<path fill="#E7E7E7" d="M755.202,431.477H741.49c0.009,0.233,0.018,0.468,0.018,0.704v14.515c0,9.768-7.918,17.686-17.687,17.686
			h-134.46c-9.768,0-17.686-7.919-17.686-17.686v-14.515c0-0.236,0.008-0.471,0.018-0.704h-10.226
			c-9.768,0-17.686,7.918-17.686,17.686v78.899c0,9.769,7.919,17.687,17.686,17.687h193.735c9.768,0,17.686-7.918,17.686-17.687
			v-78.899C772.888,439.395,764.97,431.477,755.202,431.477z"/>
		<rect x="568.438" y="515.917" fill="#3F3F3F" width="179.794" height="14.524"/>
		<path fill="#AEAEAE" d="M571.675,446.695c0,9.768,7.918,17.686,17.686,17.686h134.46c9.768,0,17.687-7.919,17.687-17.686v-14.515
			c0-0.236-0.009-0.471-0.018-0.704H571.693c-0.009,0.233-0.018,0.468-0.018,0.704V446.695z"/>
		<circle fill="#C96A60" cx="757.019" cy="453.431" r="2.68"/>
		<rect x="604.938" y="337.398" fill="#E7E7E7" width="106.793" height="94.74"/>
	</g>
	<g>
		<rect x="1287.961" y="343.939" fill="#E7E7E7" width="55.879" height="73.922"/>
		<rect x="1290.392" y="347.781" fill="#4EDEC2" width="50.231" height="52.462"/>
	</g>
	<polygon fill="#AEAEAE" points="1292.712,236.293 1294.352,235.747 1287.043,233.531 1282.319,232.099 1275.011,229.883 
		1276.071,231.247 1274.432,231.793 1275.492,233.157 1273.853,233.703 1274.913,235.067 1273.273,235.613 1280.582,237.83 
		1285.306,239.262 1292.614,241.478 1291.554,240.113 1293.193,239.567 1292.133,238.203 1293.772,237.657 	"/>
	<polygon fill="#AEAEAE" points="1322.293,337.416 1323.173,335.929 1316.201,339.048 1311.696,341.065 1304.725,344.184 
		1306.421,344.519 1305.54,346.006 1307.236,346.34 1306.355,347.827 1308.051,348.162 1307.171,349.649 1314.143,346.53 
		1318.647,344.514 1325.619,341.395 1323.923,341.06 1324.804,339.572 1323.107,339.238 1323.988,337.751 	"/>
	<polygon fill="#AEAEAE" points="1276.771,301.404 1278.493,301.266 1271.924,297.37 1267.68,294.852 1261.11,290.956 
		1261.814,292.534 1260.092,292.673 1260.796,294.251 1259.073,294.39 1259.778,295.968 1258.056,296.106 1264.625,300.002 
		1268.869,302.52 1275.438,306.416 1274.734,304.838 1276.457,304.699 1275.753,303.121 1277.476,302.982 	"/>
	<polygon fill="#AEAEAE" points="1223.531,365.022 1224.942,364.023 1217.305,364.023 1212.369,364.023 1204.731,364.023 
		1206.143,365.022 1204.731,366.02 1206.143,367.018 1204.731,368.016 1206.143,369.014 1204.731,370.012 1212.369,370.012 
		1217.305,370.012 1224.942,370.012 1223.531,369.014 1224.942,368.016 1223.531,367.018 1224.942,366.02 	"/>
	<g>
		<rect x="928.866" y="455.085" fill="#E7E7E7" width="82.268" height="72.91"/>
		<path fill="#3F3F3F" d="M1124.331,297.897c0-11.839-9.598-21.436-21.437-21.436H837.104c-11.838,0-21.435,9.597-21.435,21.436
			v140.039h308.662V297.897z"/>
		<path fill="#E7E7E7" d="M837.104,480.806h265.791c11.839,0,21.437-9.597,21.437-21.434v-21.436H815.669v21.436
			C815.669,471.209,825.266,480.806,837.104,480.806z"/>
		<circle fill="#E7E7E7" cx="970" cy="282.733" r="2.87"/>
		<rect x="901.412" y="527.995" fill="#E7E7E7" width="137.176" height="18.219"/>
		<circle fill="#3F3F3F" cx="970" cy="459.372" r="5.739"/>
		<g>
			<polygon fill="#4EDEC2" points="976.133,290.853 827.736,394.751 827.736,427.119 1112.263,427.119 1112.263,290.853 			"/>
			<polygon fill="#58CCB6" points="922.606,290.853 827.736,357.923 827.736,375.498 947.466,290.853 			"/>
			<polygon fill="#74CEBC" points="827.736,290.853 827.736,338.794 895.549,290.853 			"/>
			<polygon fill="#59EFD2" points="895.549,290.853 827.736,338.794 827.736,357.923 922.606,290.853 			"/>
			<polygon fill="#6CEAD2" points="947.466,290.853 827.736,375.498 827.736,394.751 976.133,290.853 			"/>
		</g>
	</g>
	<g>
		<rect x="1228.675" y="620.409" fill="#EAAB28" width="162.349" height="103.548"/>
		<g>
			<rect x="1311.118" y="621.364" fill="#FFFFFF" width="72.916" height="101.803"/>
			<g>
				<g>
					<path fill="#6E6658" d="M1314.258,638.123c-1.044,0-1.89-0.85-1.89-1.894s0.848-1.89,1.891-1.89s1.887,0.846,1.887,1.893
						C1316.144,637.275,1315.303,638.123,1314.258,638.123z"/>
					<path fill="#8A8C8E" d="M1312.717,636.708c0,0.313,0.079,0.602,0.21,0.865c-0.343-0.339-0.559-0.816-0.559-1.344
						c0-1.044,0.848-1.89,1.891-1.89c0.73,0,1.363,0.417,1.678,1.023c-0.344-0.334-0.813-0.548-1.33-0.548
						C1313.564,634.815,1312.717,635.667,1312.717,636.708z"/>
				</g>
				<g>
					<circle fill="#6E6658" cx="1314.258" cy="643.818" r="1.891"/>
					<path fill="#8A8C8E" d="M1312.717,644.295c0,0.312,0.079,0.604,0.21,0.866c-0.343-0.342-0.559-0.819-0.559-1.342
						c0-1.044,0.848-1.892,1.891-1.892c0.73,0,1.36,0.418,1.678,1.023c-0.344-0.337-0.813-0.548-1.33-0.548
						C1313.563,642.403,1312.717,643.253,1312.717,644.295z"/>
				</g>
				<g>
					<path fill="#6E6658" d="M1314.258,653.298c-1.045,0-1.891-0.851-1.891-1.892c0.001-1.046,0.846-1.891,1.891-1.891
						c1.042,0,1.886,0.848,1.886,1.891C1316.144,652.447,1315.301,653.298,1314.258,653.298z"/>
					<path fill="#8A8C8E" d="M1312.717,651.881c0,0.313,0.079,0.606,0.21,0.868c-0.344-0.343-0.559-0.817-0.56-1.343
						c0.001-1.043,0.846-1.891,1.891-1.891c0.73,0,1.361,0.417,1.677,1.026c-0.342-0.34-0.81-0.551-1.327-0.551
						C1313.563,649.991,1312.717,650.837,1312.717,651.881z"/>
				</g>
				<g>
					<path fill="#6E6658" d="M1314.257,660.885c-1.044-0.002-1.89-0.85-1.89-1.894c0-1.041,0.846-1.89,1.891-1.89
						c1.042,0,1.886,0.849,1.886,1.89C1316.144,660.036,1315.3,660.885,1314.257,660.885z"/>
					<path fill="#8A8C8E" d="M1312.716,659.469c0,0.312,0.078,0.605,0.211,0.867c-0.344-0.346-0.56-0.818-0.56-1.345
						c0-1.041,0.846-1.89,1.891-1.89c0.729,0,1.361,0.418,1.677,1.023c-0.342-0.336-0.813-0.548-1.33-0.548
						C1313.563,657.578,1312.716,658.424,1312.716,659.469z"/>
				</g>
				<g>
					<path fill="#6E6658" d="M1314.256,668.472c-1.042,0-1.888-0.847-1.888-1.892c0-1.043,0.846-1.892,1.891-1.892
						c1.042,0,1.886,0.849,1.886,1.892C1316.144,667.626,1315.3,668.472,1314.256,668.472z"/>
					<path fill="#8A8C8E" d="M1312.716,667.056c0,0.313,0.078,0.605,0.21,0.865c-0.343-0.341-0.559-0.816-0.559-1.341
						c0-1.043,0.846-1.892,1.891-1.892c0.729,0,1.361,0.419,1.677,1.027c-0.343-0.341-0.813-0.548-1.33-0.548
						C1313.563,665.169,1312.716,666.011,1312.716,667.056z"/>
				</g>
				<g>
					<path fill="#6E6658" d="M1314.256,676.059c-1.042,0-1.89-0.849-1.888-1.893c0-1.041,0.846-1.891,1.89-1.891
						c1.042,0,1.887,0.85,1.887,1.891C1316.143,675.211,1315.3,676.059,1314.256,676.059z"/>
					<path fill="#8A8C8E" d="M1312.716,674.643c0,0.311,0.078,0.604,0.208,0.865c-0.342-0.34-0.557-0.815-0.557-1.342
						c0-1.041,0.846-1.891,1.89-1.891c0.73,0,1.362,0.419,1.678,1.025c-0.343-0.34-0.813-0.548-1.33-0.548
						C1313.561,672.754,1312.716,673.599,1312.716,674.643z"/>
				</g>
				<g>
					<circle fill="#6E6658" cx="1314.256" cy="681.753" r="1.891"/>
					<path fill="#8A8C8E" d="M1312.716,682.228c-0.001,0.313,0.078,0.608,0.208,0.868c-0.342-0.34-0.559-0.817-0.559-1.342
						c0-1.045,0.846-1.891,1.89-1.891c0.731,0,1.363,0.416,1.679,1.025c-0.343-0.338-0.813-0.548-1.331-0.548
						C1313.561,680.341,1312.715,681.185,1312.716,682.228z"/>
				</g>
				<g>
					<path fill="#6E6658" d="M1314.256,691.231c-1.043,0-1.891-0.844-1.891-1.889c0.001-1.045,0.847-1.892,1.891-1.892
						c1.043,0,1.887,0.847,1.887,1.892C1316.143,690.385,1315.299,691.231,1314.256,691.231z"/>
					<path fill="#8A8C8E" d="M1312.715,689.818c0,0.313,0.079,0.604,0.209,0.867c-0.343-0.341-0.56-0.818-0.56-1.343
						c0.001-1.045,0.847-1.892,1.891-1.892c0.729,0,1.362,0.419,1.677,1.022c-0.342-0.334-0.811-0.545-1.329-0.545
						C1313.561,687.926,1312.715,688.775,1312.715,689.818z"/>
				</g>
				<g>
					<path fill="#6E6658" d="M1314.256,698.821c-1.044,0-1.891-0.849-1.891-1.891c0-1.045,0.846-1.893,1.891-1.893
						c1.043,0,1.887,0.851,1.887,1.895C1316.142,697.972,1315.299,698.821,1314.256,698.821z"/>
					<path fill="#8A8C8E" d="M1312.715,697.403c-0.002,0.313,0.078,0.606,0.209,0.87c-0.343-0.344-0.56-0.819-0.56-1.343
						c0-1.042,0.846-1.893,1.891-1.893c0.729,0,1.362,0.418,1.677,1.026c-0.342-0.34-0.811-0.548-1.33-0.548
						C1313.561,695.516,1312.713,696.362,1312.715,697.403z"/>
				</g>
				<g>
					<path fill="#6E6658" d="M1314.255,706.408c-1.043,0-1.89-0.85-1.89-1.894c0-1.041,0.846-1.889,1.891-1.889
						c1.043,0.002,1.887,0.848,1.886,1.891C1316.142,705.558,1315.299,706.408,1314.255,706.408z"/>
					<path fill="#8A8C8E" d="M1312.713,704.991c0,0.313,0.08,0.606,0.211,0.867c-0.345-0.341-0.56-0.818-0.56-1.344
						c0-1.041,0.846-1.889,1.891-1.889c0.729,0.002,1.362,0.417,1.677,1.023c-0.342-0.337-0.811-0.544-1.33-0.544
						C1313.561,703.105,1312.713,703.947,1312.713,704.991z"/>
				</g>
				<g>
					<path fill="#6E6658" d="M1314.255,713.997c-1.043,0-1.89-0.848-1.891-1.893c0.001-1.046,0.847-1.892,1.891-1.892
						c1.044,0,1.887,0.849,1.887,1.892C1316.142,713.149,1315.299,713.997,1314.255,713.997z"/>
					<path fill="#8A8C8E" d="M1312.713,712.579c0,0.314,0.079,0.606,0.209,0.868c-0.342-0.344-0.557-0.816-0.558-1.343
						c0.001-1.046,0.847-1.892,1.891-1.892c0.729,0,1.363,0.418,1.677,1.027c-0.341-0.341-0.812-0.548-1.329-0.548
						C1313.561,710.692,1312.713,711.535,1312.713,712.579z"/>
				</g>
			</g>
			<path fill="#373737" d="M1311.489,712.888h-1.748c-0.441,0-0.792-0.441-0.792-1.007c0-0.569,0.35-1.01,0.791-1.01h1.749v0.525
				h-1.748c-0.123,0-0.263,0.208-0.263,0.484c0,0.271,0.14,0.478,0.261,0.478l0,0h1.749L1311.489,712.888L1311.489,712.888z
				 M1313.236,712.888h-1.747v-0.529h1.746c0.126,0,0.268-0.206,0.268-0.478c-0.001-0.276-0.141-0.484-0.267-0.484h-1.747v-0.525
				h1.746c0.447,0,0.792,0.443,0.792,1.01C1314.03,712.447,1313.682,712.891,1313.236,712.888z"/>
			<path fill="#373737" d="M1311.49,705.353h-1.749c-0.442,0-0.792-0.442-0.792-1.01c0-0.564,0.35-1.01,0.792-1.01h1.748
				l0.001,0.528h-1.749c-0.122,0-0.263,0.205-0.262,0.481c0,0.275,0.14,0.481,0.262,0.481l0,0h1.749L1311.49,705.353
				L1311.49,705.353z M1313.236,705.353h-1.746v-0.528h1.746c0.127,0,0.267-0.206,0.267-0.481c0-0.276-0.141-0.481-0.266-0.481
				h-1.747l-0.001-0.528h1.747c0.446,0,0.792,0.445,0.792,1.01C1314.03,704.911,1313.682,705.353,1313.236,705.353z"/>
			<path fill="#373737" d="M1311.49,697.816h-1.749c-0.441,0-0.792-0.441-0.792-1.009c0.002-0.567,0.351-1.01,0.792-1.01h1.749
				v0.527h-1.749c-0.121,0-0.262,0.206-0.262,0.482s0.14,0.48,0.262,0.48l0,0h1.749V697.816z M1313.237,697.816h-1.747v-0.528h1.746
				c0.128,0,0.267-0.204,0.267-0.48s-0.14-0.482-0.266-0.482h-1.747v-0.527h1.746c0.446,0,0.794,0.442,0.794,1.01
				C1314.03,697.377,1313.682,697.816,1313.237,697.816z"/>
			<path fill="#373737" d="M1311.49,690.279h-1.749c-0.441,0-0.79-0.443-0.79-1.011c0-0.563,0.349-1.007,0.79-1.007h1.749v0.528
				l-1.747-0.002c-0.124,0-0.264,0.209-0.264,0.48c0,0.276,0.141,0.484,0.264,0.484l0,0h1.747V690.279z M1313.237,690.279h-1.747
				v-0.526h1.747c0.127,0,0.266-0.208,0.267-0.484c-0.001-0.271-0.141-0.48-0.267-0.48l-1.747,0.002v-0.528h1.747
				c0.445,0,0.793,0.443,0.794,1.007C1314.03,689.836,1313.682,690.279,1313.237,690.279z"/>
			<path fill="#373737" d="M1311.491,682.742h-1.748c-0.443,0-0.792-0.443-0.792-1.011c0-0.566,0.349-1.006,0.79-1.006h1.75v0.524
				h-1.748c-0.124,0-0.264,0.209-0.264,0.481c0,0.277,0.141,0.482,0.264,0.482l0,0h1.748L1311.491,682.742L1311.491,682.742z
				 M1313.237,682.742h-1.746v-0.528h1.746c0.127,0,0.267-0.205,0.267-0.482c-0.001-0.272-0.14-0.481-0.267-0.481h-1.746v-0.524
				h1.746c0.447,0,0.794,0.439,0.794,1.006C1314.031,682.299,1313.682,682.744,1313.237,682.742z"/>
			<path fill="#373737" d="M1311.491,675.207h-1.747c-0.442,0-0.793-0.446-0.793-1.011c0-0.567,0.349-1.01,0.792-1.01h1.749v0.528
				h-1.748c-0.125,0-0.264,0.207-0.262,0.481c-0.002,0.276,0.138,0.481,0.261,0.481l0,0h1.75L1311.491,675.207z M1313.238,675.207
				h-1.747l0.001-0.529h1.745c0.127,0,0.268-0.205,0.268-0.481c-0.001-0.274-0.141-0.481-0.266-0.481h-1.747v-0.528h1.746
				c0.447,0,0.794,0.442,0.794,1.01C1314.031,674.76,1313.682,675.207,1313.238,675.207z"/>
			<path fill="#373737" d="M1311.492,667.67h-1.748c-0.442,0-0.793-0.445-0.792-1.011c-0.001-0.566,0.35-1.01,0.792-1.01h1.747
				l0.001,0.529h-1.748c-0.125,0-0.265,0.206-0.264,0.48c0,0.274,0.14,0.48,0.264,0.48l0,0h1.748V667.67z M1313.238,667.67h-1.746
				v-0.528l1.747-0.002c0.125,0,0.265-0.206,0.265-0.48c0-0.274-0.141-0.48-0.266-0.48h-1.746l-0.001-0.529h1.748
				c0.445,0,0.792,0.443,0.792,1.01C1314.031,667.224,1313.684,667.67,1313.238,667.67z"/>
			<path fill="#373737" d="M1311.492,660.131h-1.748c-0.442,0-0.793-0.442-0.792-1.009c0-0.567,0.35-1.011,0.792-1.011h1.748v0.528
				h-1.748c-0.123,0-0.264,0.207-0.262,0.482c-0.002,0.274,0.138,0.481,0.262,0.481l0,0h1.748V660.131z M1313.239,660.131h-1.747
				v-0.527h1.747c0.127,0,0.265-0.207,0.265-0.481c0-0.275-0.138-0.482-0.265-0.482h-1.747v-0.528h1.747
				c0.445,0,0.793,0.443,0.793,1.011C1314.031,659.688,1313.685,660.132,1313.239,660.131z"/>
			<path fill="#373737" d="M1311.492,652.594h-1.748c-0.442,0-0.792-0.444-0.791-1.01c-0.001-0.567,0.349-1.007,0.791-1.007h1.748
				v0.526h-1.748c-0.123,0-0.262,0.204-0.262,0.48c0,0.274,0.139,0.482,0.262,0.482l0,0h1.748V652.594z M1313.239,652.594h-1.747
				v-0.527h1.747c0.127,0,0.265-0.208,0.265-0.482c0-0.276-0.138-0.48-0.265-0.48h-1.747v-0.528h1.747
				c0.446,0,0.793,0.441,0.794,1.009C1314.032,652.152,1313.685,652.594,1313.239,652.594z"/>
			<path fill="#373737" d="M1311.494,645.058h-1.749c-0.442,0-0.791-0.445-0.791-1.013c0-0.566,0.349-1.007,0.791-1.007h1.749v0.526
				h-1.749c-0.123,0-0.262,0.207-0.262,0.48c0,0.276,0.139,0.482,0.262,0.482l0,0h1.749V645.058z M1313.239,645.058h-1.746v-0.53
				h1.746c0.127,0,0.267-0.206,0.267-0.479c-0.001-0.277-0.139-0.484-0.267-0.484h-1.746v-0.526h1.746
				c0.446,0,0.794,0.44,0.794,1.007C1314.032,644.613,1313.685,645.058,1313.239,645.058z"/>
			<path fill="#373737" d="M1311.494,637.519h-1.747c-0.443,0-0.793-0.442-0.793-1.01c0-0.568,0.35-1.009,0.793-1.009h1.748
				l-0.001,0.528h-1.747c-0.125,0-0.263,0.207-0.265,0.48c0,0.277,0.14,0.479,0.265,0.479l0,0h1.747V637.519L1311.494,637.519z
				 M1313.24,637.519h-1.747v-0.53l1.747,0.002c0.126,0,0.266-0.204,0.266-0.481c0-0.273-0.139-0.48-0.266-0.48h-1.747l0.001-0.528
				h1.745c0.445,0,0.793,0.441,0.793,1.009C1314.033,637.079,1313.685,637.519,1313.24,637.519z"/>
			<rect x="1317.242" y="707.023" fill="#5E5E60" width="59.578" height="0.155"/>
			<rect x="1317.242" y="703.412" fill="#5E5E60" width="59.576" height="0.156"/>
			<rect x="1317.242" y="699.802" fill="#5E5E60" width="59.576" height="0.155"/>
			<rect x="1317.242" y="696.193" fill="#5E5E60" width="59.576" height="0.154"/>
			<rect x="1317.242" y="692.582" fill="#5E5E60" width="59.576" height="0.155"/>
			<rect x="1317.242" y="688.97" fill="#5E5E60" width="59.578" height="0.157"/>
			<rect x="1317.242" y="685.36" fill="#5E5E60" width="59.576" height="0.154"/>
			<rect x="1317.242" y="681.749" fill="#5E5E60" width="59.578" height="0.158"/>
			<rect x="1317.243" y="678.141" fill="#5E5E60" width="59.576" height="0.154"/>
			<rect x="1317.245" y="674.528" fill="#5E5E60" width="59.573" height="0.156"/>
			<rect x="1317.245" y="670.918" fill="#5E5E60" width="59.576" height="0.156"/>
			<rect x="1317.243" y="667.308" fill="#5E5E60" width="59.576" height="0.153"/>
			<rect x="1317.245" y="663.697" fill="#5E5E60" width="59.575" height="0.154"/>
			<rect x="1317.245" y="660.088" fill="#5E5E60" width="59.576" height="0.155"/>
			<rect x="1317.245" y="656.476" fill="#5E5E60" width="59.576" height="0.156"/>
			<rect x="1317.245" y="652.866" fill="#5E5E60" width="59.577" height="0.156"/>
			<rect x="1317.245" y="649.255" fill="#5E5E60" width="59.577" height="0.155"/>
			<rect x="1317.246" y="645.645" fill="#5E5E60" width="59.576" height="0.153"/>
			<rect x="1317.246" y="642.032" fill="#5E5E60" width="59.576" height="0.156"/>
			<rect x="1317.246" y="638.424" fill="#5E5E60" width="59.577" height="0.153"/>
			<rect x="1317.246" y="634.813" fill="#5E5E60" width="48.143" height="0.154"/>
		</g>
		<path fill="#3E587B" d="M1238.02,699.727l-1.783-0.002c-2.781,0-5.031,1.93-5.031,4.31l-0.003,14.816
			c0,2.381,2.253,4.309,5.031,4.309h1.783L1238.02,699.727z"/>
		<path fill="#FF7878" d="M1238.02,683.024h-1.783c-2.78,0-5.031,1.928-5.031,4.309v14.813c0,2.381,2.251,4.31,5.031,4.312h1.783
			V683.024z"/>
		<path fill="#F1CD6D" d="M1238.021,666.427h-1.784c-2.778-0.002-5.031,1.931-5.031,4.308l-0.001,14.817
			c0,2.378,2.251,4.308,5.031,4.308h1.783L1238.021,666.427z"/>
		<g>
			<rect x="1237.027" y="621.361" fill="#B0B0B0" width="72.917" height="101.802"/>
			<polygon fill="#FFFFFF" points="1237.025,723.16 1309.94,723.165 1309.946,621.364 1256.051,621.358 1237.029,633.691 			"/>
			<path fill="#E4E4E4" d="M1256.051,621.358c0,0-5.162,5.338-4.183,12.746c0,0-8.432-2.571-14.84-0.413L1256.051,621.358z"/>
			<g>
				<g>
					<path fill="#6E6658" d="M1306.807,638.123c1.044,0,1.893-0.85,1.891-1.894c0.002-1.044-0.847-1.89-1.891-1.89
						c-1.04,0-1.888,0.846-1.888,1.89C1304.918,637.275,1305.767,638.123,1306.807,638.123z"/>
					<path fill="#8A8C8E" d="M1308.349,636.708c0,0.313-0.08,0.602-0.211,0.865c0.343-0.341,0.562-0.816,0.56-1.344
						c0.002-1.044-0.847-1.89-1.891-1.89c-0.729,0-1.363,0.417-1.676,1.021c0.343-0.334,0.812-0.546,1.329-0.546
						C1307.502,634.815,1308.349,635.667,1308.349,636.708z"/>
				</g>
				<g>
					<path fill="#6E6658" d="M1306.806,645.709c1.044,0,1.892-0.847,1.892-1.89c0-1.044-0.847-1.892-1.891-1.892
						c-1.04,0-1.888,0.848-1.888,1.892C1304.918,644.862,1305.766,645.709,1306.806,645.709z"/>
					<path fill="#8A8C8E" d="M1308.349,644.293c0,0.313-0.08,0.606-0.211,0.868c0.343-0.342,0.56-0.819,0.56-1.342
						c0-1.044-0.847-1.892-1.891-1.892c-0.729,0-1.363,0.416-1.676,1.023c0.341-0.337,0.812-0.548,1.328-0.548
						C1307.502,642.403,1308.349,643.25,1308.349,644.293z"/>
				</g>
				<g>
					<path fill="#6E6658" d="M1306.806,653.298c1.044,0,1.892-0.851,1.892-1.892c0-1.043-0.847-1.891-1.892-1.891
						c-1.04,0-1.887,0.845-1.887,1.891C1304.918,652.447,1305.766,653.298,1306.806,653.298z"/>
					<path fill="#8A8C8E" d="M1308.349,651.881c0,0.313-0.081,0.606-0.211,0.868c0.343-0.343,0.56-0.817,0.56-1.343
						c0-1.043-0.847-1.891-1.892-1.891c-0.73,0-1.363,0.417-1.675,1.026c0.34-0.343,0.812-0.547,1.328-0.551
						C1307.502,649.991,1308.349,650.837,1308.349,651.881z"/>
				</g>
				<g>
					<path fill="#6E6658" d="M1306.806,660.883c1.043,0,1.892-0.848,1.892-1.892c0-1.041-0.848-1.89-1.892-1.89
						c-1.04,0-1.887,0.849-1.887,1.89C1304.918,660.036,1305.766,660.883,1306.806,660.883z"/>
					<path fill="#8A8C8E" d="M1308.349,659.469c0,0.312-0.081,0.605-0.211,0.867c0.343-0.346,0.56-0.818,0.56-1.345
						c0-1.041-0.848-1.89-1.892-1.89c-0.731,0-1.363,0.418-1.677,1.023c0.342-0.336,0.812-0.548,1.328-0.548
						C1307.5,657.578,1308.349,658.424,1308.349,659.469z"/>
				</g>
				<g>
					<path fill="#6E6658" d="M1306.806,668.472c1.043,0,1.89-0.847,1.89-1.892c0.001-1.043-0.847-1.892-1.89-1.892
						c-1.04,0-1.887,0.846-1.889,1.892C1304.917,667.626,1305.764,668.472,1306.806,668.472z"/>
					<path fill="#8A8C8E" d="M1308.349,667.053c-0.001,0.316-0.081,0.608-0.211,0.868c0.341-0.341,0.558-0.816,0.558-1.341
						c0.001-1.043-0.847-1.892-1.89-1.892c-0.731,0-1.363,0.416-1.677,1.024c0.342-0.338,0.811-0.545,1.328-0.545
						C1307.5,665.169,1308.348,666.011,1308.349,667.053z"/>
				</g>
				<g>
					<path fill="#6E6658" d="M1306.806,676.059c1.043,0,1.89-0.849,1.89-1.893s-0.847-1.891-1.89-1.891s-1.889,0.847-1.889,1.891
						S1305.764,676.059,1306.806,676.059z"/>
					<path fill="#8A8C8E" d="M1308.348,674.643c0,0.311-0.08,0.604-0.21,0.865c0.341-0.34,0.558-0.815,0.558-1.342
						c0-1.044-0.847-1.891-1.89-1.891c-0.731,0-1.363,0.419-1.678,1.025c0.341-0.34,0.812-0.548,1.329-0.548
						C1307.499,672.754,1308.348,673.599,1308.348,674.643z"/>
				</g>
				<g>
					<path fill="#6E6658" d="M1306.804,683.644c1.045,0,1.892-0.847,1.892-1.89c0-1.045-0.847-1.893-1.892-1.893
						c-1.042,0-1.887,0.848-1.887,1.893C1304.917,682.798,1305.763,683.644,1306.804,683.644z"/>
					<path fill="#8A8C8E" d="M1308.348,682.228c0,0.313-0.081,0.608-0.21,0.868c0.341-0.34,0.558-0.817,0.558-1.342
						c0-1.045-0.847-1.893-1.892-1.893c-0.731,0-1.361,0.418-1.677,1.027c0.341-0.338,0.812-0.548,1.328-0.548
						C1307.499,680.341,1308.348,681.185,1308.348,682.228z"/>
				</g>
				<g>
					<path fill="#6E6658" d="M1306.803,691.231c1.044,0,1.893-0.846,1.893-1.889c0-1.045-0.847-1.892-1.892-1.892
						c-1.042,0-1.887,0.847-1.888,1.892C1304.917,690.385,1305.763,691.231,1306.803,691.231z"/>
					<path fill="#8A8C8E" d="M1308.348,689.818c-0.003,0.313-0.081,0.604-0.21,0.867c0.34-0.341,0.558-0.818,0.558-1.343
						c0-1.045-0.847-1.892-1.892-1.892c-0.731,0-1.364,0.419-1.677,1.022c0.341-0.336,0.812-0.545,1.328-0.547
						C1307.499,687.926,1308.348,688.775,1308.348,689.818z"/>
				</g>
				<g>
					<path fill="#6E6658" d="M1306.803,698.821c1.044,0,1.893-0.851,1.892-1.891c0.001-1.045-0.847-1.893-1.892-1.893
						c-1.041,0-1.887,0.851-1.888,1.893C1304.915,697.972,1305.763,698.821,1306.803,698.821z"/>
					<path fill="#8A8C8E" d="M1308.345,697.403c0,0.313-0.078,0.606-0.211,0.868c0.343-0.342,0.562-0.817,0.561-1.341
						c0.001-1.042-0.848-1.893-1.893-1.893c-0.729,0-1.362,0.418-1.676,1.026c0.342-0.34,0.812-0.548,1.328-0.548
						C1307.499,695.516,1308.345,696.362,1308.345,697.403z"/>
				</g>
				<g>
					<path fill="#6E6658" d="M1306.803,706.406c1.044,0,1.892-0.848,1.892-1.892c0-1.041-0.847-1.889-1.892-1.889
						c-1.042,0-1.888,0.848-1.888,1.889C1304.915,705.558,1305.762,706.406,1306.803,706.406z"/>
					<path fill="#8A8C8E" d="M1308.345,704.991c0,0.313-0.079,0.606-0.211,0.867c0.343-0.339,0.561-0.818,0.561-1.344
						c0-1.041-0.848-1.889-1.893-1.889c-0.729,0-1.362,0.415-1.676,1.023c0.342-0.337,0.812-0.544,1.328-0.544
						C1307.498,703.105,1308.345,703.945,1308.345,704.991z"/>
				</g>
				<g>
					<path fill="#6E6658" d="M1306.803,713.997c1.043,0,1.892-0.848,1.889-1.893c0.002-1.046-0.845-1.892-1.889-1.892
						c-1.042,0-1.888,0.846-1.888,1.892C1304.915,713.149,1305.762,713.997,1306.803,713.997z"/>
					<path fill="#8A8C8E" d="M1308.345,712.579c0,0.314-0.079,0.606-0.21,0.868c0.342-0.344,0.56-0.816,0.558-1.343
						c0.002-1.046-0.845-1.892-1.889-1.892c-0.73,0-1.363,0.415-1.678,1.027c0.342-0.341,0.813-0.548,1.331-0.548
						C1307.498,710.692,1308.345,711.535,1308.345,712.579z"/>
				</g>
			</g>
			<path fill="#373737" d="M1307.028,711.882c0.002-0.569,0.348-1.01,0.794-1.01h1.745v0.525h-1.745
				c-0.125,0-0.267,0.208-0.267,0.484c0,0.271,0.141,0.478,0.267,0.478h1.745v0.529h-1.745
				C1307.378,712.888,1307.03,712.444,1307.028,711.882z M1309.567,710.872h1.748c0.443,0,0.793,0.44,0.793,1.01
				c0,0.563-0.35,1.007-0.793,1.007h-1.748v-0.529h1.748c0.125,0,0.263-0.206,0.263-0.478l0,0c0-0.276-0.138-0.484-0.263-0.484
				h-1.748V710.872L1309.567,710.872z"/>
			<path fill="#373737" d="M1307.03,704.343c0-0.564,0.348-1.01,0.793-1.01h1.744l0.001,0.528h-1.747
				c-0.125,0-0.267,0.205-0.267,0.481c0.002,0.275,0.142,0.481,0.268,0.481h1.744v0.528h-1.745
				C1307.378,705.353,1307.03,704.911,1307.03,704.343z M1309.567,703.334h1.748c0.443,0,0.793,0.443,0.793,1.01
				c0,0.565-0.35,1.008-0.791,1.008h-1.75v-0.526h1.748c0.125,0,0.264-0.208,0.264-0.481l0,0c-0.001-0.276-0.141-0.481-0.264-0.481
				h-1.747L1309.567,703.334z"/>
			<path fill="#373737" d="M1307.03,696.804c0-0.564,0.348-1.007,0.793-1.007h1.746v0.527h-1.746c-0.126,0-0.265,0.206-0.268,0.482
				c0.002,0.276,0.142,0.48,0.268,0.48h1.744l0.001,0.528h-1.746C1307.378,697.816,1307.03,697.371,1307.03,696.804z
				 M1309.569,695.798h1.749c0.441,0,0.792,0.442,0.792,1.007c0,0.57-0.35,1.01-0.792,1.01h-1.749l-0.001-0.526h1.75
				c0.122,0,0.263-0.204,0.263-0.483l0,0c-0.003-0.273-0.141-0.479-0.263-0.479h-1.749V695.798z"/>
			<path fill="#373737" d="M1307.03,689.268c0-0.563,0.348-1.007,0.793-1.007h1.746v0.526h-1.746c-0.126,0-0.265,0.209-0.265,0.48
				c0,0.276,0.14,0.484,0.265,0.484h1.746v0.526h-1.744C1307.378,690.279,1307.03,689.836,1307.03,689.268z M1309.569,688.261h1.749
				c0.442,0,0.792,0.443,0.792,1.007c0,0.567-0.35,1.011-0.792,1.011h-1.749v-0.529h1.749c0.122,0,0.263-0.205,0.263-0.481l0,0
				c0-0.271-0.141-0.48-0.263-0.48h-1.749V688.261z"/>
			<path fill="#373737" d="M1307.03,681.731c0-0.566,0.35-1.008,0.794-1.008h1.744v0.526h-1.744c-0.127,0-0.266,0.209-0.266,0.481
				c0,0.277,0.141,0.482,0.266,0.482h1.744v0.528h-1.744C1307.38,682.742,1307.03,682.299,1307.03,681.731z M1309.569,680.723h1.749
				c0.442,0,0.792,0.441,0.792,1.008c0,0.567-0.35,1.011-0.792,1.011h-1.749v-0.528h1.749c0.125,0,0.263-0.205,0.263-0.482l0,0
				c0-0.272-0.139-0.481-0.263-0.481h-1.749V680.723z"/>
			<path fill="#373737" d="M1307.03,674.196c0-0.567,0.35-1.01,0.794-1.01h1.744l0.001,0.528h-1.744
				c-0.125,0-0.267,0.205-0.267,0.481s0.141,0.479,0.266,0.479h1.744l0.001,0.531l-1.744-0.004
				C1307.38,675.207,1307.03,674.76,1307.03,674.196z M1309.569,673.186h1.749c0.442,0,0.793,0.442,0.793,1.01
				c-0.001,0.564-0.35,1.011-0.793,1.011h-1.748l-0.001-0.529h1.749c0.125,0,0.264-0.205,0.264-0.481l0,0
				c-0.001-0.276-0.14-0.481-0.264-0.481h-1.748L1309.569,673.186z"/>
			<path fill="#373737" d="M1307.032,666.659c-0.002-0.566,0.348-1.01,0.793-1.01h1.744v0.529h-1.744
				c-0.125,0-0.267,0.202-0.267,0.48c0,0.274,0.141,0.48,0.266,0.48h1.745v0.53h-1.744
				C1307.38,667.67,1307.03,667.224,1307.032,666.659z M1309.57,665.649h1.748c0.445,0,0.793,0.443,0.793,1.01
				c0,0.565-0.35,1.011-0.793,1.011h-1.748v-0.53h1.748c0.125,0,0.264-0.206,0.264-0.48l0,0c0-0.274-0.14-0.48-0.264-0.48h-1.748
				V665.649z"/>
			<path fill="#373737" d="M1307.032,659.122c0-0.567,0.348-1.011,0.793-1.011h1.744v0.528h-1.744c-0.125,0-0.267,0.207-0.267,0.482
				c0,0.274,0.141,0.481,0.267,0.481h1.744v0.527h-1.744C1307.38,660.131,1307.03,659.688,1307.032,659.122z M1309.57,658.111h1.748
				c0.445,0,0.793,0.443,0.793,1.011c0,0.566-0.349,1.009-0.793,1.009h-1.748v-0.527h1.748c0.125,0,0.264-0.207,0.264-0.481l0,0
				c0-0.275-0.14-0.482-0.264-0.482h-1.748V658.111z"/>
			<path fill="#373737" d="M1307.032,651.585c0-0.567,0.348-1.009,0.794-1.009h1.743v0.528h-1.743c-0.126,0-0.268,0.204-0.266,0.48
				c-0.002,0.274,0.139,0.479,0.266,0.479l1.743,0.004v0.527h-1.743C1307.38,652.594,1307.032,652.15,1307.032,651.585z
				 M1309.57,650.578h1.748c0.445,0,0.793,0.439,0.793,1.007c0,0.565-0.349,1.01-0.793,1.01h-1.748v-0.527h1.748
				c0.125,0,0.264-0.208,0.264-0.482l0,0c0-0.276-0.14-0.48-0.264-0.48h-1.748V650.578z"/>
			<path fill="#373737" d="M1307.032,644.046c0-0.566,0.348-1.007,0.794-1.007h1.743v0.526h-1.743c-0.126,0-0.268,0.204-0.266,0.48
				c0,0.276,0.139,0.482,0.266,0.482h1.743v0.53h-1.743C1307.382,645.058,1307.032,644.613,1307.032,644.046z M1309.57,643.039
				h1.751c0.442,0,0.791,0.44,0.791,1.007c0,0.567-0.349,1.011-0.793,1.011h-1.748v-0.529h1.751c0.125,0,0.261-0.206,0.261-0.482
				l0,0c0-0.276-0.137-0.48-0.261-0.48h-1.751L1309.57,643.039L1309.57,643.039z"/>
			<path fill="#373737" d="M1307.032,636.509c0-0.567,0.35-1.009,0.794-1.009h1.744v0.528h-1.744c-0.125,0-0.266,0.207-0.266,0.48
				c0,0.277,0.139,0.479,0.266,0.479h1.744v0.53h-1.744C1307.382,637.519,1307.032,637.077,1307.032,636.509z M1309.571,635.501
				h1.75c0.444,0,0.792,0.441,0.792,1.009c-0.001,0.567-0.347,1.01-0.792,1.01h-1.75v-0.53h1.75c0.125,0,0.262-0.202,0.262-0.479
				l0,0c0-0.273-0.138-0.48-0.262-0.48h-1.75V635.501z"/>
			<rect x="1244.24" y="707.018" fill="#5E5E60" width="59.576" height="0.157"/>
			<rect x="1244.24" y="703.409" fill="#5E5E60" width="59.576" height="0.154"/>
			<rect x="1244.239" y="699.799" fill="#5E5E60" width="59.578" height="0.155"/>
			<rect x="1244.241" y="696.191" fill="#5E5E60" width="59.576" height="0.151"/>
			<rect x="1244.241" y="692.577" fill="#5E5E60" width="59.576" height="0.156"/>
			<rect x="1244.241" y="688.965" fill="#5E5E60" width="59.576" height="0.157"/>
			<rect x="1244.24" y="685.358" fill="#5E5E60" width="59.577" height="0.153"/>
			<rect x="1244.241" y="681.745" fill="#5E5E60" width="59.576" height="0.156"/>
			<rect x="1244.242" y="678.135" fill="#5E5E60" width="59.575" height="0.153"/>
			<rect x="1244.242" y="674.525" fill="#5E5E60" width="59.575" height="0.154"/>
			<rect x="1244.242" y="670.916" fill="#5E5E60" width="59.575" height="0.153"/>
			<rect x="1244.242" y="667.302" fill="#5E5E60" width="59.575" height="0.156"/>
			<rect x="1244.242" y="663.693" fill="#5E5E60" width="59.578" height="0.154"/>
			<rect x="1244.242" y="660.081" fill="#5E5E60" width="59.575" height="0.159"/>
			<rect x="1244.242" y="656.471" fill="#5E5E60" width="59.578" height="0.156"/>
			<rect x="1244.242" y="652.862" fill="#5E5E60" width="59.578" height="0.153"/>
			<rect x="1244.242" y="649.253" fill="#5E5E60" width="59.578" height="0.151"/>
			<rect x="1244.242" y="645.641" fill="#5E5E60" width="59.578" height="0.155"/>
			<rect x="1244.243" y="642.028" fill="#5E5E60" width="59.577" height="0.157"/>
			<rect x="1244.243" y="638.42" fill="#5E5E60" width="59.577" height="0.153"/>
			<rect x="1255.679" y="634.81" fill="#5E5E60" width="48.141" height="0.155"/>
		</g>
	</g>
	<g>
		<path fill="#FFFFFF" d="M1037.442,536.598c20.797-8.062,47.367-13.5,69.969-12.242c4.923,0.276,9.66,0.866,14.114,1.818v1.868
			c-4.469-0.979-9.24-1.584-14.212-1.861c-22.344-1.245-48.634,4.139-69.216,12.116L1037.442,536.598L1037.442,536.598z
			 M1121.518,625.133c-1.352,0.46-2.693,0.793-4.016,1.008c-7.944,1.289-15.191-1.708-20.047-6.805
			c-4.86-5.106-7.323-12.33-5.69-19.5c1.948-8.567,9.738-17.018,26.283-21.537c1.182-0.323,2.341-0.606,3.47-0.846v1.87
			c-0.975,0.214-1.975,0.462-2.993,0.738c-15.775,4.312-23.17,12.212-24.982,20.179c-1.489,6.539,0.776,13.151,5.235,17.836
			c4.463,4.693,11.133,7.448,18.429,6.266c1.416-0.229,2.857-0.606,4.31-1.144L1121.518,625.133L1121.518,625.133z
			 M1121.523,526.174c6.854,1.463,13.031,3.777,18.181,7.094c8.581,5.527,14.281,13.81,15.452,25.534
			c0.696,6.974-0.22,15.163-3.102,24.708c1.438,1.249,2.77,2.64,3.994,4.158c4.062,5.028,6.964,11.436,8.93,18.627
			c6.027,22.072,3.279,51.688-1.589,71.386l-1.833,8.608l-1.103-3.417l1.163-5.632c4.813-19.469,7.534-48.721,1.592-70.469
			c-1.9-6.965-4.689-13.144-8.581-17.959c-0.983-1.224-2.038-2.353-3.174-3.391c-0.716,2.223-1.534,4.515-2.465,6.88
			c-7.788,19.82-17.903,29.56-27.474,32.831v-1.935c8.933-3.31,18.37-12.722,25.774-31.563c1.017-2.592,1.901-5.087,2.662-7.498
			c-2.97-2.363-6.415-4.106-10.384-5.089c-5.095-1.259-11.072-1.269-18.047,0.274v-1.87c7.093-1.521,13.219-1.477,18.484-0.179
			c3.989,0.987,7.479,2.696,10.516,4.994c2.639-8.998,3.479-16.714,2.82-23.279c-1.106-11.112-6.504-18.955-14.622-24.186
			c-4.862-3.134-10.706-5.343-17.196-6.762v-1.865H1121.523z"/>
		<g>
			<path fill="#E4E4E4" d="M1147.825,681.451c-2.83-14.762,4.021-28.484,15.3-30.646c11.281-2.162,22.722,8.053,25.549,22.814
				c2.834,14.763-4.018,28.483-15.296,30.646C1162.096,706.429,1150.656,696.214,1147.825,681.451z"/>
			<path fill="#FFFFFF" d="M1163.443,652.346c9.34-1.792,18.814,6.666,21.158,18.893c2.343,12.225-3.331,23.586-12.672,25.375
				c-9.34,1.796-18.813-6.666-21.156-18.889C1148.429,665.499,1154.103,654.135,1163.443,652.346z"/>
			<path fill="#4E4E4E" d="M1163.148,650.805c0.144-0.026,0.29-0.054,0.434-0.075l2.68,13.955l-0.87,0.167l-2.677-13.955
				C1162.858,650.864,1163.003,650.833,1163.148,650.805z"/>
			<path fill="#4E4E4E" d="M1162.258,654.713l3.164-0.607c0.715-0.135,1.409,0.335,1.543,1.047l2.765,14.409
				c0.134,0.712-0.334,1.406-1.049,1.54l-3.167,0.609c-0.712,0.139-1.403-0.333-1.54-1.047l-2.766-14.407
				C1161.072,655.543,1161.543,654.851,1162.258,654.713z"/>
			<path fill="#B0B0B0" d="M1163.161,655.592l1.747-0.335c0.39-0.076,0.771,0.184,0.847,0.576l2.597,13.543
				c0.075,0.393-0.186,0.774-0.577,0.851l-1.743,0.333c-0.392,0.075-0.772-0.185-0.848-0.575l-2.597-13.544
				C1162.511,656.049,1162.768,655.665,1163.161,655.592z"/>
		</g>
	</g>
	<g id="keyboard">
		<path fill="#FFFFFF" d="M1103.075,582.945c0-1.757-1.54-3.201-3.415-3.201H842.234c-1.876,0-3.41,1.444-3.41,3.201v94.591
			c0,1.758,1.534,3.202,3.41,3.202h257.426c1.875,0,3.415-1.444,3.415-3.202V582.945L1103.075,582.945z"/>
		<g>
			<path fill="#AEAEAE" d="M859.807,601.571c0,0.458-0.372,0.834-0.831,0.834h-12.718c-0.462,0-0.833-0.376-0.833-0.834v-12.714
				c0-0.462,0.37-0.835,0.833-0.835h12.718c0.459,0,0.831,0.373,0.831,0.835V601.571z"/>
			<path fill="#AEAEAE" d="M886.167,619.081c0,0.465-0.367,0.841-0.833,0.841h-12.719c-0.457,0-0.828-0.376-0.828-0.841v-12.718
				c0-0.453,0.371-0.826,0.828-0.826h12.719c0.465,0,0.833,0.373,0.833,0.826V619.081z"/>
			<path fill="#AEAEAE" d="M890.316,636.599c0,0.465-0.374,0.832-0.831,0.832h-12.722c-0.449,0-0.832-0.367-0.832-0.832v-12.725
				c0-0.445,0.382-0.822,0.832-0.822h12.722c0.458,0,0.831,0.377,0.831,0.822L890.316,636.599L890.316,636.599z"/>
			<path fill="#AEAEAE" d="M881.742,654.113c0,0.458-0.374,0.834-0.83,0.834H868.19c-0.45,0-0.826-0.376-0.826-0.834v-12.718
				c0-0.454,0.376-0.832,0.826-0.832h12.721c0.457,0,0.83,0.378,0.83,0.832v12.718H881.742z"/>
			<path fill="#AEAEAE" d="M859.807,673.84c0,0.459-0.372,0.828-0.831,0.828h-12.718c-0.462,0-0.833-0.369-0.833-0.828v-14.934
				c0-0.45,0.37-0.828,0.833-0.828h12.718c0.459,0,0.831,0.378,0.831,0.828V673.84z"/>
			<path fill="#AEAEAE" d="M877.271,673.84c0,0.459-0.375,0.828-0.832,0.828h-12.716c-0.455,0-0.831-0.369-0.831-0.828v-14.934
				c0-0.45,0.375-0.828,0.831-0.828h12.716c0.457,0,0.832,0.378,0.832,0.828V673.84z"/>
			<path fill="#AEAEAE" d="M894.74,673.84c0,0.459-0.375,0.828-0.833,0.828H881.19c-0.458,0-0.83-0.369-0.83-0.828v-14.934
				c0-0.45,0.372-0.828,0.83-0.828h12.717c0.458,0,0.833,0.378,0.833,0.828V673.84L894.74,673.84z"/>
			<path fill="#AEAEAE" d="M1043.933,673.84c0,0.459-0.382,0.828-0.836,0.828h-12.722c-0.454,0-0.826-0.369-0.826-0.828v-14.934
				c0-0.45,0.373-0.828,0.826-0.828h12.722c0.454,0,0.836,0.378,0.836,0.828V673.84z"/>
			<path fill="#AEAEAE" d="M1061.44,673.84c0,0.459-0.374,0.828-0.831,0.828h-12.714c-0.462,0-0.837-0.369-0.837-0.828v-6.637
				c0-0.455,0.375-0.832,0.837-0.832h12.714c0.457,0,0.831,0.377,0.831,0.832V673.84z"/>
			<path fill="#AEAEAE" d="M1096.468,673.84c0,0.459-0.373,0.828-0.834,0.828h-12.716c-0.454,0-0.835-0.369-0.835-0.828v-6.637
				c0-0.455,0.381-0.832,0.835-0.832h12.716c0.461,0,0.834,0.377,0.834,0.832V673.84z"/>
			<path fill="#AEAEAE" d="M916.766,673.84c0,0.459-0.372,0.828-0.824,0.828h-17.289c-0.456,0-0.824-0.369-0.824-0.828v-14.934
				c0-0.45,0.369-0.828,0.824-0.828h17.289c0.453,0,0.824,0.378,0.824,0.828V673.84z"/>
			<path fill="#AEAEAE" d="M1026.416,673.84c0,0.459-0.371,0.828-0.834,0.828h-17.28c-0.454,0-0.835-0.369-0.835-0.828v-14.934
				c0-0.45,0.381-0.828,0.835-0.828h17.28c0.462,0,0.834,0.378,0.834,0.828V673.84L1026.416,673.84z"/>
			<path fill="#AEAEAE" d="M1004.341,673.84c0,0.459-0.38,0.828-0.839,0.828h-82.769c-0.452,0-0.835-0.369-0.835-0.828v-14.934
				c0-0.45,0.383-0.828,0.835-0.828h82.769c0.459,0,0.839,0.378,0.839,0.828V673.84z"/>
			<path fill="#AEAEAE" d="M899.253,654.113c0,0.458-0.37,0.834-0.826,0.834h-12.723c-0.449,0-0.828-0.376-0.828-0.834v-12.718
				c0-0.454,0.378-0.832,0.828-0.832h12.723c0.457,0,0.826,0.378,0.826,0.832V654.113z"/>
			<path fill="#AEAEAE" d="M916.766,654.113c0,0.458-0.372,0.834-0.824,0.834h-12.721c-0.458,0-0.831-0.376-0.831-0.834v-12.718
				c0-0.454,0.372-0.832,0.831-0.832h12.721c0.453,0,0.824,0.378,0.824,0.832V654.113z"/>
			<path fill="#AEAEAE" d="M934.283,654.113c0,0.458-0.371,0.834-0.833,0.834h-12.717c-0.452,0-0.833-0.376-0.833-0.834v-12.718
				c0-0.454,0.381-0.832,0.833-0.832h12.717c0.461,0,0.833,0.378,0.833,0.832V654.113z"/>
			<path fill="#AEAEAE" d="M951.793,654.113c0,0.458-0.374,0.834-0.824,0.834h-12.718c-0.458,0-0.835-0.376-0.835-0.834v-12.718
				c0-0.454,0.377-0.832,0.835-0.832h12.718c0.45,0,0.824,0.378,0.824,0.832V654.113z"/>
			<path fill="#AEAEAE" d="M969.31,654.113c0,0.458-0.375,0.834-0.83,0.834h-12.72c-0.453,0-0.826-0.376-0.826-0.834v-12.718
				c0-0.454,0.373-0.832,0.826-0.832h12.719c0.455,0,0.83,0.378,0.83,0.832v12.718H969.31z"/>
			<path fill="#AEAEAE" d="M986.823,654.113c0,0.458-0.371,0.834-0.828,0.834h-12.722c-0.458,0-0.832-0.376-0.832-0.834v-12.718
				c0-0.454,0.374-0.832,0.832-0.832h12.722c0.457,0,0.828,0.378,0.828,0.832V654.113z"/>
			<path fill="#AEAEAE" d="M1004.341,654.113c0,0.458-0.38,0.834-0.839,0.834h-12.714c-0.458,0-0.83-0.376-0.83-0.834v-12.718
				c0-0.454,0.372-0.832,0.83-0.832h12.714c0.459,0,0.839,0.378,0.839,0.832V654.113z"/>
			<path fill="#AEAEAE" d="M1021.853,654.113c0,0.458-0.374,0.834-0.835,0.834h-12.716c-0.454,0-0.835-0.376-0.835-0.834v-12.718
				c0-0.454,0.381-0.832,0.835-0.832h12.716c0.459,0,0.833,0.378,0.833,0.832v12.718H1021.853z"/>
			<path fill="#AEAEAE" d="M1039.362,654.113c0,0.458-0.366,0.834-0.826,0.834h-12.723c-0.457,0-0.831-0.376-0.831-0.834v-12.718
				c0-0.454,0.374-0.832,0.831-0.832h12.723c0.46,0,0.826,0.378,0.826,0.832V654.113z"/>
			<path fill="#AEAEAE" d="M1056.877,654.113c0,0.458-0.375,0.834-0.831,0.834h-12.716c-0.459,0-0.832-0.376-0.832-0.834v-12.718
				c0-0.454,0.373-0.832,0.832-0.832h12.716c0.457,0,0.831,0.378,0.831,0.832V654.113z"/>
			<path fill="#AEAEAE" d="M1096.326,654.113c0,0.458-0.371,0.834-0.832,0.834h-34.652c-0.457,0-0.833-0.376-0.833-0.834v-12.718
				c0-0.454,0.376-0.832,0.833-0.832h34.652c0.461,0,0.832,0.378,0.832,0.832V654.113z"/>
			<path fill="#AEAEAE" d="M907.826,636.599c0,0.465-0.366,0.832-0.825,0.832h-12.727c-0.453,0-0.825-0.367-0.825-0.832v-12.725
				c0-0.445,0.373-0.822,0.825-0.822h12.727c0.459,0,0.825,0.377,0.825,0.822V636.599z"/>
			<path fill="#AEAEAE" d="M925.342,636.599c0,0.465-0.373,0.832-0.831,0.832h-12.72c-0.455,0-0.824-0.367-0.824-0.832v-12.725
				c0-0.445,0.369-0.822,0.824-0.822h12.72c0.458,0,0.831,0.377,0.831,0.822V636.599z"/>
			<path fill="#AEAEAE" d="M942.851,636.599c0,0.465-0.365,0.832-0.825,0.832h-12.721c-0.458,0-0.83-0.367-0.83-0.832v-12.725
				c0-0.445,0.373-0.822,0.83-0.822h12.721c0.459,0,0.825,0.377,0.825,0.822V636.599z"/>
			<path fill="#AEAEAE" d="M960.368,636.599c0,0.465-0.374,0.832-0.826,0.832h-12.727c-0.451,0-0.824-0.367-0.824-0.832v-12.725
				c0-0.445,0.373-0.822,0.824-0.822h12.727c0.453,0,0.826,0.377,0.826,0.822V636.599z"/>
			<path fill="#AEAEAE" d="M977.883,636.599c0,0.465-0.376,0.832-0.83,0.832h-12.72c-0.451,0-0.832-0.367-0.832-0.832v-12.725
				c0-0.445,0.381-0.822,0.832-0.822h12.72c0.454,0,0.83,0.377,0.83,0.822V636.599z"/>
			<path fill="#AEAEAE" d="M995.395,636.599c0,0.465-0.374,0.832-0.831,0.832h-12.717c-0.457,0-0.828-0.367-0.828-0.832v-12.725
				c0-0.445,0.372-0.822,0.828-0.822h12.717c0.457,0,0.831,0.377,0.831,0.822V636.599z"/>
			<path fill="#AEAEAE" d="M1012.906,636.599c0,0.465-0.369,0.832-0.829,0.832H999.36c-0.461,0-0.832-0.367-0.832-0.832v-12.725
				c0-0.445,0.371-0.822,0.832-0.822h12.717c0.46,0,0.829,0.377,0.829,0.822V636.599z"/>
			<path fill="#AEAEAE" d="M1030.423,636.599c0,0.465-0.374,0.832-0.828,0.832h-12.724c-0.454,0-0.828-0.367-0.828-0.832v-12.725
				c0-0.445,0.374-0.822,0.828-0.822h12.724c0.454,0,0.828,0.377,0.828,0.822V636.599z"/>
			<path fill="#AEAEAE" d="M1047.938,636.599c0,0.465-0.372,0.832-0.829,0.832h-12.725c-0.459,0-0.827-0.367-0.827-0.832v-12.725
				c0-0.445,0.368-0.822,0.827-0.822h12.725c0.457,0,0.829,0.377,0.829,0.822V636.599z"/>
			<path fill="#AEAEAE" d="M1065.448,636.599c0,0.465-0.372,0.832-0.827,0.832h-12.717c-0.462,0-0.834-0.367-0.834-0.832v-12.725
				c0-0.445,0.372-0.822,0.834-0.822h12.717c0.455,0,0.827,0.377,0.827,0.822V636.599z"/>
			<path fill="#AEAEAE" d="M1082.962,636.599c0,0.465-0.373,0.832-0.828,0.832h-12.725c-0.457,0-0.825-0.367-0.825-0.832v-12.725
				c0-0.445,0.368-0.822,0.825-0.822h12.725c0.455,0,0.828,0.377,0.828,0.822V636.599z"/>
			<path fill="#AEAEAE" d="M903.681,619.081c0,0.465-0.374,0.841-0.833,0.841h-12.717c-0.455,0-0.831-0.376-0.831-0.841v-12.718
				c0-0.453,0.376-0.826,0.831-0.826h12.717c0.46,0,0.833,0.373,0.833,0.826V619.081z"/>
			<path fill="#AEAEAE" d="M921.194,619.081c0,0.465-0.374,0.841-0.832,0.841h-12.721c-0.452,0-0.826-0.376-0.826-0.841v-12.718
				c0-0.453,0.375-0.826,0.826-0.826h12.721c0.46,0,0.832,0.373,0.832,0.826V619.081z"/>
			<path fill="#AEAEAE" d="M938.708,619.081c0,0.465-0.373,0.841-0.832,0.841h-12.721c-0.45,0-0.822-0.376-0.822-0.841v-12.718
				c0-0.453,0.373-0.826,0.822-0.826h12.721c0.458,0,0.832,0.373,0.832,0.826V619.081z"/>
			<path fill="#AEAEAE" d="M956.218,619.081c0,0.465-0.375,0.841-0.826,0.841h-12.721c-0.458,0-0.829-0.376-0.829-0.841v-12.718
				c0-0.453,0.371-0.826,0.829-0.826h12.721c0.451,0,0.826,0.373,0.826,0.826V619.081z"/>
			<path fill="#AEAEAE" d="M973.733,619.081c0,0.465-0.373,0.841-0.831,0.841h-12.719c-0.456,0-0.826-0.376-0.826-0.841v-12.718
				c0-0.453,0.371-0.826,0.826-0.826h12.719c0.459,0,0.831,0.373,0.831,0.826V619.081L973.733,619.081z"/>
			<path fill="#AEAEAE" d="M991.244,619.081c0,0.465-0.368,0.841-0.826,0.841h-12.724c-0.457,0-0.829-0.376-0.829-0.841v-12.718
				c0-0.453,0.372-0.826,0.829-0.826h12.724c0.458,0,0.826,0.373,0.826,0.826V619.081z"/>
			<path fill="#AEAEAE" d="M1008.758,619.081c0,0.465-0.368,0.841-0.828,0.841h-12.724c-0.451,0-0.824-0.376-0.824-0.841v-12.718
				c0-0.453,0.373-0.826,0.824-0.826h12.724c0.46,0,0.828,0.373,0.828,0.826V619.081z"/>
			<path fill="#AEAEAE" d="M1026.278,619.081c0,0.465-0.374,0.841-0.837,0.841h-12.719c-0.457,0-0.829-0.376-0.829-0.841v-12.718
				c0-0.453,0.372-0.826,0.829-0.826h12.719c0.463,0,0.837,0.373,0.837,0.826V619.081z"/>
			<path fill="#AEAEAE" d="M1043.785,619.081c0,0.465-0.374,0.841-0.825,0.841h-12.721c-0.461,0-0.83-0.376-0.83-0.841v-12.718
				c0-0.453,0.369-0.826,0.83-0.826h12.721c0.451,0,0.825,0.373,0.825,0.826V619.081z"/>
			<path fill="#AEAEAE" d="M1061.301,619.081c0,0.465-0.372,0.841-0.832,0.841h-12.721c-0.45,0-0.824-0.376-0.824-0.841v-12.718
				c0-0.453,0.374-0.826,0.824-0.826h12.721c0.46,0,0.832,0.373,0.832,0.826V619.081z"/>
			<path fill="#AEAEAE" d="M1078.814,619.081c0,0.465-0.374,0.841-0.829,0.841h-12.718c-0.463,0-0.832-0.376-0.832-0.841v-12.718
				c0-0.453,0.371-0.826,0.832-0.826h12.718c0.455,0,0.829,0.373,0.829,0.826V619.081z"/>
			<path fill="#AEAEAE" d="M868.656,619.081c0,0.465-0.374,0.841-0.832,0.841h-21.566c-0.462,0-0.833-0.376-0.833-0.841v-12.718
				c0-0.453,0.37-0.826,0.833-0.826h21.566c0.458,0,0.832,0.373,0.832,0.826V619.081z"/>
			<path fill="#AEAEAE" d="M1096.326,601.571c0,0.458-0.371,0.834-0.832,0.834h-21.566c-0.45,0-0.826-0.376-0.826-0.834v-12.714
				c0-0.462,0.376-0.835,0.826-0.835h21.566c0.461,0,0.832,0.373,0.832,0.835V601.571z"/>
			<path fill="#AEAEAE" d="M872.8,636.599c0,0.465-0.371,0.832-0.831,0.832h-25.71c-0.462,0-0.833-0.367-0.833-0.832v-12.725
				c0-0.445,0.37-0.822,0.833-0.822h25.71c0.46,0,0.831,0.377,0.831,0.822V636.599z"/>
			<path fill="#AEAEAE" d="M864.233,654.113c0,0.458-0.375,0.834-0.833,0.834h-17.142c-0.462,0-0.833-0.376-0.833-0.834v-12.718
				c0-0.454,0.37-0.832,0.833-0.832H863.4c0.458,0,0.833,0.378,0.833,0.832V654.113z"/>
			<path fill="#AEAEAE" d="M877.317,601.571c0,0.458-0.369,0.834-0.833,0.834h-12.712c-0.457,0-0.832-0.376-0.832-0.834v-12.714
				c0-0.462,0.375-0.835,0.832-0.835h12.712c0.464,0,0.833,0.373,0.833,0.835V601.571z"/>
			<path fill="#AEAEAE" d="M894.833,601.571c0,0.458-0.372,0.834-0.832,0.834H881.28c-0.453,0-0.825-0.376-0.825-0.834v-12.714
				c0-0.462,0.373-0.835,0.825-0.835h12.721c0.459,0,0.832,0.373,0.832,0.835V601.571z"/>
			<path fill="#AEAEAE" d="M912.352,601.571c0,0.458-0.379,0.834-0.839,0.834h-12.717c-0.457,0-0.829-0.376-0.829-0.834v-12.714
				c0-0.462,0.372-0.835,0.829-0.835h12.717c0.46,0,0.839,0.373,0.839,0.835V601.571z"/>
			<path fill="#AEAEAE" d="M929.861,601.571c0,0.458-0.375,0.834-0.832,0.834h-12.721c-0.456,0-0.833-0.376-0.833-0.834v-12.714
				c0-0.462,0.377-0.835,0.833-0.835h12.721c0.457,0,0.832,0.373,0.832,0.835V601.571z"/>
			<path fill="#AEAEAE" d="M947.367,601.571c0,0.458-0.367,0.834-0.828,0.834h-12.721c-0.455,0-0.829-0.376-0.829-0.834v-12.714
				c0-0.462,0.374-0.835,0.829-0.835h12.721c0.46,0,0.828,0.373,0.828,0.835V601.571z"/>
			<path fill="#AEAEAE" d="M964.886,601.571c0,0.458-0.375,0.834-0.832,0.834h-12.71c-0.462,0-0.833-0.376-0.833-0.834v-12.714
				c0-0.462,0.372-0.835,0.833-0.835h12.71c0.459,0,0.832,0.373,0.832,0.835V601.571z"/>
			<path fill="#AEAEAE" d="M982.394,601.571c0,0.458-0.364,0.834-0.826,0.834H968.85c-0.46,0-0.832-0.376-0.832-0.834v-12.714
				c0-0.462,0.372-0.835,0.832-0.835h12.718c0.461,0,0.826,0.373,0.826,0.835L982.394,601.571L982.394,601.571z"/>
			<path fill="#AEAEAE" d="M999.912,601.571c0,0.458-0.373,0.834-0.834,0.834h-12.72c-0.457,0-0.831-0.376-0.831-0.834v-12.714
				c0-0.462,0.374-0.835,0.831-0.835h12.72c0.461,0,0.834,0.373,0.834,0.835V601.571z"/>
			<path fill="#AEAEAE" d="M1017.419,601.571c0,0.458-0.366,0.834-0.821,0.834h-12.72c-0.46,0-0.833-0.376-0.833-0.834v-12.714
				c0-0.462,0.373-0.835,0.833-0.835h12.72c0.455,0,0.821,0.373,0.821,0.835V601.571z"/>
			<path fill="#AEAEAE" d="M1034.938,601.571c0,0.458-0.374,0.834-0.825,0.834h-12.724c-0.456,0-0.828-0.376-0.828-0.834v-12.714
				c0-0.462,0.372-0.835,0.828-0.835h12.724c0.451,0,0.825,0.373,0.825,0.835V601.571z"/>
			<path fill="#AEAEAE" d="M1052.453,601.571c0,0.458-0.372,0.834-0.833,0.834h-12.717c-0.462,0-0.833-0.376-0.833-0.834v-12.714
				c0-0.462,0.371-0.835,0.833-0.835h12.717c0.461,0,0.833,0.373,0.833,0.835V601.571z"/>
			<path fill="#AEAEAE" d="M1069.963,601.571c0,0.458-0.371,0.834-0.827,0.834h-12.725c-0.452,0-0.825-0.376-0.825-0.834v-12.714
				c0-0.462,0.373-0.835,0.825-0.835h12.725c0.456,0,0.827,0.373,0.827,0.835V601.571z"/>
			<g>
				<path fill="#AEAEAE" d="M1064.573,666.841v6.999c0,0.215,0.083,0.432,0.243,0.586c0.161,0.164,0.377,0.242,0.587,0.242h12.723
					c0.209,0,0.42-0.078,0.587-0.242c0.16-0.154,0.243-0.371,0.243-0.586v-6.999H1064.573z"/>
				<path fill="#AEAEAE" d="M1078.956,665.903v-6.996c0-0.207-0.083-0.423-0.243-0.582c-0.167-0.163-0.378-0.246-0.587-0.246
					h-12.725c-0.209,0-0.424,0.083-0.585,0.246c-0.163,0.159-0.244,0.375-0.244,0.582v6.996H1078.956z"/>
			</g>
			<path fill="#AEAEAE" d="M1082.774,605.54c-0.211,0-0.42,0.075-0.584,0.241c-0.162,0.161-0.237,0.372-0.237,0.582v12.718
				c0,0.218,0.075,0.431,0.237,0.595c0.164,0.158,0.373,0.246,0.584,0.246h3.319v16.677c0,0.217,0.089,0.433,0.246,0.589
				c0.162,0.161,0.372,0.243,0.587,0.243h8.567c0.219,0,0.427-0.082,0.594-0.243c0.162-0.156,0.243-0.372,0.243-0.589v-30.235
				c0-0.21-0.083-0.421-0.243-0.582c-0.167-0.166-0.375-0.241-0.594-0.241L1082.774,605.54L1082.774,605.54z"/>
		</g>
	</g>
	<path fill="#3F3F3F" d="M781.698,596.781l-52.164,0.002c-10.103-0.002-18.368,8.264-18.37,18.366l0.006,90.057
		c-0.002,10.103,8.265,18.368,18.367,18.369l52.164,0c10.105-0.005,18.367-8.269,18.371-18.374l-0.004-90.054
		C800.067,605.047,791.8,596.782,781.698,596.781z"/>
	<path fill="#4EDEC2" d="M793.488,607.413l-75.742,0.004c-0.148-0.003-0.268,0.12-0.268,0.266l0.003,103.928
		c0.002,0.148,0.12,0.269,0.268,0.268l75.74-0.002c0.15-0.002,0.27-0.124,0.27-0.271l-0.005-103.927
		C793.753,607.532,793.634,607.411,793.488,607.413z"/>
	<path fill="#FFFFFF" d="M787.031,616.319l-62.828,0.002c-0.122-0.003-0.224,0.1-0.224,0.22l0.004,86.211
		c-0.001,0.122,0.098,0.22,0.221,0.221l62.827-0.001c0.123-0.001,0.225-0.1,0.223-0.224l-0.004-86.208
		C787.253,616.418,787.153,616.318,787.031,616.319z"/>
	<g>
		<path fill="#FFFFFF" d="M738.177,625.167c4.276-1.912,9.289,0.007,11.199,4.28c1.91,4.273-0.002,9.289-4.278,11.2
			c-4.271,1.909-9.287-0.008-11.198-4.282C731.989,632.092,733.907,627.076,738.177,625.167z"/>
		<path fill="#8EB1DF" d="M748.766,635.5c-1.431,3.936-5.785,5.965-9.721,4.531c-3.936-1.429-5.965-5.785-4.533-9.72
			c1.434-3.937,5.785-5.965,9.721-4.531l0.609-1.678c-4.862-1.771-10.237,0.737-12.007,5.601c-1.77,4.863,0.739,10.238,5.599,12.007
			c4.861,1.771,10.238-0.738,12.009-5.601c0.615-1.688,0.714-3.436,0.377-5.076l-1.75,0.359
			C749.342,632.717,749.262,634.133,748.766,635.5z"/>
		<circle fill="#FFFFFF" cx="769.475" cy="632.905" r="8.476"/>
		<path fill="#FF7878" d="M776.768,634.999c-0.778,2.695-3.026,4.851-5.975,5.376c-4.123,0.726-8.058-2.029-8.784-6.151
			c-0.728-4.125,2.028-8.06,6.15-8.785l-0.309-1.76c-5.097,0.899-8.497,5.758-7.599,10.856c0.9,5.094,5.76,8.496,10.853,7.597
			c3.644-0.643,6.422-3.309,7.379-6.639L776.768,634.999z"/>
		<path fill="#8EB1DF" d="M742.662,632.473l0.001,3.731c0,0.561-0.461,1.02-1.024,1.023l0,0c-0.561,0-1.023-0.461-1.021-1.025
			l0-3.727l-0.672,0.768c-0.371,0.422-1.02,0.468-1.443,0.099l0,0c-0.423-0.37-0.468-1.019-0.096-1.442l2.581-2.951
			c0.408-0.467,0.904-0.473,1.254-0.069l2.63,3.018c0.369,0.423,0.324,1.073-0.096,1.444l0,0c-0.424,0.368-1.074,0.323-1.443-0.101
			L742.662,632.473z"/>
		<path fill="#FF7878" d="M768.454,633.338l0-3.73c-0.002-0.562,0.459-1.021,1.025-1.023l0,0c0.562-0.002,1.019,0.46,1.02,1.023
			l0.001,3.729l0.672-0.769c0.372-0.424,1.018-0.466,1.441-0.099l0,0c0.421,0.371,0.467,1.02,0.099,1.441l-2.583,2.953
			c-0.408,0.465-0.903,0.47-1.255,0.068l-2.629-3.019c-0.372-0.422-0.327-1.074,0.098-1.44l0,0c0.423-0.371,1.072-0.327,1.441,0.099
			L768.454,633.338z"/>
		<path fill="#FFFFFF" d="M738.319,651.109c4.273-1.91,9.289,0.003,11.2,4.278c1.91,4.273-0.008,9.288-4.281,11.198
			c-4.272,1.91-9.287-0.005-11.197-4.279C732.131,658.031,734.049,653.018,738.319,651.109z"/>
		<path fill="#EAAB28" d="M748.906,661.439c-1.432,3.934-5.783,5.965-9.72,4.533c-3.937-1.433-5.964-5.785-4.533-9.72
			c1.432-3.937,5.785-5.964,9.72-4.533l0.61-1.676c-4.864-1.769-10.237,0.738-12.01,5.599c-1.767,4.864,0.739,10.239,5.602,12.006
			c4.86,1.771,10.237-0.734,12.008-5.598c0.613-1.688,0.713-3.435,0.377-5.075l-1.748,0.355
			C749.485,658.658,749.405,660.074,748.906,661.439z"/>
		<path fill="#FFFFFF" d="M769.619,650.367c4.68,0.002,8.475,3.798,8.475,8.477c0,4.68-3.797,8.478-8.476,8.478
			c-4.679-0.002-8.475-3.797-8.476-8.477C761.143,654.16,764.937,650.369,769.619,650.367z"/>
		<path fill="#6284B4" d="M776.907,660.937c-0.774,2.697-3.023,4.856-5.972,5.375c-4.123,0.727-8.057-2.025-8.785-6.149
			c-0.728-4.127,2.029-8.059,6.153-8.787l-0.311-1.756c-5.096,0.897-8.498,5.756-7.599,10.854c0.898,5.094,5.758,8.495,10.853,7.597
			c3.645-0.643,6.422-3.31,7.379-6.642L776.907,660.937z"/>
		<path fill="#EAAB28" d="M742.805,658.413l-0.001,3.729c0,0.563-0.462,1.024-1.023,1.02l0,0c-0.565,0.002-1.023-0.455-1.023-1.017
			l-0.001-3.732l-0.671,0.768c-0.37,0.425-1.021,0.467-1.444,0.096l0,0c-0.422-0.367-0.465-1.018-0.096-1.438l2.582-2.953
			c0.408-0.467,0.901-0.471,1.256-0.066l2.629,3.018c0.371,0.422,0.325,1.07-0.098,1.44l0,0c-0.425,0.368-1.073,0.327-1.444-0.096
			L742.805,658.413z"/>
		<path fill="#6284B4" d="M768.595,659.279l0-3.732c0-0.561,0.459-1.022,1.023-1.024l0,0c0.561,0,1.02,0.463,1.021,1.024
			l0.002,3.731l0.668-0.771c0.374-0.423,1.021-0.466,1.444-0.097l0,0c0.424,0.369,0.466,1.018,0.099,1.441l-2.585,2.95
			c-0.405,0.467-0.903,0.472-1.253,0.065l-2.629-3.014c-0.366-0.422-0.324-1.072,0.1-1.442l0,0c0.422-0.371,1.07-0.325,1.44,0.098
			L768.595,659.279z"/>
		<path fill="#FFFFFF" d="M738.323,675.545c4.271-1.909,9.288,0.007,11.198,4.281c1.909,4.271-0.008,9.287-4.279,11.196
			c-4.274,1.911-9.289-0.007-11.198-4.277C732.134,682.471,734.049,677.456,738.323,675.545z"/>
		<path fill="#FF7878" d="M749.251,685.375c-0.775,2.698-3.025,4.858-5.972,5.378c-4.124,0.724-8.057-2.026-8.786-6.153
			c-0.726-4.126,2.03-8.056,6.153-8.785l-0.311-1.757c-5.095,0.902-8.496,5.755-7.596,10.854c0.896,5.096,5.758,8.497,10.852,7.598
			c3.643-0.643,6.424-3.307,7.377-6.64L749.251,685.375z"/>
		<path fill="#FF7878" d="M740.761,683.718l-0.003-3.732c0.001-0.562,0.459-1.024,1.022-1.024l0,0c0.565,0,1.023,0.461,1.024,1.022
			l0.001,3.732l0.671-0.768c0.37-0.426,1.018-0.466,1.44-0.102l0,0c0.426,0.373,0.468,1.023,0.099,1.445l-2.583,2.951
			c-0.408,0.463-0.901,0.471-1.254,0.065l-2.629-3.018c-0.372-0.424-0.327-1.072,0.098-1.442l0,0
			c0.423-0.369,1.071-0.326,1.441,0.099L740.761,683.718z"/>
		<g>
			<rect x="761.052" y="677.762" fill="#C1D8F3" width="17.915" height="1.13"/>
			<rect x="761.134" y="680.28" fill="#C1D8F3" width="17.912" height="1.132"/>
			<rect x="761.08" y="682.769" fill="#C1D8F3" width="17.914" height="1.13"/>
			<rect x="761.082" y="685.252" fill="#C1D8F3" width="17.916" height="1.133"/>
			<polygon fill="#C1D8F3" points="770.694,688.792 761.021,688.795 761.023,687.661 770.691,687.661 			"/>
		</g>
	</g>
	<path fill="#AEAEAE" d="M765.369,599.917l-19.507,0.002c-0.527-0.001-0.961,0.433-0.96,0.962l0,0c0,0.527,0.433,0.961,0.961,0.959
		l19.502,0c0.529,0,0.963-0.433,0.962-0.962l0,0C766.328,600.35,765.897,599.916,765.369,599.917z"/>
	<path fill="#AEAEAE" d="M754.736,714.494c1.548-0.692,3.36,0.004,4.052,1.551c0.69,1.544,0.001,3.359-1.547,4.051
		c-1.546,0.691-3.362-0.004-4.053-1.548C752.495,717.002,753.188,715.186,754.736,714.494z"/>
	<g>
		<path fill="#FFFFFF" d="M651.2,594.985l22.335,0.006c4.235,0.003,7.699,3.469,7.699,7.704l-0.02,60.075
			c0,4.236-3.467,7.7-7.704,7.699l-22.333-0.007c-4.236-0.002-7.7-3.47-7.7-7.704l0.018-60.073
			C643.496,598.447,646.963,594.984,651.2,594.985z"/>
		
			<rect x="646.267" y="602.867" transform="matrix(-1 -3.465732e-004 3.465732e-004 -1 1324.5458 1263.0703)" fill="#AEAEAE" width="32.232" height="57.107"/>
		<path fill="#B0B0B0" d="M655.13,599.154l14.499,0.006c0.395,0.001,0.719-0.32,0.716-0.715l0,0
			c0.001-0.398-0.321-0.718-0.715-0.718l-14.502-0.003c-0.394-0.002-0.716,0.32-0.716,0.715l0,0
			C654.415,598.832,654.736,599.154,655.13,599.154z"/>
		<polygon fill="#E7E7E7" points="647.261,602.866 679.48,659.989 679.497,602.877 		"/>
		<path fill="#B0B0B0" d="M650.145,666.421l24.432,0.006c0.609,0.001,1.109-0.5,1.11-1.109l0,0c0.001-0.612-0.5-1.11-1.11-1.112
			l-24.431-0.007c-0.612,0-1.11,0.5-1.111,1.11l0,0C649.033,665.92,649.534,666.421,650.145,666.421z"/>
		<circle fill="#FFFFFF" cx="662.344" cy="665.312" r="4.346"/>
		<circle fill="#B0B0B0" cx="662.344" cy="665.314" r="3.064"/>
	</g>
	<g>
		<g>
			<polygon fill="#C54860" points="575.818,631.76 566.007,631.783 564.332,595.59 577.326,595.558 			"/>
			<polygon fill="#1C3141" points="575.702,581.243 565.891,581.264 564.332,595.59 577.326,595.558 			"/>
		</g>
		<g>
			<polygon fill="#E3A24F" points="555.973,631.808 546.162,631.831 544.487,595.637 557.482,595.607 			"/>
			<polygon fill="#1C3141" points="555.856,581.29 546.044,581.313 544.487,595.637 557.482,595.607 			"/>
		</g>
	</g>
	<g>
		<g>
			<path fill="#57527A" d="M519.616,672.991c0.001-2.324,1.886-4.205,4.209-4.203l64.596,0.045c2.324,0.003,4.204,1.885,4.202,4.207
				l-0.013,22.233c-0.002,2.323-1.886,4.203-4.209,4.203l-64.599-0.045c-2.32-0.002-4.202-1.885-4.2-4.21L519.616,672.991z"/>
			<g>
				<path fill="#DDDAD1" d="M541.903,706.003c-1.008,1.259-2.845,1.458-4.103,0.448l-18.202-14.625
					c-1.254-1.01-1.454-2.849-0.445-4.104l23.264-28.948c1.009-1.257,2.845-1.456,4.102-0.447l18.2,14.626
					c1.256,1.008,1.457,2.846,0.447,4.104L541.903,706.003z"/>
				<g>
					<g>
						<path fill="#F4F0E5" d="M541.317,666.782c-1.488,1.851-1.194,4.563,0.659,6.05l5.393-6.71
							C545.514,664.634,542.805,664.928,541.317,666.782z"/>
						<path fill="#FAF9F6" d="M547.369,666.122l-5.394,6.71c1.852,1.491,4.562,1.198,6.052-0.656
							C549.517,670.322,549.221,667.612,547.369,666.122z"/>
					</g>
					<g>
						<path fill="#F4F0E5" d="M551.176,674.704c-1.49,1.853-1.194,4.563,0.66,6.051l5.392-6.712
							C555.373,672.555,552.663,672.851,551.176,674.704z"/>
						<path fill="#FAF9F6" d="M557.228,674.044l-5.393,6.71c1.853,1.488,4.563,1.193,6.05-0.659
							C559.374,678.243,559.08,675.531,557.228,674.044z"/>
					</g>
				</g>
				<g>
					<g>
						<path fill="#F4F0E5" d="M533.853,676.071c-1.49,1.853-1.195,4.562,0.657,6.052l5.393-6.712
							C538.049,673.923,535.341,674.219,533.853,676.071z"/>
						<path fill="#FAF9F6" d="M539.904,675.412l-5.393,6.712c1.853,1.488,4.563,1.194,6.052-0.659
							C542.052,679.61,541.755,676.901,539.904,675.412z"/>
					</g>
					<g>
						<path fill="#F4F0E5" d="M543.71,683.991c-1.49,1.855-1.194,4.563,0.658,6.055l5.393-6.713
							C547.909,681.844,545.199,682.14,543.71,683.991z"/>
						<path fill="#FAF9F6" d="M549.762,683.333l-5.393,6.713c1.853,1.485,4.565,1.19,6.055-0.663
							C551.908,687.532,551.614,684.823,549.762,683.333z"/>
					</g>
				</g>
				<g>
					<g>
						<path fill="#F4F0E5" d="M526.387,685.361c-1.489,1.853-1.196,4.564,0.661,6.05l5.392-6.709
							C530.587,683.21,527.879,683.505,526.387,685.361z"/>
						<path fill="#FAF9F6" d="M532.439,684.702l-5.392,6.709c1.851,1.489,4.562,1.195,6.051-0.657
							C534.587,688.901,534.292,686.19,532.439,684.702z"/>
					</g>
					<g>
						<path fill="#F4F0E5" d="M536.246,693.281c-1.491,1.855-1.194,4.563,0.658,6.053l5.394-6.712
							C540.442,691.134,537.735,691.429,536.246,693.281z"/>
						<path fill="#FAF9F6" d="M542.298,692.622l-5.394,6.712c1.854,1.487,4.564,1.193,6.051-0.661
							C544.445,696.823,544.15,694.113,542.298,692.622z"/>
					</g>
				</g>
			</g>
			<g>
				<path fill="#96691A" d="M566.468,663.173c7.536-2.858,15.993,0.948,18.851,8.485c2.857,7.537-0.948,15.994-8.485,18.852
					c-7.536,2.856-15.993-0.95-18.851-8.485C555.125,674.486,558.93,666.03,566.468,663.173z M576.008,688.33
					c6.334-2.402,9.534-9.51,7.131-15.844c-2.403-6.338-9.51-9.536-15.845-7.134c-6.336,2.402-9.537,9.511-7.133,15.846
					C562.562,687.532,569.671,690.733,576.008,688.33z"/>
				<path fill="#E3A24F" d="M571.616,691.035c-0.324-0.852,0.105-1.806,0.955-2.128l6.662-2.525
					c0.854-0.325,1.807,0.103,2.131,0.958l0,0c0.323,0.853-0.108,1.806-0.961,2.129l-6.661,2.524
					C572.891,692.315,571.937,691.887,571.616,691.035L571.616,691.035z"/>
			</g>
			<path fill="#6C668E" d="M519.459,649.297c0.003-2.322,1.885-4.204,4.207-4.202l64.6,0.045c2.323,0.001,4.204,1.884,4.2,4.209
				l-0.013,22.232c-0.003,2.323-1.887,4.206-4.209,4.202l-64.599-0.045c-2.32-0.002-4.202-1.885-4.202-4.207L519.459,649.297z"/>
			<circle fill="#EBD9BC" cx="557.039" cy="661.277" r="3.562"/>
			<path fill="#C0B49D" d="M555.853,659.943c0.739-0.657,1.869-0.593,2.526,0.146c0.656,0.738,0.588,1.868-0.151,2.526
				c-0.737,0.655-1.868,0.591-2.524-0.147C555.047,661.728,555.116,660.598,555.853,659.943z"/>
		</g>
		<g>
			<g>
				<path fill="#B63F27" d="M595.236,698.212c-0.153-0.246-0.279-0.509-0.386-0.782c-0.454-1.188-0.422-2.479,0.095-3.641
					c0.517-1.16,1.456-2.051,2.643-2.507c2.141-0.823,4.565-0.001,5.761,1.952c0.151,0.251,0.282,0.513,0.385,0.785
					c0.941,2.449-0.283,5.208-2.735,6.147C598.858,700.991,596.431,700.168,595.236,698.212z M602.453,693.785
					c-0.93-1.523-2.82-2.162-4.49-1.521c-0.925,0.355-1.656,1.048-2.058,1.953c-0.402,0.904-0.428,1.914-0.074,2.837
					c0.081,0.213,0.184,0.419,0.3,0.612c0.933,1.523,2.822,2.164,4.49,1.521c1.909-0.731,2.865-2.882,2.134-4.788
					C602.674,694.181,602.572,693.976,602.453,693.785z"/>
				<path fill="#6B5645" d="M620.228,694.41c3.168-1.217,4.728-4.826,3.488-8.06c-1.243-3.234-4.816-4.868-7.985-3.654
					c-3.514,1.348-6.147,3.372-7.891,5.693l-6.848,2.626c-1.953,0.751-2.93,2.943-2.178,4.895c0.749,1.952,2.94,2.927,4.89,2.179
					l7.558-2.9C614.122,695.685,617.104,695.608,620.228,694.41z"/>
				<circle fill="#79A2A0" cx="616.702" cy="689.043" r="4.134"/>
				<path fill="#D39F34" d="M602.999,695.822c-0.731,0.281-1.551-0.085-1.833-0.815c-0.281-0.733,0.086-1.553,0.815-1.834
					c0.731-0.281,1.551,0.085,1.835,0.816C604.096,694.72,603.73,695.543,602.999,695.822z"/>
				<path fill="#D39F34" d="M606.762,691.437c0.586-0.521,1.483-0.47,2.005,0.116c0.521,0.586,0.465,1.482-0.121,2.003
					c-0.584,0.519-1.48,0.468-2-0.118C606.124,692.852,606.178,691.956,606.762,691.437z"/>
			</g>
			<g>
				<polygon fill="#F4F0E5" points="582.914,688.02 575.888,679.944 574.069,681.347 581.355,689.679 				"/>
				<polygon fill="#DDDAD1" points="574.498,681.158 574.604,680.791 576.495,681.339 576.484,682.919 578.355,683.337 
					578.459,685.028 579.823,685.426 580.054,686.955 581.145,687.119 582.047,688.919 581.705,689.092 580.893,687.468 
					579.719,687.292 579.481,685.726 578.094,685.32 577.991,683.648 576.102,683.226 576.109,681.626 				"/>
				<path fill="#6B5645" d="M585.184,696.651c0.992-0.198,2.032-0.787,2.885-1.594c0.839-0.819,1.468-1.836,1.705-2.82
					c0.778-3.228-3.172-6.347-6.39-4.586c-0.568,0.31-1.02,0.695-1.444,1.048c-0.369,0.41-0.759,0.833-1.089,1.386
					C578.968,693.234,581.925,697.302,585.184,696.651z M584.833,693.312c-0.081-0.458,0.088-0.902,0.399-1.201
					c0.311-0.303,0.763-0.455,1.218-0.358c0.725,0.156,1.192,0.868,1.04,1.595c-0.058,0.279-0.201,0.519-0.393,0.7
					c-0.189,0.184-0.432,0.317-0.714,0.365C585.649,694.539,584.955,694.047,584.833,693.312z"/>
			</g>
			<g>
				<path fill="#DDDAD1" d="M592.326,709.51l3.872,9.983l2.589,1.188l1.191-2.591l-1.555-0.714l0.713-1.556l-1.557-0.71l0.715-1.556
					l-2.187-5.445c0.125-0.134,0.245-0.284,0.364-0.436l-5.198,1.614C591.614,709.389,591.968,709.463,592.326,709.51z"/>
				<path fill="#F4F0E5" d="M587.787,701.996c-1.208,2.637-0.052,5.756,2.583,6.965c2.638,1.208,5.754,0.051,6.965-2.586
					c1.207-2.635,0.052-5.751-2.583-6.963C592.113,698.204,588.996,699.361,587.787,701.996z M593.447,703.228
					c-0.402,0.88-1.441,1.265-2.32,0.861c-0.881-0.401-1.263-1.441-0.864-2.319c0.404-0.88,1.444-1.267,2.324-0.864
					C593.466,701.31,593.852,702.35,593.447,703.228z"/>
			</g>
			<g>
				<path fill="#D6C6AD" d="M579.387,702.496l-6.321,8.639l0.396,2.826l2.824-0.395l-0.237-1.695l1.693-0.236l-0.236-1.694
					l1.695-0.237l3.405-4.779c0.184,0.034,0.374,0.056,0.568,0.073l-4.162-3.507C579.11,701.83,579.234,702.166,579.387,702.496z"/>
				<path fill="#EBD9BC" d="M583.273,694.623c-2.875,0.403-4.877,3.058-4.475,5.93c0.404,2.871,3.059,4.875,5.929,4.474
					c2.873-0.404,4.877-3.058,4.475-5.93C588.8,696.224,586.143,694.22,583.273,694.623z M585.285,700.055
					c-0.956,0.134-1.841-0.534-1.976-1.491c-0.133-0.959,0.533-1.843,1.492-1.979c0.956-0.132,1.841,0.535,1.973,1.493
					C586.911,699.036,586.242,699.921,585.285,700.055z"/>
			</g>
			<path fill="#3F3F3F" d="M586.922,702.679c-0.817-0.592-1.498-1.333-2.031-2.198c-2.202-3.6-1.068-8.32,2.529-10.522
				c2.648-1.621,5.979-1.491,8.492,0.331c0.819,0.591,1.503,1.333,2.035,2.199c1.067,1.744,1.39,3.8,0.911,5.786
				s-1.699,3.668-3.445,4.738C592.77,704.631,589.438,704.501,586.922,702.679z M594.415,692.359
				c-1.674-1.213-3.894-1.303-5.656-0.221c-2.398,1.469-3.151,4.613-1.686,7.006c0.356,0.578,0.807,1.072,1.353,1.465
				c1.673,1.214,3.893,1.3,5.657,0.223c1.16-0.712,1.973-1.832,2.293-3.157c0.319-1.323,0.102-2.692-0.607-3.851
				C595.412,693.244,594.958,692.753,594.415,692.359z"/>
			<g>
				<path fill="#DDDAD1" d="M592.326,709.51l3.872,9.983l2.589,1.188l1.191-2.591l-1.555-0.714l0.713-1.556l-1.557-0.71l0.715-1.556
					l-2.187-5.445c0.125-0.134,0.245-0.284,0.364-0.436l-5.198,1.614C591.614,709.389,591.968,709.463,592.326,709.51z"/>
				<path fill="#F4F0E5" d="M597.335,706.375c1.207-2.635,0.052-5.751-2.583-6.963c-0.863-0.393-1.772-0.532-2.655-0.452
					l0.596,2.012c0.799,0.437,1.137,1.416,0.753,2.257c-0.388,0.848-1.369,1.231-2.229,0.893l-2.756,3.341
					c0.493,0.621,1.135,1.143,1.907,1.498C593.008,710.169,596.122,709.013,597.335,706.375z"/>
			</g>
			<g>
				<path fill="#D6C6AD" d="M579.387,702.496l-6.321,8.639l0.396,2.826l2.824-0.395l-0.237-1.695l1.693-0.236l-0.236-1.694
					l1.695-0.237l3.405-4.779c0.184,0.034,0.374,0.056,0.568,0.073l-4.162-3.507C579.11,701.83,579.234,702.166,579.387,702.496z"/>
				<path fill="#EBD9BC" d="M584.667,700.025c-0.692-0.153-1.253-0.718-1.358-1.461c-0.133-0.959,0.533-1.843,1.492-1.979
					c0.893-0.125,1.714,0.453,1.93,1.31l2.154,0.013c-0.865-2.215-3.158-3.631-5.612-3.286c-2.875,0.403-4.877,3.058-4.475,5.931
					c0.405,2.871,3.059,4.875,5.93,4.475c0.423-0.06,0.826-0.175,1.207-0.324L584.667,700.025z"/>
			</g>
			<path fill="#6B5645" d="M584.834,693.313C584.834,693.313,584.834,693.313,584.834,693.313c-0.081-0.459,0.087-0.903,0.399-1.201
				c0.311-0.303,0.763-0.455,1.218-0.358c0.725,0.156,1.192,0.868,1.04,1.595c-0.032,0.146-0.086,0.281-0.158,0.403
				c0.412,0.206,0.799,0.488,1.16,0.849c0.625-0.725,1.087-1.555,1.281-2.364c0.778-3.228-3.172-6.347-6.39-4.586
				c-0.568,0.309-1.02,0.695-1.444,1.048c-0.369,0.41-0.759,0.833-1.089,1.386c-1.019,1.702-0.618,3.671,0.475,5.019
				C582.227,694.12,583.508,693.451,584.834,693.313z"/>
			<path fill="#E3A24F" d="M595.905,694.216c0.402-0.905,1.134-1.598,2.058-1.953c0.309-0.116,0.62-0.192,0.935-0.226
				c-0.199-0.33-0.356-0.661-0.471-0.989c-0.281,0.052-0.564,0.128-0.839,0.233c-1.186,0.455-2.126,1.345-2.642,2.508
				c-0.517,1.161-0.549,2.453-0.095,3.641c0.029,0.079,0.065,0.153,0.099,0.229c0.123-0.555,0.352-1.074,0.659-1.545
				C595.538,695.473,595.636,694.822,595.905,694.216z"/>
		</g>
	</g>
	<g>
	</g>
	<g>
	</g>
	<g>
	</g>
	<g>
	</g>
	<g>
	</g>
	<g>
	</g>
</g>
</svg>
