<?xml version="1.0" encoding="utf-8"?>
<!-- Generator: Adobe Illustrator 17.0.0, SVG Export Plug-In . SVG Version: 6.00 Build 0)  -->
<!DOCTYPE svg PUBLIC "-//W3C//DTD SVG 1.1//EN" "http://www.w3.org/Graphics/SVG/1.1/DTD/svg11.dtd">
<svg version="1.1" id="Capa_1" xmlns="http://www.w3.org/2000/svg" xmlns:xlink="http://www.w3.org/1999/xlink" x="0px" y="0px"
	 width="61px" height="61px" viewBox="0 0 61 61" enable-background="new 0 0 61 61" xml:space="preserve">
<g id="Facebook" transform="translate(79.000000, 0.000000)">
	<path fill="#39558E" d="M-78.543,30.5c0-16.569,13.451-30,30.043-30s30.043,13.431,30.043,30s-13.451,30-30.043,30
		S-78.543,47.069-78.543,30.5z"/>
	<path id="Path_18_" fill="#FFFFFF" d="M-45.988,46.82V30.498h4.505l0.597-5.625h-5.103l0.008-2.815
		c0-1.467,0.139-2.253,2.246-2.253h2.817V14.18h-4.506c-5.413,0-7.318,2.728-7.318,7.317v3.377h-3.374v5.625h3.374V46.82H-45.988z"
		/>
	<path id="reflec_28_" fill="#010002" fill-opacity="0.08" d="M-18.457,30.5c0,16.569-13.451,30-30.043,30
		c-6.154,0-11.875-1.847-16.639-5.017l34.425-49.163C-23.281,11.781-18.457,20.578-18.457,30.5z"/>
</g>
<g>
</g>
<g>
</g>
<g>
</g>
<g>
</g>
<g>
</g>
<g>
</g>
</svg>
