<?xml version="1.0" encoding="utf-8"?>
<!-- Generator: Adobe Illustrator 17.0.0, SVG Export Plug-In . SVG Version: 6.00 Build 0)  -->
<!DOCTYPE svg PUBLIC "-//W3C//DTD SVG 1.1//EN" "http://www.w3.org/Graphics/SVG/1.1/DTD/svg11.dtd">
<svg version="1.1" id="Capa_1" xmlns="http://www.w3.org/2000/svg" xmlns:xlink="http://www.w3.org/1999/xlink" x="0px" y="0px"
	 width="61px" height="61px" viewBox="0 0 61 61" enable-background="new 0 0 61 61" xml:space="preserve">
<g id="Github" transform="translate(237.000000, 0.000000)">
	<path fill="#333232" d="M-236.543,30.5c0-16.569,13.451-30,30.043-30s30.043,13.431,30.043,30s-13.451,30-30.043,30
		S-236.543,47.069-236.543,30.5z"/>
	<path id="Path_20_" fill="#FFFFFF" d="M-218.364,32.436c1.412,2.515,4.134,4.08,8.725,4.513c-0.655,0.488-1.443,1.415-1.551,2.486
		c-0.824,0.523-2.481,0.695-3.769,0.297c-1.805-0.559-2.496-4.067-5.199-3.567c-0.586,0.108-0.469,0.487,0.037,0.809
		c0.824,0.523,1.6,1.178,2.198,2.571c0.46,1.07,1.425,2.982,4.479,2.982c1.212,0,2.061-0.143,2.061-0.143s0.023,2.731,0.023,3.793
		c0,1.224-1.684,1.57-1.684,2.158c0,0.233,0.557,0.255,1.005,0.255c0.885,0,2.727-0.725,2.727-1.998
		c0-1.011,0.016-4.411,0.016-5.006c0-1.3,0.711-1.712,0.711-1.712s0.088,6.942-0.17,7.872c-0.302,1.094-0.848,0.939-0.848,1.427
		c0,0.726,2.217,0.178,2.952-1.416c0.568-1.24,0.32-8.05,0.32-8.05l0.606-0.012c0,0,0.034,3.117,0.014,4.542
		c-0.021,1.475-0.123,3.342,0.77,4.222c0.587,0.578,2.489,1.593,2.489,0.666c0-0.539-1.042-0.983-1.042-2.442v-6.714
		c0.832,0,0.707,2.208,0.707,2.208l0.061,4.102c0,0-0.183,1.494,1.647,2.12c0.646,0.222,2.028,0.282,2.093-0.09
		c0.065-0.373-1.665-0.928-1.68-2.085c-0.01-0.706,0.032-1.118,0.032-4.186c0-3.068-0.42-4.202-1.883-5.106
		c4.515-0.456,7.309-1.552,8.671-4.487c0.106,0.003,0.554-1.371,0.496-1.371c0.305-1.108,0.47-2.419,0.503-3.972
		c-0.008-4.209-2.061-5.698-2.456-6.397c0.582-3.187-0.097-4.638-0.412-5.135c-1.163-0.406-4.048,1.045-5.623,2.067
		c-2.569-0.737-7.998-0.666-10.034,0.19c-3.757-2.64-5.744-2.236-5.744-2.236s-1.285,2.259-0.339,5.565
		c-1.236,1.546-2.157,2.64-2.157,5.539c0,1.633,0.196,3.096,0.638,4.372C-219.029,31.068-218.382,32.436-218.364,32.436z"/>
	<path id="reflec_30_" fill="#010002" fill-opacity="0.08" d="M-176.457,30.5c0,16.569-13.451,30-30.043,30
		c-6.154,0-11.875-1.847-16.639-5.017l34.425-49.163C-181.281,11.781-176.457,20.578-176.457,30.5z"/>
</g>
<g>
</g>
<g>
</g>
<g>
</g>
<g>
</g>
<g>
</g>
<g>
</g>
</svg>
