<?xml version="1.0" encoding="utf-8"?>
<!-- Generator: Adobe Illustrator 17.0.0, SVG Export Plug-In . SVG Version: 6.00 Build 0)  -->
<!DOCTYPE svg PUBLIC "-//W3C//DTD SVG 1.1//EN" "http://www.w3.org/Graphics/SVG/1.1/DTD/svg11.dtd">
<svg version="1.1" id="Capa_1" xmlns="http://www.w3.org/2000/svg" xmlns:xlink="http://www.w3.org/1999/xlink" x="0px" y="0px"
	 width="61px" height="61px" viewBox="0 0 61 61" enable-background="new 0 0 61 61" xml:space="preserve">
<g id="LinkedIN" transform="translate(316.000000, 0.500000)">
	<path fill="#0D73A7" d="M-315.543,30c0-16.569,13.451-30,30.043-30s30.043,13.431,30.043,30s-13.451,30-30.043,30
		S-315.543,46.569-315.543,30z"/>
	<path id="Path_9_" fill="#FFFFFF" d="M-293.158,23.71h-6.799v20.427h6.799V23.71z"/>
	<path id="Path_10_" fill="#FFFFFF" d="M-292.71,17.391c-0.044-2.003-1.476-3.528-3.802-3.528s-3.846,1.526-3.846,3.528
		c0,1.961,1.476,3.531,3.758,3.531h0.043C-294.186,20.922-292.71,19.352-292.71,17.391z"/>
	<path id="Path_11_" fill="#FFFFFF" d="M-268.639,32.425c0-6.274-3.354-9.195-7.828-9.195c-3.61,0-5.226,1.983-6.128,3.374V23.71
		h-6.799c0.09,1.917,0,20.427,0,20.427h6.799V32.729c0-0.611,0.044-1.22,0.224-1.657c0.491-1.22,1.61-2.482,3.488-2.482
		c2.461,0,3.445,1.873,3.445,4.618v10.929h6.798L-268.639,32.425z"/>
	<path id="reflec_22_" fill="#010002" fill-opacity="0.08" d="M-255.457,30c0,16.569-13.451,30-30.043,30
		c-6.154,0-11.875-1.847-16.639-5.017l34.425-49.163C-260.281,11.281-255.457,20.078-255.457,30z"/>
</g>
<g>
</g>
<g>
</g>
<g>
</g>
<g>
</g>
<g>
</g>
<g>
</g>
</svg>
