<?xml version="1.0" encoding="utf-8"?>
<!-- Generator: Adobe Illustrator 17.0.0, SVG Export Plug-In . SVG Version: 6.00 Build 0)  -->
<!DOCTYPE svg PUBLIC "-//W3C//DTD SVG 1.1//EN" "http://www.w3.org/Graphics/SVG/1.1/DTD/svg11.dtd">
<svg version="1.1" id="Capa_1" xmlns="http://www.w3.org/2000/svg" xmlns:xlink="http://www.w3.org/1999/xlink" x="0px" y="0px"
	 width="61px" height="61px" viewBox="0 0 61 61" enable-background="new 0 0 61 61" xml:space="preserve">
<g id="Mail" transform="translate(158.000000, 0.000000)">
	<path fill="#FFFFFF" d="M-157.543,30.5c0-16.569,13.451-30,30.043-30s30.043,13.431,30.043,30s-13.451,30-30.043,30
		S-157.543,47.069-157.543,30.5z"/>
	<path id="Shape_10_" fill="#333232" d="M-122.149,32.138l12.378-11.638v20.576L-122.149,32.138z M-143.772,20.5l12.377,11.637
		l-12.377,8.939V20.5z M-126.772,36.484l2.955-2.778l14.045,8.793h-34l14.045-8.793L-126.772,36.484z M-110.792,20.5l-15.98,12.455
		l-15.98-12.455H-110.792z"/>
	<path id="reflec_2_" fill="#010002" fill-opacity="0.08" d="M-97.457,30.5c0,16.569-13.451,30-30.043,30
		c-6.154,0-11.875-1.847-16.639-5.017l34.425-49.163C-102.281,11.781-97.457,20.578-97.457,30.5z"/>
</g>
<g>
</g>
<g>
</g>
<g>
</g>
<g>
</g>
<g>
</g>
<g>
</g>
</svg>
