<?xml version="1.0" encoding="utf-8"?>
<!-- Generator: Adobe Illustrator 17.0.0, SVG Export Plug-In . SVG Version: 6.00 Build 0)  -->
<!DOCTYPE svg PUBLIC "-//W3C//DTD SVG 1.1//EN" "http://www.w3.org/Graphics/SVG/1.1/DTD/svg11.dtd">
<svg version="1.1" id="Capa_1" xmlns="http://www.w3.org/2000/svg" xmlns:xlink="http://www.w3.org/1999/xlink" x="0px" y="0px"
	 width="61px" height="61px" viewBox="0 0 61 61" enable-background="new 0 0 61 61" xml:space="preserve">
<g id="Twitter">
	<path fill="#4E84C0" d="M0.457,30.5c0-16.569,13.451-30,30.043-30s30.043,13.431,30.043,30s-13.451,30-30.043,30
		S0.457,47.069,0.457,30.5z"/>
	<path id="Path_17_" fill="#FFFFFF" d="M29.756,24.388l0.063,1.038l-1.049-0.127c-3.819-0.487-7.156-2.14-9.989-4.915l-1.385-1.377
		l-0.357,1.017c-0.755,2.267-0.273,4.661,1.301,6.271c0.839,0.89,0.651,1.017-0.797,0.487c-0.504-0.169-0.944-0.297-0.986-0.233
		c-0.147,0.148,0.357,2.076,0.755,2.839c0.546,1.059,1.658,2.097,2.875,2.712l1.028,0.487l-1.217,0.021
		c-1.175,0-1.217,0.021-1.091,0.466c0.42,1.377,2.077,2.839,3.924,3.474l1.301,0.445l-1.133,0.678
		c-1.679,0.975-3.651,1.525-5.624,1.568c-0.944,0.021-1.721,0.106-1.721,0.169c0,0.212,2.56,1.398,4.05,1.864
		c4.47,1.377,9.779,0.784,13.766-1.568c2.833-1.674,5.666-5,6.988-8.22c0.713-1.716,1.427-4.851,1.427-6.356
		c0-0.975,0.063-1.102,1.238-2.267c0.692-0.678,1.343-1.419,1.469-1.631c0.21-0.403,0.189-0.403-0.881-0.042
		c-1.784,0.636-2.035,0.551-1.154-0.403c0.651-0.678,1.427-1.907,1.427-2.267c0-0.064-0.315,0.042-0.672,0.233
		c-0.378,0.212-1.217,0.53-1.847,0.72l-1.133,0.36l-1.028-0.699c-0.567-0.381-1.364-0.805-1.784-0.932
		c-1.07-0.297-2.707-0.254-3.672,0.085C31.225,19.24,29.568,21.697,29.756,24.388z"/>
	<path id="reflec_27_" fill="#030104" fill-opacity="0.08" d="M60.543,30.5c0,16.569-13.451,30-30.043,30
		c-6.154,0-11.875-1.847-16.639-5.017L48.286,6.319C55.719,11.781,60.543,20.578,60.543,30.5z"/>
</g>
<g>
</g>
<g>
</g>
<g>
</g>
<g>
</g>
<g>
</g>
<g>
</g>
</svg>
